<svg width="1839" height="1134" viewBox="0 0 1839 1134" fill="none" xmlns="http://www.w3.org/2000/svg">
<path d="M1729.24 67.6355L1722.69 82.9201C1722.03 84.4581 1720.64 85.5641 1719 85.8668L1694.86 90.3051C1691.63 90.8987 1689.84 94.3888 1691.24 97.357L1701.32 118.715C1702.06 120.278 1701.94 122.11 1701 123.561L1692.1 137.361C1689.87 140.808 1692.51 145.32 1696.61 145.063L1768.07 140.578C1771.66 140.352 1773.85 136.509 1772.2 133.302L1738.29 67.3208C1736.35 63.5585 1730.91 63.7479 1729.24 67.6355Z" fill="#F5CD49" fill-opacity="0.4"/>
<path d="M1482.3 22.2739L1480.12 38.7614C1479.9 40.4205 1478.86 41.8598 1477.36 42.596L1455.32 53.3929C1452.37 54.8369 1451.59 58.681 1453.75 61.16L1469.22 78.9986C1470.36 80.3034 1470.73 82.1004 1470.23 83.7511L1465.38 99.4446C1464.17 103.365 1467.93 106.994 1471.81 105.64L1539.39 82.0094C1542.79 80.8195 1543.86 76.5287 1541.4 73.8871L1490.92 19.527C1488.04 16.4273 1482.85 18.0803 1482.3 22.2739Z" fill="#F5CD49" fill-opacity="0.4"/>
<path d="M1250.67 113.478L1260.92 126.573C1261.95 127.89 1262.26 129.637 1261.73 131.226L1254.03 154.525C1252.99 157.642 1255.19 160.889 1258.47 161.087L1282.05 162.511C1283.77 162.615 1285.32 163.602 1286.14 165.121L1293.96 179.565C1295.91 183.173 1301.14 183.023 1302.89 179.308L1333.29 114.49C1334.82 111.226 1332.5 107.464 1328.9 107.368L1254.74 105.397C1250.51 105.285 1248.06 110.148 1250.67 113.478Z" fill="#F5CD49" fill-opacity="0.4"/>
<path d="M1239.28 321.052L1255.8 319.11C1257.46 318.914 1259.11 319.563 1260.19 320.839L1276.08 339.545C1278.21 342.046 1282.12 341.857 1284 339.162L1297.48 319.771C1298.47 318.352 1300.12 317.543 1301.84 317.631L1318.24 318.469C1322.34 318.678 1324.93 314.136 1322.67 310.715L1283.14 251.021C1281.15 248.015 1276.73 248.039 1274.77 251.067L1234.5 313.372C1232.2 316.925 1235.08 321.546 1239.28 321.052Z" fill="#F5CD49" fill-opacity="0.4"/>
<path d="M1128.18 350.278L1143.94 355.592C1145.52 356.127 1146.74 357.42 1147.17 359.036L1153.52 382.742C1154.37 385.912 1157.99 387.418 1160.84 385.784L1181.32 374.029C1182.82 373.169 1184.66 373.144 1186.18 373.962L1200.65 381.74C1204.26 383.683 1208.55 380.687 1207.96 376.625L1197.79 305.756C1197.27 302.187 1193.27 300.317 1190.2 302.216L1127.14 341.29C1123.55 343.518 1124.17 348.927 1128.18 350.278Z" fill="#F5CD49" fill-opacity="0.4"/>
<path d="M1194.96 493.518L1211.48 491.632C1213.15 491.442 1214.79 492.097 1215.87 493.376L1231.7 512.136C1233.81 514.645 1237.73 514.469 1239.61 511.781L1253.16 492.435C1254.15 491.02 1255.8 490.217 1257.53 490.311L1273.93 491.205C1278.03 491.428 1280.63 486.894 1278.38 483.466L1239.05 423.637C1237.07 420.624 1232.65 420.634 1230.68 423.655L1190.2 485.822C1187.89 489.367 1190.76 493.998 1194.96 493.518Z" fill="#F5CD49" fill-opacity="0.4"/>
<path d="M1080.69 524.05L1094.15 533.812C1095.51 534.794 1096.28 536.389 1096.21 538.061L1095.22 562.583C1095.09 565.863 1098.1 568.378 1101.3 567.665L1124.36 562.538C1126.04 562.163 1127.81 562.685 1129.01 563.919L1140.51 575.649C1143.38 578.579 1148.37 576.994 1149.02 572.943L1160.39 502.255C1160.96 498.696 1157.69 495.719 1154.2 496.62L1082.37 515.16C1078.28 516.217 1077.26 521.567 1080.69 524.05Z" fill="#F5CD49" fill-opacity="0.4"/>
<path d="M1021.24 680.292L1034.7 690.054C1036.06 691.036 1036.83 692.631 1036.76 694.304L1035.78 718.825C1035.64 722.105 1038.65 724.62 1041.86 723.908L1064.91 718.78C1066.6 718.405 1068.36 718.927 1069.57 720.161L1081.07 731.891C1083.94 734.821 1088.92 733.236 1089.57 729.186L1100.94 658.498C1101.52 654.938 1098.25 651.961 1094.76 652.862L1022.92 671.402C1018.83 672.46 1017.81 677.809 1021.24 680.292Z" fill="#F5CD49" fill-opacity="0.4"/>
<path d="M932.992 589.223L935.206 605.706C935.428 607.365 934.807 609.025 933.549 610.129L915.107 626.322C912.641 628.487 912.894 632.401 915.62 634.231L935.23 647.392C936.665 648.355 937.501 649.99 937.441 651.717L936.873 668.132C936.731 672.232 941.316 674.749 944.699 672.428L1003.74 631.921C1006.71 629.881 1006.61 625.461 1003.55 623.555L940.592 584.314C937.002 582.077 932.429 585.031 932.992 589.223Z" fill="#F5CD49" fill-opacity="0.4"/>
<path d="M807.967 700.971L810.181 717.454C810.404 719.113 809.782 720.773 808.525 721.877L790.083 738.07C787.616 740.235 787.87 744.15 790.595 745.979L810.206 759.14C811.64 760.103 812.476 761.738 812.417 763.465L811.849 779.88C811.707 783.98 816.292 786.497 819.675 784.176L878.711 743.669C881.683 741.629 881.586 737.209 878.527 735.303L815.567 696.063C811.977 693.825 807.404 696.779 807.967 700.971Z" fill="#F5CD49" fill-opacity="0.4"/>
<path d="M726.092 601.393L728.306 617.876C728.529 619.535 727.907 621.195 726.65 622.299L708.208 638.492C705.741 640.657 705.995 644.571 708.72 646.4L728.331 659.562C729.765 660.525 730.601 662.16 730.542 663.887L729.974 680.302C729.832 684.402 734.417 686.919 737.8 684.598L796.836 644.091C799.808 642.051 799.711 637.631 796.652 635.724L733.692 596.484C730.102 594.247 725.529 597.201 726.092 601.393Z" fill="#F5CD49" fill-opacity="0.4"/>
<path d="M599.961 681.055L602.175 697.538C602.398 699.197 601.776 700.857 600.519 701.961L582.077 718.154C579.61 720.319 579.864 724.234 582.589 726.063L602.2 739.224C603.635 740.187 604.47 741.822 604.411 743.549L603.843 759.964C603.701 764.064 608.286 766.581 611.669 764.26L670.705 723.753C673.678 721.713 673.58 717.293 670.521 715.387L607.562 676.147C603.972 673.909 599.398 676.863 599.961 681.055Z" fill="#F5CD49" fill-opacity="0.4"/>
<path d="M524.426 576.383L524.183 593.013C524.159 594.686 523.299 596.236 521.892 597.143L501.263 610.437C498.504 612.214 498.178 616.123 500.603 618.334L518.057 634.246C519.334 635.41 519.919 637.15 519.605 638.849L516.622 655.001C515.876 659.035 520.04 662.201 523.728 660.404L588.095 629.052C591.336 627.473 591.892 623.087 589.147 620.75L532.667 572.65C529.447 569.907 524.487 572.154 524.426 576.383Z" fill="#F5CD49" fill-opacity="0.4"/>
<path d="M386.826 691.835L395.809 705.831C396.713 707.24 396.853 709.007 396.181 710.54L386.328 733.017C385.011 736.023 386.897 739.461 390.141 739.965L413.479 743.587C415.187 743.852 416.636 744.979 417.313 746.569L423.748 761.681C425.355 765.456 430.574 765.795 432.656 762.259L468.993 700.569C470.822 697.462 468.863 693.5 465.284 693.067L391.633 684.171C387.433 683.663 384.541 688.276 386.826 691.835Z" fill="#F5CD49" fill-opacity="0.4"/>
<path d="M262.662 637.339L273.061 650.319C274.107 651.625 274.43 653.368 273.922 654.962L266.474 678.346C265.478 681.474 267.714 684.696 270.992 684.858L294.582 686.019C296.307 686.104 297.867 687.074 298.706 688.584L306.686 702.94C308.679 706.526 313.905 706.318 315.606 702.584L345.292 637.432C346.787 634.151 344.424 630.415 340.82 630.359L266.642 629.214C262.412 629.148 260.018 634.038 262.662 637.339Z" fill="#F5CD49" fill-opacity="0.4"/>
<path d="M228.593 819.204L244.345 824.54C245.93 825.076 247.141 826.371 247.572 827.988L253.891 851.702C254.736 854.874 258.356 856.385 261.205 854.755L281.706 843.029C283.206 842.171 285.042 842.148 286.562 842.968L301.018 850.766C304.629 852.714 308.92 849.724 308.342 845.662L298.264 774.778C297.757 771.209 293.753 769.334 290.686 771.228L227.569 810.214C223.97 812.437 224.586 817.847 228.593 819.204Z" fill="#F5CD49" fill-opacity="0.4"/>
<path d="M91.0634 831.04L106.815 836.375C108.4 836.912 109.612 838.207 110.043 839.824L116.361 863.538C117.206 866.71 120.826 868.221 123.675 866.591L144.177 854.865C145.676 854.007 147.512 853.984 149.033 854.804L163.489 862.602C167.1 864.55 171.39 861.56 170.813 857.498L160.735 786.614C160.227 783.045 156.224 781.169 153.157 783.064L90.04 822.05C86.4411 824.273 87.0569 829.683 91.0634 831.04Z" fill="#F5CD49" fill-opacity="0.4"/>
<path d="M136.779 986.654L153.408 986.933C155.081 986.961 156.63 987.824 157.533 989.233L170.782 1009.89C172.554 1012.65 176.462 1012.99 178.678 1010.57L194.628 993.15C195.794 991.876 197.536 991.294 199.234 991.612L215.38 994.631C219.413 995.385 222.587 991.229 220.799 987.536L189.588 923.101C188.016 919.856 183.632 919.291 181.288 922.03L133.064 978.404C130.314 981.619 132.55 986.583 136.779 986.654Z" fill="#F5CD49" fill-opacity="0.4"/>
<path d="M25.0314 1081.8L41.6601 1082.08C43.3333 1082.11 44.8816 1082.97 45.7851 1084.38L59.0336 1105.04C60.8055 1107.8 64.7136 1108.14 66.9301 1105.72L82.8797 1088.3C84.0464 1087.03 85.7882 1086.44 87.4864 1086.76L103.632 1089.78C107.665 1090.54 110.839 1086.38 109.051 1082.69L77.8395 1018.25C76.2679 1015.01 71.8836 1014.44 69.5401 1017.18L21.3157 1073.55C18.566 1076.77 20.8018 1081.73 25.0314 1081.8Z" fill="#F5CD49" fill-opacity="0.4"/>
<path d="M1364.58 157.686L1378.54 166.717C1379.95 167.626 1380.8 169.177 1380.83 170.851L1381.15 195.39C1381.19 198.672 1384.33 201.024 1387.49 200.142L1410.24 193.793C1411.9 193.329 1413.69 193.756 1414.96 194.924L1427.07 206.025C1430.09 208.798 1434.98 206.95 1435.42 202.87L1443.01 131.677C1443.39 128.092 1439.97 125.293 1436.53 126.379L1365.79 148.72C1361.75 149.993 1361.02 155.389 1364.58 157.686Z" fill="#F5CD49" fill-opacity="0.4"/>
<path d="M1556.19 136.998L1562.89 152.221C1563.56 153.753 1563.42 155.521 1562.52 156.93L1549.29 177.6C1547.52 180.364 1548.85 184.055 1551.97 185.057L1574.46 192.267C1576.11 192.794 1577.37 194.134 1577.79 195.809L1581.79 211.739C1582.79 215.718 1587.89 216.865 1590.5 213.697L1636 158.413C1638.29 155.629 1636.97 151.409 1633.5 150.425L1562.13 130.175C1558.06 129.02 1554.49 133.126 1556.19 136.998Z" fill="#F5CD49" fill-opacity="0.4"/>
<path d="M1759.9 193.001L1763.01 209.338C1763.33 210.982 1762.8 212.674 1761.6 213.845L1744.08 231.024C1741.73 233.321 1742.2 237.216 1745.02 238.893L1765.32 250.96C1766.81 251.843 1767.73 253.43 1767.77 255.157L1768.1 271.579C1768.18 275.681 1772.9 277.942 1776.15 275.439L1832.88 231.758C1835.73 229.558 1835.39 225.151 1832.23 223.414L1767.22 187.683C1763.51 185.646 1759.11 188.846 1759.9 193.001Z" fill="#F5CD49" fill-opacity="0.4"/>
</svg>
