<svg width="87" height="101" viewBox="0 0 87 101" fill="none" xmlns="http://www.w3.org/2000/svg">
<path d="M2.74299 37.9956C-2.75994 52.8585 11.3905 69.2859 18.4657 77.1085C12.1765 66.1569 15.3213 58.3343 16.1074 54.423C16.8935 50.5117 20.8242 37.9956 22.3965 29.3907C22.3965 32.5198 24.7549 39.5601 20.8242 58.3343C16.8935 77.1085 30.2578 91.1891 40.4775 99.7939C25.541 83.3665 34.1885 69.2859 35.7607 66.1569C37.333 63.0278 45.9805 48.1649 46.7666 34.8665C47.5527 21.5681 26.3271 8.26975 15.3213 2.79395C17.6797 12.181 5.10139 31.7375 2.74299 37.9956Z" stroke="#EF5C00" stroke-width="3" stroke-linecap="round"/>
<path d="M60.917 51.2939C37.333 55.2052 38.1191 74.7617 37.333 84.931C48.3389 81.802 56.2002 72.4149 62.4893 66.9391C58.5586 73.9794 52.2695 82.5843 40.4775 88.0601C62.4894 91.1891 68.7783 77.1085 71.9228 72.4149C75.0674 67.7214 80.5703 59.8988 84.501 55.9875C80.5703 53.6407 69.5644 49.7294 60.917 51.2939Z" stroke="#EF5C00" stroke-width="3" stroke-linecap="round"/>
</svg>
