<svg width="79" height="74" viewBox="0 0 79 74" fill="none" xmlns="http://www.w3.org/2000/svg">
<path d="M20.994 31.216C20.994 30.677 20.6636 29.4373 19.3423 28.7905C17.6907 27.982 8.6066 28.7905 4.47747 28.7905C2.49549 28.7905 2 30.4075 2 31.216C2 41.4569 2 62.4238 2 64.3642C2 66.3046 3.65165 66.7897 4.47747 66.7897C8.05605 66.7897 15.7087 66.7897 17.6907 66.7897C19.6726 66.7897 20.994 65.6016 20.994 65.0626M20.994 31.216H23.4714C23.7467 30.4075 24.7928 28.6288 26.7747 27.982C29.2522 27.1735 42.4654 17.4716 42.4654 8.57813C42.4654 -0.315309 49.072 2.11017 50.7236 2.91867C52.3753 3.72716 60.6335 7.7696 51.5495 24.748C56.1741 24.748 66.6896 24.748 71.3693 24.748C75.2231 25.826 80.9488 29.9224 73.0209 37.6839C77.15 41.7264 76.3242 47.3858 72.1951 49.0028C77.15 54.6623 69.7176 61.1302 67.2401 60.3217C71.3693 63.5557 69.7176 71.6407 61.4594 71.6407C53.2011 71.6407 35.8588 72.4492 32.5555 71.6407C29.2522 70.8322 24.2973 68.4067 23.4714 65.1727C22.1501 65.1727 21.5445 65.0626 20.994 65.0626M20.994 31.216V65.0626" stroke="#EF5C00" stroke-width="4" stroke-linecap="round"/>
</svg>
