<svg width="94" height="92" viewBox="0 0 94 92" fill="none" xmlns="http://www.w3.org/2000/svg">
<path d="M56.9287 81.25C56.9427 82.3534 56.9232 83.4262 56.8418 84.4258C56.7113 86.0276 56.4356 87.268 56.0166 88.1025C55.9262 88.2826 55.6554 88.5908 54.9453 88.918C54.2544 89.2363 53.3449 89.4798 52.3125 89.6523C50.2513 89.9968 48.0793 90 47 90C45.9208 90 43.7585 89.9966 41.7021 89.6523C40.6725 89.4799 39.7633 89.2361 39.0693 88.917C38.466 88.6396 38.1715 88.3725 38.0352 88.1807C37.7629 87.3066 37.6087 86.0703 37.5654 84.5312C37.5363 83.4945 37.5594 82.3859 37.6045 81.25H56.9287ZM47.7715 22.75C61.6376 22.75 72.7803 33.6605 72.7803 47C72.7803 56.1687 66.5347 64.3311 58.4365 68.4688C57.271 69.0644 56.9493 70.2957 56.8311 70.8672C56.6802 71.5964 56.6398 72.455 56.6377 73.3037C56.6349 74.4353 56.7041 75.8252 56.7764 77.25H37.8145C37.8967 75.8223 37.9676 74.4437 37.958 73.292C37.9509 72.4373 37.9023 71.5774 37.7432 70.8467C37.6176 70.2701 37.2835 69.0573 36.1318 68.4688C28.1583 64.3948 22.7627 56.2925 22.7627 47C22.7627 33.6605 33.9054 22.7501 47.7715 22.75Z" stroke="#EF5C00" stroke-width="4"/>
<path d="M46.2222 31.25C51.8812 31.25 63.0448 34.4 62.4275 47M20.7566 71.75L14.5832 77.75M10.7306 46.25H2M92 46.25H83.2694M78.6393 15.5L72.4658 21.5M14.5832 15.5L20.7566 21.5M78.6393 77.75L72.4658 71.75M47.0003 10.4853V2" stroke="#EF5C00" stroke-width="4" stroke-linecap="round"/>
</svg>
