<svg width="250" height="50" viewBox="0 0 250 50" fill="none" xmlns="http://www.w3.org/2000/svg">
<rect x="1.5" y="1.5" width="247" height="47" rx="23.5" stroke="#EF5C00" stroke-width="3"/>
<path d="M51.752 20.376V33H50.048V21.888H42.128V33H40.424V20.376H51.752ZM61.8039 33.12C60.5879 33.12 59.4919 32.848 58.5159 32.304C57.5399 31.744 56.7719 30.976 56.2119 30C55.6519 29.024 55.3719 27.92 55.3719 26.688C55.3719 25.456 55.6519 24.352 56.2119 23.376C56.7719 22.4 57.5399 21.64 58.5159 21.096C59.4919 20.552 60.5879 20.28 61.8039 20.28C63.0199 20.28 64.1159 20.552 65.0919 21.096C66.0679 21.64 66.8279 22.4 67.3719 23.376C67.9319 24.352 68.2119 25.456 68.2119 26.688C68.2119 27.92 67.9319 29.024 67.3719 30C66.8279 30.976 66.0679 31.744 65.0919 32.304C64.1159 32.848 63.0199 33.12 61.8039 33.12ZM61.8039 31.608C62.6999 31.608 63.4999 31.408 64.2039 31.008C64.9239 30.592 65.4839 30.008 65.8839 29.256C66.2839 28.504 66.4839 27.648 66.4839 26.688C66.4839 25.728 66.2839 24.872 65.8839 24.12C65.4839 23.368 64.9239 22.792 64.2039 22.392C63.4999 21.976 62.6999 21.768 61.8039 21.768C60.9079 21.768 60.0999 21.976 59.3799 22.392C58.6759 22.792 58.1159 23.368 57.6999 24.12C57.2999 24.872 57.0999 25.728 57.0999 26.688C57.0999 27.648 57.2999 28.504 57.6999 29.256C58.1159 30.008 58.6759 30.592 59.3799 31.008C60.0999 31.408 60.9079 31.608 61.8039 31.608ZM77.1337 33.12C75.8857 33.12 74.7657 32.848 73.7737 32.304C72.7977 31.76 72.0297 31 71.4697 30.024C70.9097 29.032 70.6297 27.92 70.6297 26.688C70.6297 25.456 70.9097 24.352 71.4697 23.376C72.0297 22.4 72.7977 21.64 73.7737 21.096C74.7657 20.552 75.8857 20.28 77.1337 20.28C78.2217 20.28 79.1897 20.496 80.0377 20.928C80.9017 21.344 81.5817 21.96 82.0777 22.776L80.8057 23.64C80.3897 23.016 79.8617 22.552 79.2217 22.248C78.5817 21.928 77.8857 21.768 77.1337 21.768C76.2217 21.768 75.3977 21.976 74.6617 22.392C73.9417 22.792 73.3737 23.368 72.9577 24.12C72.5577 24.872 72.3577 25.728 72.3577 26.688C72.3577 27.664 72.5577 28.528 72.9577 29.28C73.3737 30.016 73.9417 30.592 74.6617 31.008C75.3977 31.408 76.2217 31.608 77.1337 31.608C77.8857 31.608 78.5817 31.456 79.2217 31.152C79.8617 30.848 80.3897 30.384 80.8057 29.76L82.0777 30.624C81.5817 31.44 80.9017 32.064 80.0377 32.496C79.1737 32.912 78.2057 33.12 77.1337 33.12ZM99.4891 20.376V33H97.9291V23.016L92.8171 31.464H92.0491L86.9371 22.992V33H85.3771V20.376H87.1051L92.4571 29.472L97.9051 20.376H99.4891ZM109.546 33.12C108.33 33.12 107.234 32.848 106.258 32.304C105.282 31.744 104.514 30.976 103.954 30C103.394 29.024 103.114 27.92 103.114 26.688C103.114 25.456 103.394 24.352 103.954 23.376C104.514 22.4 105.282 21.64 106.258 21.096C107.234 20.552 108.33 20.28 109.546 20.28C110.762 20.28 111.858 20.552 112.834 21.096C113.81 21.64 114.57 22.4 115.114 23.376C115.674 24.352 115.954 25.456 115.954 26.688C115.954 27.92 115.674 29.024 115.114 30C114.57 30.976 113.81 31.744 112.834 32.304C111.858 32.848 110.762 33.12 109.546 33.12ZM109.546 31.608C110.442 31.608 111.242 31.408 111.946 31.008C112.666 30.592 113.226 30.008 113.626 29.256C114.026 28.504 114.226 27.648 114.226 26.688C114.226 25.728 114.026 24.872 113.626 24.12C113.226 23.368 112.666 22.792 111.946 22.392C111.242 21.976 110.442 21.768 109.546 21.768C108.65 21.768 107.842 21.976 107.122 22.392C106.418 22.792 105.858 23.368 105.442 24.12C105.042 24.872 104.842 25.728 104.842 26.688C104.842 27.648 105.042 28.504 105.442 29.256C105.858 30.008 106.418 30.592 107.122 31.008C107.842 31.408 108.65 31.608 109.546 31.608ZM135.34 20.28C136.924 20.28 138.164 20.736 139.06 21.648C139.972 22.56 140.428 23.904 140.428 25.68V33H138.724V25.848C138.724 24.536 138.404 23.536 137.764 22.848C137.14 22.16 136.252 21.816 135.1 21.816C133.788 21.816 132.756 22.224 132.004 23.04C131.252 23.84 130.876 24.952 130.876 26.376V33H129.172V25.848C129.172 24.536 128.852 23.536 128.212 22.848C127.588 22.16 126.692 21.816 125.524 21.816C124.228 21.816 123.196 22.224 122.428 23.04C121.676 23.84 121.3 24.952 121.3 26.376V33H119.596V20.376H121.228V22.68C121.676 21.912 122.3 21.32 123.1 20.904C123.9 20.488 124.82 20.28 125.86 20.28C126.916 20.28 127.828 20.504 128.596 20.952C129.38 21.4 129.964 22.064 130.348 22.944C130.812 22.112 131.476 21.464 132.34 21C133.22 20.52 134.22 20.28 135.34 20.28ZM150.693 20.28C151.925 20.28 153.021 20.552 153.981 21.096C154.941 21.64 155.685 22.4 156.213 23.376C156.757 24.352 157.029 25.464 157.029 26.712C157.029 27.96 156.765 29.072 156.237 30.048C155.709 31.008 154.973 31.76 154.029 32.304C153.101 32.848 152.037 33.12 150.837 33.12C149.781 33.12 148.837 32.912 148.005 32.496C147.189 32.064 146.525 31.448 146.013 30.648V37.656H144.309V26.736C144.309 25.472 144.573 24.352 145.101 23.376C145.645 22.4 146.397 21.64 147.357 21.096C148.333 20.552 149.445 20.28 150.693 20.28ZM150.645 31.632C151.541 31.632 152.349 31.424 153.069 31.008C153.789 30.592 154.349 30.008 154.749 29.256C155.149 28.504 155.349 27.656 155.349 26.712C155.349 25.768 155.149 24.92 154.749 24.168C154.349 23.416 153.789 22.832 153.069 22.416C152.349 21.984 151.541 21.768 150.645 21.768C149.749 21.768 148.941 21.976 148.221 22.392C147.517 22.808 146.965 23.392 146.565 24.144C146.181 24.88 145.989 25.728 145.989 26.688C145.989 27.648 146.181 28.504 146.565 29.256C146.965 30.008 147.517 30.592 148.221 31.008C148.941 31.424 149.749 31.632 150.645 31.632ZM166.057 31.608C166.841 31.608 167.561 31.472 168.217 31.2C168.889 30.912 169.457 30.496 169.921 29.952L170.881 31.056C170.321 31.728 169.625 32.24 168.793 32.592C167.961 32.944 167.041 33.12 166.033 33.12C164.737 33.12 163.585 32.848 162.577 32.304C161.569 31.744 160.785 30.976 160.225 30C159.665 29.024 159.385 27.92 159.385 26.688C159.385 25.456 159.649 24.352 160.177 23.376C160.721 22.4 161.465 21.64 162.409 21.096C163.353 20.552 164.425 20.28 165.625 20.28C166.745 20.28 167.753 20.536 168.649 21.048C169.561 21.56 170.281 22.272 170.809 23.184C171.353 24.096 171.641 25.136 171.673 26.304L161.305 28.32C161.625 29.344 162.201 30.152 163.033 30.744C163.881 31.32 164.889 31.608 166.057 31.608ZM165.625 21.744C164.745 21.744 163.953 21.952 163.249 22.368C162.561 22.768 162.017 23.336 161.617 24.072C161.233 24.792 161.041 25.624 161.041 26.568C161.041 26.808 161.049 26.984 161.065 27.096L169.969 25.368C169.777 24.312 169.289 23.448 168.505 22.776C167.721 22.088 166.761 21.744 165.625 21.744ZM190.934 20.28C192.518 20.28 193.758 20.736 194.654 21.648C195.566 22.56 196.022 23.904 196.022 25.68V33H194.318V25.848C194.318 24.536 193.998 23.536 193.358 22.848C192.734 22.16 191.846 21.816 190.694 21.816C189.382 21.816 188.35 22.224 187.598 23.04C186.846 23.84 186.47 24.952 186.47 26.376V33H184.766V25.848C184.766 24.536 184.446 23.536 183.806 22.848C183.182 22.16 182.286 21.816 181.118 21.816C179.822 21.816 178.79 22.224 178.022 23.04C177.27 23.84 176.894 24.952 176.894 26.376V33H175.19V20.376H176.822V22.68C177.27 21.912 177.894 21.32 178.694 20.904C179.494 20.488 180.414 20.28 181.454 20.28C182.51 20.28 183.422 20.504 184.19 20.952C184.974 21.4 185.558 22.064 185.942 22.944C186.406 22.112 187.07 21.464 187.934 21C188.814 20.52 189.814 20.28 190.934 20.28ZM205.567 33.264C203.839 33.264 202.503 32.832 201.559 31.968C200.615 31.104 200.143 29.896 200.143 28.344V20.376H201.847V25.632C202.263 25.136 202.831 24.744 203.551 24.456C204.287 24.168 205.103 24.024 205.999 24.024C207.567 24.024 208.783 24.424 209.647 25.224C210.527 26.024 210.967 27.096 210.967 28.44C210.967 29.896 210.487 31.064 209.527 31.944C208.567 32.824 207.247 33.264 205.567 33.264ZM205.591 31.944C206.727 31.944 207.615 31.624 208.255 30.984C208.911 30.344 209.239 29.512 209.239 28.488C209.239 27.528 208.919 26.76 208.279 26.184C207.639 25.608 206.735 25.32 205.567 25.32C204.703 25.32 203.943 25.496 203.287 25.848C202.647 26.2 202.167 26.688 201.847 27.312V28.464C201.847 29.552 202.175 30.408 202.831 31.032C203.503 31.64 204.423 31.944 205.591 31.944Z" fill="#EF5C00"/>
</svg>
