<svg width="520" height="120" viewBox="0 0 520 120" fill="none" xmlns="http://www.w3.org/2000/svg">
<rect x="1.5" y="1.5" width="517" height="117" rx="33.5" stroke="#EF5C00" stroke-width="3"/>
<path d="M156.153 45.5648C156.447 45.0976 157.065 44.9569 157.532 45.2504C157.775 45.4033 157.928 45.6443 157.979 45.9057L170.447 67.393H180.92C184.83 67.3931 188 70.5631 188 74.4731C188 78.3833 184.83 81.5539 180.92 81.5541H178.616L180.336 84.4887C182.299 87.8374 181.159 92.1323 177.793 94.0658C174.438 95.9932 170.144 94.8423 168.202 91.4955L148.938 58.2943C148.731 57.9377 148.769 57.5065 149.001 57.1967C149.009 57.0303 149.058 56.8634 149.153 56.7123L156.153 45.5648ZM130.985 82.5941C131.537 82.5858 131.992 83.0265 132 83.5785C132.002 83.6999 131.98 83.816 131.942 83.9242C131.973 84.1379 131.935 84.3633 131.818 84.5648L127.805 91.4818C125.859 94.8351 121.556 95.9892 118.194 94.058C114.833 92.1267 113.686 87.8418 115.632 84.4887L116.001 83.851C116.001 83.8435 116 83.836 116 83.8285C115.992 83.2764 116.432 82.8217 116.984 82.8129L130.985 82.5941ZM150.899 57.6908L169.937 90.4994C171.324 92.8907 174.393 93.7135 176.79 92.3363C179.195 90.9546 180.009 87.8853 178.606 85.4926L176.135 81.2768C175.978 81.0091 175.959 80.6986 176.059 80.4291C176.12 79.936 176.541 79.5541 177.051 79.5541H180.92C183.726 79.5539 186 77.2788 186 74.4731C186 71.6677 183.725 69.3931 180.92 69.393H170.273C169.951 69.393 169.665 69.2401 169.482 69.0033C169.202 68.9531 168.943 68.7853 168.789 68.5199L156.933 48.0844L150.899 57.6908ZM117.764 84.8002L117.366 85.4857C115.975 87.8835 116.795 90.9475 119.198 92.3285C121.602 93.7095 124.679 92.8836 126.07 90.4857L129.476 84.6166L117.764 84.8002ZM148.112 28.5111C150.058 25.158 154.36 24.0049 157.722 25.9359C161.083 27.8672 162.231 32.1511 160.285 35.5043L141.783 67.393H151.672C151.726 67.393 151.78 67.3982 151.832 67.4066C152.233 67.3384 152.651 67.5203 152.866 67.893L159.866 80.0541C160.142 80.5326 159.977 81.1437 159.499 81.4193C159.255 81.5598 158.977 81.5857 158.726 81.5141C158.638 81.5394 158.545 81.5541 158.449 81.5541H116.08C112.17 81.5539 109 78.3833 109 74.4731C109 70.5632 112.17 67.3931 116.08 67.393H125.551L139.887 42.6957L135.715 35.5053C133.77 32.1522 134.917 27.8691 138.278 25.9379C141.64 24.0069 145.942 25.1593 147.888 28.5121L147.999 28.7045L148.112 28.5111ZM156.718 27.6664C154.314 26.2856 151.237 27.1095 149.846 29.5072L149.119 30.7611C148.889 31.1577 148.427 31.3367 148.003 31.2289C147.577 31.3398 147.112 31.1606 146.881 30.7621L146.154 29.5082C144.763 27.1106 141.686 26.2866 139.282 27.6674C136.879 29.0483 136.058 32.1114 137.449 34.5092L141.675 41.7934C141.745 41.9144 141.787 42.0437 141.803 42.1742C142.035 42.484 142.074 42.9144 141.867 43.2709L127.505 68.0102C127.554 68.1282 127.582 68.2572 127.582 68.393C127.582 68.9453 127.134 69.393 126.582 69.393H116.08C113.275 69.3931 111 71.6677 111 74.4731C111 77.2788 113.274 79.5539 116.08 79.5541H157.271L151.423 69.393H140.569C140.271 69.393 140.004 69.2623 139.82 69.0551C139.778 69.0381 139.737 69.0187 139.696 68.9955C139.218 68.7203 139.054 68.1099 139.331 67.6322L158.551 34.5082C159.942 32.1104 159.121 29.0474 156.718 27.6664Z" fill="#EF5C00"/>
<path d="M229.74 34.48V43.72C229.74 45.5067 229.3 46.8267 228.42 47.68C227.553 48.5467 226.24 48.98 224.48 48.98C223.507 48.98 222.58 48.8333 221.7 48.54C220.833 48.26 220.127 47.8667 219.58 47.36L220.3 46.28C220.807 46.7333 221.42 47.0867 222.14 47.34C222.873 47.5933 223.64 47.72 224.44 47.72C225.773 47.72 226.753 47.4067 227.38 46.78C228.007 46.1667 228.32 45.2067 228.32 43.9V42.56C227.88 43.2267 227.3 43.7333 226.58 44.08C225.873 44.4267 225.087 44.6 224.22 44.6C223.233 44.6 222.333 44.3867 221.52 43.96C220.72 43.52 220.087 42.9133 219.62 42.14C219.167 41.3533 218.94 40.4667 218.94 39.48C218.94 38.4933 219.167 37.6133 219.62 36.84C220.087 36.0667 220.72 35.4667 221.52 35.04C222.32 34.6133 223.22 34.4 224.22 34.4C225.113 34.4 225.92 34.58 226.64 34.94C227.36 35.3 227.94 35.82 228.38 36.5V34.48H229.74ZM224.36 43.34C225.12 43.34 225.807 43.18 226.42 42.86C227.033 42.5267 227.507 42.0667 227.84 41.48C228.187 40.8933 228.36 40.2267 228.36 39.48C228.36 38.7333 228.187 38.0733 227.84 37.5C227.507 36.9133 227.033 36.46 226.42 36.14C225.82 35.8067 225.133 35.64 224.36 35.64C223.6 35.64 222.913 35.8 222.3 36.12C221.7 36.44 221.227 36.8933 220.88 37.48C220.547 38.0667 220.38 38.7333 220.38 39.48C220.38 40.2267 220.547 40.8933 220.88 41.48C221.227 42.0667 221.7 42.5267 222.3 42.86C222.913 43.18 223.6 43.34 224.36 43.34ZM238.13 45.1C237.116 45.1 236.203 44.8733 235.39 44.42C234.576 43.9533 233.936 43.3133 233.47 42.5C233.003 41.6867 232.77 40.7667 232.77 39.74C232.77 38.7133 233.003 37.7933 233.47 36.98C233.936 36.1667 234.576 35.5333 235.39 35.08C236.203 34.6267 237.116 34.4 238.13 34.4C239.143 34.4 240.056 34.6267 240.87 35.08C241.683 35.5333 242.316 36.1667 242.77 36.98C243.236 37.7933 243.47 38.7133 243.47 39.74C243.47 40.7667 243.236 41.6867 242.77 42.5C242.316 43.3133 241.683 43.9533 240.87 44.42C240.056 44.8733 239.143 45.1 238.13 45.1ZM238.13 43.84C238.876 43.84 239.543 43.6733 240.13 43.34C240.73 42.9933 241.196 42.5067 241.53 41.88C241.863 41.2533 242.03 40.54 242.03 39.74C242.03 38.94 241.863 38.2267 241.53 37.6C241.196 36.9733 240.73 36.4933 240.13 36.16C239.543 35.8133 238.876 35.64 238.13 35.64C237.383 35.64 236.71 35.8133 236.11 36.16C235.523 36.4933 235.056 36.9733 234.71 37.6C234.376 38.2267 234.21 38.94 234.21 39.74C234.21 40.54 234.376 41.2533 234.71 41.88C235.056 42.5067 235.523 42.9933 236.11 43.34C236.71 43.6733 237.383 43.84 238.13 43.84ZM250.904 45.1C249.864 45.1 248.931 44.8733 248.104 44.42C247.291 43.9667 246.651 43.3333 246.184 42.52C245.718 41.6933 245.484 40.7667 245.484 39.74C245.484 38.7133 245.718 37.7933 246.184 36.98C246.651 36.1667 247.291 35.5333 248.104 35.08C248.931 34.6267 249.864 34.4 250.904 34.4C251.811 34.4 252.618 34.58 253.324 34.94C254.044 35.2867 254.611 35.8 255.024 36.48L253.964 37.2C253.618 36.68 253.178 36.2933 252.644 36.04C252.111 35.7733 251.531 35.64 250.904 35.64C250.144 35.64 249.458 35.8133 248.844 36.16C248.244 36.4933 247.771 36.9733 247.424 37.6C247.091 38.2267 246.924 38.94 246.924 39.74C246.924 40.5533 247.091 41.2733 247.424 41.9C247.771 42.5133 248.244 42.9933 248.844 43.34C249.458 43.6733 250.144 43.84 250.904 43.84C251.531 43.84 252.111 43.7133 252.644 43.46C253.178 43.2067 253.618 42.82 253.964 42.3L255.024 43.02C254.611 43.7 254.044 44.22 253.324 44.58C252.604 44.9267 251.798 45.1 250.904 45.1ZM270.894 34.4C272.214 34.4 273.247 34.78 273.994 35.54C274.754 36.3 275.134 37.42 275.134 38.9V45H273.714V39.04C273.714 37.9467 273.447 37.1133 272.914 36.54C272.394 35.9667 271.654 35.68 270.694 35.68C269.601 35.68 268.741 36.02 268.114 36.7C267.487 37.3667 267.174 38.2933 267.174 39.48V45H265.754V39.04C265.754 37.9467 265.487 37.1133 264.954 36.54C264.434 35.9667 263.687 35.68 262.714 35.68C261.634 35.68 260.774 36.02 260.134 36.7C259.507 37.3667 259.194 38.2933 259.194 39.48V45H257.774V34.48H259.134V36.4C259.507 35.76 260.027 35.2667 260.694 34.92C261.361 34.5733 262.127 34.4 262.994 34.4C263.874 34.4 264.634 34.5867 265.274 34.96C265.927 35.3333 266.414 35.8867 266.734 36.62C267.121 35.9267 267.674 35.3867 268.394 35C269.127 34.6 269.961 34.4 270.894 34.4ZM288.288 34.48V43.72C288.288 45.5067 287.881 46.8267 287.068 47.68C286.255 48.5467 285.028 48.98 283.388 48.98C282.468 48.98 281.595 48.8333 280.768 48.54C279.955 48.26 279.295 47.8667 278.788 47.36L279.508 46.28C279.961 46.7333 280.521 47.0867 281.188 47.34C281.855 47.5933 282.568 47.72 283.328 47.72C284.541 47.72 285.435 47.4067 286.008 46.78C286.581 46.1667 286.868 45.2067 286.868 43.9V42.68C286.495 43.2933 285.981 43.7667 285.328 44.1C284.688 44.4333 283.961 44.6 283.148 44.6C281.775 44.6 280.688 44.22 279.888 43.46C279.101 42.6867 278.708 41.56 278.708 40.08V34.48H280.128V39.94C280.128 41.0467 280.401 41.8867 280.948 42.46C281.495 43.0333 282.275 43.32 283.288 43.32C284.395 43.32 285.268 42.9867 285.908 42.32C286.548 41.64 286.868 40.7 286.868 39.5V34.48H288.288ZM301.745 34.48V45H300.325V35.74H293.725V45H292.305V34.48H301.745ZM305.782 34.48H307.202V39.14H313.822V34.48H315.242V45H313.822V40.36H307.202V45H305.782V34.48ZM323.618 45.1C322.604 45.1 321.691 44.8733 320.878 44.42C320.064 43.9533 319.424 43.3133 318.958 42.5C318.491 41.6867 318.258 40.7667 318.258 39.74C318.258 38.7133 318.491 37.7933 318.958 36.98C319.424 36.1667 320.064 35.5333 320.878 35.08C321.691 34.6267 322.604 34.4 323.618 34.4C324.631 34.4 325.544 34.6267 326.358 35.08C327.171 35.5333 327.804 36.1667 328.258 36.98C328.724 37.7933 328.958 38.7133 328.958 39.74C328.958 40.7667 328.724 41.6867 328.258 42.5C327.804 43.3133 327.171 43.9533 326.358 44.42C325.544 44.8733 324.631 45.1 323.618 45.1ZM323.618 43.84C324.364 43.84 325.031 43.6733 325.618 43.34C326.218 42.9933 326.684 42.5067 327.018 41.88C327.351 41.2533 327.518 40.54 327.518 39.74C327.518 38.94 327.351 38.2267 327.018 37.6C326.684 36.9733 326.218 36.4933 325.618 36.16C325.031 35.8133 324.364 35.64 323.618 35.64C322.871 35.64 321.98 35.8133 321.38 36.16C320.793 36.4933 320.327 36.9733 319.98 37.6C319.647 38.2267 319.48 38.94 319.48 39.74C319.48 40.54 319.647 41.2533 319.98 41.88C320.327 42.5067 320.793 42.9933 321.38 43.34C321.98 43.6733 322.871 43.84 323.618 43.84ZM343.927 39.56C345.354 39.8933 346.067 40.7533 346.067 42.14C346.067 43.06 345.727 43.7667 345.047 44.26C344.367 44.7533 343.354 45 342.007 45H337.227V34.48H341.867C343.067 34.48 344.007 34.7133 344.687 35.18C345.367 35.6467 345.707 36.3133 345.707 37.18C345.707 37.7533 345.547 38.2467 345.227 38.66C344.92 39.06 344.487 39.36 343.927 39.56ZM338.607 39.16H341.767C342.58 39.16 343.2 39.0067 343.627 38.7C344.067 38.3933 344.287 37.9467 344.287 37.36C344.287 36.7733 344.067 36.3333 343.627 36.04C343.2 35.7467 342.58 35.6 341.767 35.6H338.607V39.16ZM341.947 43.88C342.854 43.88 343.534 43.7333 343.987 43.44C344.44 43.1467 344.667 42.6867 344.667 42.06C344.667 41.4333 344.46 40.9733 344.047 40.68C343.634 40.3733 342.98 40.22 342.087 40.22H338.607V43.88H341.947Z" fill="#EF5C00"/>
<path d="M231.6 64.996C234.683 64.996 237.108 65.9027 238.876 67.716C240.667 69.5067 241.562 72.102 241.562 75.502V89H239.08V81.996H224.12V89H221.672V75.502C221.672 72.102 222.556 69.5067 224.324 67.716C226.115 65.9027 228.54 64.996 231.6 64.996ZM239.08 79.82V75.264C239.08 72.612 238.423 70.6173 237.108 69.28C235.793 67.92 233.957 67.24 231.6 67.24C229.243 67.24 227.407 67.92 226.092 69.28C224.777 70.6173 224.12 72.612 224.12 75.264V79.82H239.08ZM257.807 70.98C259.484 70.98 261.003 71.3653 262.363 72.136C263.723 72.884 264.788 73.9493 265.559 75.332C266.329 76.7147 266.715 78.29 266.715 80.058C266.715 81.8487 266.329 83.4353 265.559 84.818C264.788 86.2007 263.723 87.2773 262.363 88.048C261.025 88.796 259.507 89.17 257.807 89.17C256.356 89.17 255.041 88.8753 253.863 88.286C252.707 87.674 251.755 86.79 251.007 85.634V95.596H248.593V71.116H250.905V74.652C251.63 73.4733 252.582 72.5667 253.761 71.932C254.962 71.2973 256.311 70.98 257.807 70.98ZM257.637 87.028C258.883 87.028 260.017 86.7447 261.037 86.178C262.057 85.5887 262.85 84.7613 263.417 83.696C264.006 82.6307 264.301 81.418 264.301 80.058C264.301 78.698 264.006 77.4967 263.417 76.454C262.85 75.3887 262.057 74.5613 261.037 73.972C260.017 73.3827 258.883 73.088 257.637 73.088C256.367 73.088 255.223 73.3827 254.203 73.972C253.205 74.5613 252.412 75.3887 251.823 76.454C251.256 77.4967 250.973 78.698 250.973 80.058C250.973 81.418 251.256 82.6307 251.823 83.696C252.412 84.7613 253.205 85.5887 254.203 86.178C255.223 86.7447 256.367 87.028 257.637 87.028ZM280.85 70.98C282.527 70.98 284.046 71.3653 285.406 72.136C286.766 72.884 287.831 73.9493 288.602 75.332C289.372 76.7147 289.758 78.29 289.758 80.058C289.758 81.8487 289.372 83.4353 288.602 84.818C287.831 86.2007 286.766 87.2773 285.406 88.048C284.068 88.796 282.55 89.17 280.85 89.17C279.399 89.17 278.084 88.8753 276.906 88.286C275.75 87.674 274.798 86.79 274.05 85.634V95.596H271.636V71.116H273.948V74.652C274.673 73.4733 275.625 72.5667 276.804 71.932C278.005 71.2973 279.354 70.98 280.85 70.98ZM280.68 87.028C281.926 87.028 283.06 86.7447 284.08 86.178C285.1 85.5887 285.893 84.7613 286.46 83.696C287.049 82.6307 287.344 81.418 287.344 80.058C287.344 78.698 287.049 77.4967 286.46 76.454C285.893 75.3887 285.1 74.5613 284.08 73.972C283.06 73.3827 281.926 73.088 280.68 73.088C279.41 73.088 278.266 73.3827 277.246 73.972C276.248 74.5613 275.455 75.3887 274.866 76.454C274.299 77.4967 274.016 78.698 274.016 80.058C274.016 81.418 274.299 82.6307 274.866 83.696C275.455 84.7613 276.248 85.5887 277.246 86.178C278.266 86.7447 279.41 87.028 280.68 87.028ZM310.649 89.204C308.881 89.204 307.181 88.9207 305.549 88.354C303.94 87.7873 302.693 87.0393 301.809 86.11L302.795 84.172C303.656 85.0333 304.801 85.736 306.229 86.28C307.657 86.8013 309.13 87.062 310.649 87.062C312.78 87.062 314.378 86.6767 315.443 85.906C316.508 85.1127 317.041 84.0927 317.041 82.846C317.041 81.894 316.746 81.1347 316.157 80.568C315.59 80.0013 314.888 79.5707 314.049 79.276C313.21 78.9587 312.043 78.6187 310.547 78.256C308.756 77.8027 307.328 77.372 306.263 76.964C305.198 76.5333 304.28 75.8873 303.509 75.026C302.761 74.1647 302.387 72.9973 302.387 71.524C302.387 70.3227 302.704 69.2347 303.339 68.26C303.974 67.2627 304.948 66.4693 306.263 65.88C307.578 65.2907 309.21 64.996 311.159 64.996C312.519 64.996 313.845 65.1887 315.137 65.574C316.452 65.9367 317.585 66.4467 318.537 67.104L317.687 69.11C316.69 68.4527 315.624 67.9653 314.491 67.648C313.358 67.308 312.247 67.138 311.159 67.138C309.074 67.138 307.498 67.546 306.433 68.362C305.39 69.1553 304.869 70.1867 304.869 71.456C304.869 72.408 305.152 73.1787 305.719 73.768C306.308 74.3347 307.034 74.7767 307.895 75.094C308.779 75.3887 309.958 75.7173 311.431 76.08C313.176 76.5107 314.582 76.9413 315.647 77.372C316.735 77.78 317.653 78.4147 318.401 79.276C319.149 80.1147 319.523 81.2593 319.523 82.71C319.523 83.9113 319.194 85.0107 318.537 86.008C317.902 86.9827 316.916 87.7647 315.579 88.354C314.242 88.9207 312.598 89.204 310.649 89.204ZM333.301 87.912C332.848 88.32 332.292 88.6373 331.635 88.864C330.978 89.068 330.286 89.17 329.561 89.17C327.884 89.17 326.592 88.7167 325.685 87.81C324.778 86.9033 324.325 85.6227 324.325 83.968V67.206H326.739V71.116H332.145V73.156H326.739V83.832C326.739 84.8973 327 85.7133 327.521 86.28C328.042 86.824 328.802 87.096 329.799 87.096C330.887 87.096 331.771 86.79 332.451 86.178L333.301 87.912ZM344.356 89.17C342.633 89.17 341.08 88.7847 339.698 88.014C338.315 87.2207 337.227 86.1327 336.434 84.75C335.64 83.3673 335.244 81.8033 335.244 80.058C335.244 78.3127 335.64 76.7487 336.434 75.366C337.227 73.9833 338.315 72.9067 339.698 72.136C341.08 71.3653 342.633 70.98 344.356 70.98C346.078 70.98 347.631 71.3653 349.014 72.136C350.396 72.9067 351.473 73.9833 352.244 75.366C353.037 76.7487 353.434 78.3127 353.434 80.058C353.434 81.8033 353.037 83.3673 352.244 84.75C351.473 86.1327 350.396 87.2207 349.014 88.014C347.631 88.7847 346.078 89.17 344.356 89.17ZM344.356 87.028C345.625 87.028 346.758 86.7447 347.756 86.178C348.776 85.5887 349.569 84.7613 350.136 83.696C350.702 82.6307 350.986 81.418 350.986 80.058C350.986 78.698 350.702 77.4853 350.136 76.42C349.569 75.3547 348.776 74.5387 347.756 73.972C346.758 73.3827 345.625 73.088 344.356 73.088C343.086 73.088 341.942 73.3827 340.922 73.972C339.924 74.5387 339.131 75.3547 338.542 76.42C337.975 77.4853 337.692 78.698 337.692 80.058C337.692 81.418 337.975 82.6307 338.542 83.696C339.131 84.7613 339.924 85.5887 340.922 86.178C341.942 86.7447 343.086 87.028 344.356 87.028ZM360.674 74.618C361.241 73.4167 362.079 72.51 363.19 71.898C364.323 71.286 365.717 70.98 367.372 70.98V73.326L366.794 73.292C364.913 73.292 363.439 73.87 362.374 75.026C361.309 76.182 360.776 77.8027 360.776 79.888V89H358.362V71.116H360.674V74.618ZM379.227 87.028C380.338 87.028 381.358 86.8353 382.287 86.45C383.239 86.042 384.044 85.4527 384.701 84.682L386.061 86.246C385.268 87.198 384.282 87.9233 383.103 88.422C381.924 88.9207 380.621 89.17 379.193 89.17C377.357 89.17 375.725 88.7847 374.297 88.014C372.869 87.2207 371.758 86.1327 370.965 84.75C370.172 83.3673 369.775 81.8033 369.775 80.058C369.775 78.3127 370.149 76.7487 370.897 75.366C371.668 73.9833 372.722 72.9067 374.059 72.136C375.396 71.3653 376.915 70.98 378.615 70.98C380.202 70.98 381.63 71.3427 382.899 72.068C384.191 72.7933 385.211 73.802 385.959 75.094C386.73 76.386 387.138 77.8593 387.183 79.514L372.495 82.37C372.948 83.8207 373.764 84.9653 374.943 85.804C376.144 86.62 377.572 87.028 379.227 87.028ZM378.615 73.054C377.368 73.054 376.246 73.3487 375.249 73.938C374.274 74.5047 373.504 75.3093 372.937 76.352C372.393 77.372 372.121 78.5507 372.121 79.888C372.121 80.228 372.132 80.4773 372.155 80.636L384.769 78.188C384.497 76.692 383.806 75.468 382.695 74.516C381.584 73.5413 380.224 73.054 378.615 73.054Z" fill="#EF5C00"/>
</svg>
