<svg width="250" height="50" viewBox="0 0 250 50" fill="none" xmlns="http://www.w3.org/2000/svg">
<rect x="1.5" y="1.5" width="247" height="47" rx="23.5" fill="#EF5C00"/>
<rect x="1.5" y="1.5" width="247" height="47" rx="23.5" stroke="#AC4200" stroke-width="3"/>
<path d="M51.516 20.28V33H49.212V22.296H42.036V33H39.732V20.28H51.516ZM61.4222 33.144C60.1582 33.144 59.0222 32.864 58.0142 32.304C57.0062 31.744 56.2142 30.976 55.6382 30C55.0782 29.008 54.7982 27.888 54.7982 26.64C54.7982 25.392 55.0782 24.28 55.6382 23.304C56.2142 22.312 57.0062 21.544 58.0142 21C59.0222 20.44 60.1582 20.16 61.4222 20.16C62.6862 20.16 63.8142 20.44 64.8062 21C65.8142 21.544 66.5982 22.312 67.1582 23.304C67.7342 24.28 68.0222 25.392 68.0222 26.64C68.0222 27.888 67.7342 29.008 67.1582 30C66.5982 30.976 65.8142 31.744 64.8062 32.304C63.8142 32.864 62.6862 33.144 61.4222 33.144ZM61.4222 31.128C62.2382 31.128 62.9662 30.944 63.6062 30.576C64.2622 30.192 64.7742 29.664 65.1422 28.992C65.5102 28.304 65.6942 27.52 65.6942 26.64C65.6942 25.76 65.5102 24.984 65.1422 24.312C64.7742 23.624 64.2622 23.096 63.6062 22.728C62.9662 22.36 62.2382 22.176 61.4222 22.176C60.6062 22.176 59.8702 22.36 59.2142 22.728C58.5742 23.096 58.0622 23.624 57.6782 24.312C57.3102 24.984 57.1262 25.76 57.1262 26.64C57.1262 27.52 57.3102 28.304 57.6782 28.992C58.0622 29.664 58.5742 30.192 59.2142 30.576C59.8702 30.944 60.6062 31.128 61.4222 31.128ZM76.8932 33.144C75.5972 33.144 74.4372 32.864 73.4132 32.304C72.4052 31.744 71.6132 30.976 71.0372 30C70.4612 29.008 70.1732 27.888 70.1732 26.64C70.1732 25.392 70.4612 24.28 71.0372 23.304C71.6132 22.312 72.4052 21.544 73.4132 21C74.4372 20.44 75.5972 20.16 76.8932 20.16C78.0452 20.16 79.0692 20.392 79.9652 20.856C80.8772 21.32 81.5812 21.992 82.0772 22.872L80.3252 24C79.9252 23.392 79.4292 22.936 78.8372 22.632C78.2452 22.328 77.5892 22.176 76.8692 22.176C76.0372 22.176 75.2852 22.36 74.6132 22.728C73.9572 23.096 73.4372 23.624 73.0532 24.312C72.6852 24.984 72.5012 25.76 72.5012 26.64C72.5012 27.536 72.6852 28.328 73.0532 29.016C73.4372 29.688 73.9572 30.208 74.6132 30.576C75.2852 30.944 76.0372 31.128 76.8692 31.128C77.5892 31.128 78.2452 30.976 78.8372 30.672C79.4292 30.368 79.9252 29.912 80.3252 29.304L82.0772 30.408C81.5812 31.288 80.8772 31.968 79.9652 32.448C79.0692 32.912 78.0452 33.144 76.8932 33.144ZM99.7241 20.28V33H97.6361V23.712L92.8841 31.56H91.8761L87.1721 23.688V33H85.0601V20.28H87.4361L92.4281 28.872L97.5641 20.28H99.7241ZM109.657 33.144C108.393 33.144 107.257 32.864 106.249 32.304C105.241 31.744 104.449 30.976 103.873 30C103.313 29.008 103.033 27.888 103.033 26.64C103.033 25.392 103.313 24.28 103.873 23.304C104.449 22.312 105.241 21.544 106.249 21C107.257 20.44 108.393 20.16 109.657 20.16C110.921 20.16 112.049 20.44 113.041 21C114.049 21.544 114.833 22.312 115.393 23.304C115.969 24.28 116.257 25.392 116.257 26.64C116.257 27.888 115.969 29.008 115.393 30C114.833 30.976 114.049 31.744 113.041 32.304C112.049 32.864 110.921 33.144 109.657 33.144ZM109.657 31.128C110.473 31.128 111.201 30.944 111.841 30.576C112.497 30.192 113.009 29.664 113.377 28.992C113.745 28.304 113.929 27.52 113.929 26.64C113.929 25.76 113.745 24.984 113.377 24.312C113.009 23.624 112.497 23.096 111.841 22.728C111.201 22.36 110.473 22.176 109.657 22.176C108.841 22.176 108.105 22.36 107.449 22.728C106.809 23.096 106.297 23.624 105.913 24.312C105.545 24.984 105.361 25.76 105.361 26.64C105.361 27.52 105.545 28.304 105.913 28.992C106.297 29.664 106.809 30.192 107.449 30.576C108.105 30.944 108.841 31.128 109.657 31.128ZM135.496 20.16C137.096 20.16 138.36 20.624 139.288 21.552C140.232 22.48 140.704 23.856 140.704 25.68V33H138.4V25.944C138.4 24.712 138.112 23.784 137.536 23.16C136.976 22.536 136.168 22.224 135.112 22.224C133.944 22.224 133.016 22.592 132.328 23.328C131.64 24.048 131.296 25.088 131.296 26.448V33H128.992V25.944C128.992 24.712 128.704 23.784 128.128 23.16C127.568 22.536 126.76 22.224 125.704 22.224C124.536 22.224 123.608 22.592 122.92 23.328C122.232 24.048 121.888 25.088 121.888 26.448V33H119.584V20.28H121.792V22.176C122.256 21.52 122.864 21.024 123.616 20.688C124.368 20.336 125.224 20.16 126.184 20.16C127.176 20.16 128.056 20.36 128.824 20.76C129.592 21.16 130.184 21.744 130.6 22.512C131.08 21.776 131.744 21.2 132.592 20.784C133.456 20.368 134.424 20.16 135.496 20.16ZM150.85 20.16C152.13 20.16 153.258 20.432 154.234 20.976C155.226 21.52 155.986 22.288 156.514 23.28C157.058 24.256 157.33 25.384 157.33 26.664C157.33 27.928 157.066 29.056 156.538 30.048C156.01 31.024 155.274 31.784 154.33 32.328C153.386 32.872 152.306 33.144 151.09 33.144C150.13 33.144 149.266 32.976 148.498 32.64C147.73 32.288 147.09 31.784 146.578 31.128V37.656H144.25V26.688C144.25 25.408 144.522 24.272 145.066 23.28C145.626 22.288 146.402 21.52 147.394 20.976C148.402 20.432 149.554 20.16 150.85 20.16ZM150.778 31.128C151.594 31.128 152.33 30.944 152.986 30.576C153.642 30.192 154.146 29.664 154.498 28.992C154.866 28.304 155.05 27.528 155.05 26.664C155.05 25.8 154.866 25.032 154.498 24.36C154.146 23.672 153.642 23.136 152.986 22.752C152.346 22.368 151.61 22.176 150.778 22.176C149.514 22.176 148.49 22.592 147.706 23.424C146.922 24.24 146.53 25.312 146.53 26.64C146.53 27.52 146.706 28.304 147.058 28.992C147.426 29.664 147.93 30.192 148.57 30.576C149.21 30.944 149.946 31.128 150.778 31.128ZM166.381 31.128C167.901 31.128 169.125 30.616 170.053 29.592L171.301 31.08C170.741 31.752 170.029 32.264 169.165 32.616C168.317 32.968 167.365 33.144 166.309 33.144C164.965 33.144 163.773 32.872 162.733 32.328C161.693 31.768 160.885 30.992 160.309 30C159.749 29.008 159.469 27.888 159.469 26.64C159.469 25.408 159.741 24.296 160.285 23.304C160.845 22.312 161.605 21.544 162.565 21C163.541 20.44 164.637 20.16 165.853 20.16C167.005 20.16 168.053 20.424 168.997 20.952C169.941 21.464 170.693 22.192 171.253 23.136C171.813 24.08 172.101 25.168 172.117 26.4L162.013 28.368C162.333 29.248 162.869 29.928 163.621 30.408C164.389 30.888 165.309 31.128 166.381 31.128ZM165.853 22.104C165.053 22.104 164.333 22.288 163.693 22.656C163.069 23.024 162.581 23.544 162.229 24.216C161.877 24.872 161.701 25.64 161.701 26.52V26.76L169.837 25.224C169.629 24.296 169.165 23.544 168.445 22.968C167.725 22.392 166.861 22.104 165.853 22.104ZM191.3 20.16C192.9 20.16 194.164 20.624 195.092 21.552C196.036 22.48 196.508 23.856 196.508 25.68V33H194.204V25.944C194.204 24.712 193.916 23.784 193.34 23.16C192.78 22.536 191.972 22.224 190.916 22.224C189.748 22.224 188.82 22.592 188.132 23.328C187.444 24.048 187.1 25.088 187.1 26.448V33H184.796V25.944C184.796 24.712 184.508 23.784 183.932 23.16C183.372 22.536 182.564 22.224 181.508 22.224C180.34 22.224 179.412 22.592 178.724 23.328C178.036 24.048 177.692 25.088 177.692 26.448V33H175.388V20.28H177.596V22.176C178.06 21.52 178.668 21.024 179.42 20.688C180.172 20.336 181.028 20.16 181.988 20.16C182.98 20.16 183.86 20.36 184.628 20.76C185.396 21.16 185.988 21.744 186.404 22.512C186.884 21.776 187.548 21.2 188.396 20.784C189.26 20.368 190.228 20.16 191.3 20.16ZM205.911 33.288C204.103 33.288 202.711 32.848 201.735 31.968C200.775 31.088 200.295 29.84 200.295 28.224V20.28H202.599V25.2C203.015 24.784 203.575 24.464 204.279 24.24C204.999 24 205.775 23.88 206.607 23.88C208.191 23.88 209.423 24.28 210.303 25.08C211.183 25.88 211.623 26.984 211.623 28.392C211.623 29.912 211.119 31.112 210.111 31.992C209.103 32.856 207.703 33.288 205.911 33.288ZM205.935 31.536C206.975 31.536 207.791 31.256 208.383 30.696C208.975 30.136 209.271 29.384 209.271 28.44C209.271 27.544 208.983 26.84 208.407 26.328C207.831 25.816 207.023 25.56 205.983 25.56C205.215 25.56 204.535 25.712 203.943 26.016C203.351 26.32 202.903 26.744 202.599 27.288V28.416C202.599 29.392 202.895 30.16 203.487 30.72C204.079 31.264 204.895 31.536 205.935 31.536Z" fill="#F5F5F5"/>
</svg>
