<svg width="520" height="120" viewBox="0 0 520 120" fill="none" xmlns="http://www.w3.org/2000/svg">
<rect width="520" height="120" rx="35" fill="#CF4F00"/>
<path d="M119.496 35.7432C119.496 28.7436 127.135 24.4232 133.134 28.0303L173.021 52.0146C178.836 55.5119 178.836 63.9429 173.021 67.4404L133.134 91.4258C127.135 95.0328 119.496 90.7124 119.496 83.7129V35.7432Z" stroke="#F5F5F5" stroke-width="2" stroke-linecap="round"/>
<path d="M124.773 90.9368L166.768 48.2773" stroke="#F5F5F5" stroke-width="2" stroke-linecap="round"/>
<path d="M124.773 28.946L165.718 71.6055" stroke="#F5F5F5" stroke-width="2" stroke-linecap="round"/>
<path d="M220.24 34.48V43.72C220.24 45.5067 219.8 46.8267 218.92 47.68C218.053 48.5467 216.74 48.98 214.98 48.98C214.007 48.98 213.08 48.8333 212.2 48.54C211.333 48.26 210.627 47.8667 210.08 47.36L210.8 46.28C211.307 46.7333 211.92 47.0867 212.64 47.34C213.373 47.5933 214.14 47.72 214.94 47.72C216.273 47.72 217.253 47.4067 217.88 46.78C218.507 46.1667 218.82 45.2067 218.82 43.9V42.56C218.38 43.2267 217.8 43.7333 217.08 44.08C216.373 44.4267 215.587 44.6 214.72 44.6C213.733 44.6 212.833 44.3867 212.02 43.96C211.22 43.52 210.587 42.9133 210.12 42.14C209.667 41.3533 209.44 40.4667 209.44 39.48C209.44 38.4933 209.667 37.6133 210.12 36.84C210.587 36.0667 211.22 35.4667 212.02 35.04C212.82 34.6133 213.72 34.4 214.72 34.4C215.613 34.4 216.42 34.58 217.14 34.94C217.86 35.3 218.44 35.82 218.88 36.5V34.48H220.24ZM214.86 43.34C215.62 43.34 216.307 43.18 216.92 42.86C217.533 42.5267 218.007 42.0667 218.34 41.48C218.687 40.8933 218.86 40.2267 218.86 39.48C218.86 38.7333 218.687 38.0733 218.34 37.5C218.007 36.9133 217.533 36.46 216.92 36.14C216.32 35.8067 215.633 35.64 214.86 35.64C214.1 35.64 213.413 35.8 212.8 36.12C212.2 36.44 211.727 36.8933 211.38 37.48C211.047 38.0667 210.88 38.7333 210.88 39.48C210.88 40.2267 211.047 40.8933 211.38 41.48C211.727 42.0667 212.2 42.5267 212.8 42.86C213.413 43.18 214.1 43.34 214.86 43.34ZM228.63 45.1C227.616 45.1 226.703 44.8733 225.89 44.42C225.076 43.9533 224.436 43.3133 223.97 42.5C223.503 41.6867 223.27 40.7667 223.27 39.74C223.27 38.7133 223.503 37.7933 223.97 36.98C224.436 36.1667 225.076 35.5333 225.89 35.08C226.703 34.6267 227.616 34.4 228.63 34.4C229.643 34.4 230.556 34.6267 231.37 35.08C232.183 35.5333 232.816 36.1667 233.27 36.98C233.736 37.7933 233.97 38.7133 233.97 39.74C233.97 40.7667 233.736 41.6867 233.27 42.5C232.816 43.3133 232.183 43.9533 231.37 44.42C230.556 44.8733 229.643 45.1 228.63 45.1ZM228.63 43.84C229.376 43.84 230.043 43.6733 230.63 43.34C231.23 42.9933 231.696 42.5067 232.03 41.88C232.363 41.2533 232.53 40.54 232.53 39.74C232.53 38.94 232.363 38.2267 232.03 37.6C231.696 36.9733 231.23 36.4933 230.63 36.16C230.043 35.8133 229.376 35.64 228.63 35.64C227.883 35.64 227.21 35.8133 226.61 36.16C226.023 36.4933 225.556 36.9733 225.21 37.6C224.876 38.2267 224.71 38.94 224.71 39.74C224.71 40.54 224.876 41.2533 225.21 41.88C225.556 42.5067 226.023 42.9933 226.61 43.34C227.21 43.6733 227.883 43.84 228.63 43.84ZM241.404 45.1C240.364 45.1 239.431 44.8733 238.604 44.42C237.791 43.9667 237.151 43.3333 236.684 42.52C236.218 41.6933 235.984 40.7667 235.984 39.74C235.984 38.7133 236.218 37.7933 236.684 36.98C237.151 36.1667 237.791 35.5333 238.604 35.08C239.431 34.6267 240.364 34.4 241.404 34.4C242.311 34.4 243.118 34.58 243.824 34.94C244.544 35.2867 245.111 35.8 245.524 36.48L244.464 37.2C244.118 36.68 243.678 36.2933 243.144 36.04C242.611 35.7733 242.031 35.64 241.404 35.64C240.644 35.64 239.958 35.8133 239.344 36.16C238.744 36.4933 238.271 36.9733 237.924 37.6C237.591 38.2267 237.424 38.94 237.424 39.74C237.424 40.5533 237.591 41.2733 237.924 41.9C238.271 42.5133 238.744 42.9933 239.344 43.34C239.958 43.6733 240.644 43.84 241.404 43.84C242.031 43.84 242.611 43.7133 243.144 43.46C243.678 43.2067 244.118 42.82 244.464 42.3L245.524 43.02C245.111 43.7 244.544 44.22 243.824 44.58C243.104 44.9267 242.298 45.1 241.404 45.1ZM261.394 34.4C262.714 34.4 263.747 34.78 264.494 35.54C265.254 36.3 265.634 37.42 265.634 38.9V45H264.214V39.04C264.214 37.9467 263.947 37.1133 263.414 36.54C262.894 35.9667 262.154 35.68 261.194 35.68C260.101 35.68 259.241 36.02 258.614 36.7C257.987 37.3667 257.674 38.2933 257.674 39.48V45H256.254V39.04C256.254 37.9467 255.987 37.1133 255.454 36.54C254.934 35.9667 254.187 35.68 253.214 35.68C252.134 35.68 251.274 36.02 250.634 36.7C250.007 37.3667 249.694 38.2933 249.694 39.48V45H248.274V34.48H249.634V36.4C250.007 35.76 250.527 35.2667 251.194 34.92C251.861 34.5733 252.627 34.4 253.494 34.4C254.374 34.4 255.134 34.5867 255.774 34.96C256.427 35.3333 256.914 35.8867 257.234 36.62C257.621 35.9267 258.174 35.3867 258.894 35C259.627 34.6 260.461 34.4 261.394 34.4ZM278.788 34.48V43.72C278.788 45.5067 278.381 46.8267 277.568 47.68C276.755 48.5467 275.528 48.98 273.888 48.98C272.968 48.98 272.095 48.8333 271.268 48.54C270.455 48.26 269.795 47.8667 269.288 47.36L270.008 46.28C270.461 46.7333 271.021 47.0867 271.688 47.34C272.355 47.5933 273.068 47.72 273.828 47.72C275.041 47.72 275.935 47.4067 276.508 46.78C277.081 46.1667 277.368 45.2067 277.368 43.9V42.68C276.995 43.2933 276.481 43.7667 275.828 44.1C275.188 44.4333 274.461 44.6 273.648 44.6C272.275 44.6 271.188 44.22 270.388 43.46C269.601 42.6867 269.208 41.56 269.208 40.08V34.48H270.628V39.94C270.628 41.0467 270.901 41.8867 271.448 42.46C271.995 43.0333 272.775 43.32 273.788 43.32C274.895 43.32 275.768 42.9867 276.408 42.32C277.048 41.64 277.368 40.7 277.368 39.5V34.48H278.788ZM292.245 34.48V45H290.825V35.74H284.225V45H282.805V34.48H292.245ZM296.282 34.48H297.702V39.14H304.322V34.48H305.742V45H304.322V40.36H297.702V45H296.282V34.48ZM314.118 45.1C313.104 45.1 312.191 44.8733 311.378 44.42C310.564 43.9533 309.924 43.3133 309.458 42.5C308.991 41.6867 308.758 40.7667 308.758 39.74C308.758 38.7133 308.991 37.7933 309.458 36.98C309.924 36.1667 310.564 35.5333 311.378 35.08C312.191 34.6267 313.104 34.4 314.118 34.4C315.131 34.4 316.044 34.6267 316.858 35.08C317.671 35.5333 318.304 36.1667 318.758 36.98C319.224 37.7933 319.458 38.7133 319.458 39.74C319.458 40.7667 319.224 41.6867 318.758 42.5C318.304 43.3133 317.671 43.9533 316.858 44.42C316.044 44.8733 315.131 45.1 314.118 45.1ZM314.118 43.84C314.864 43.84 315.531 43.6733 316.118 43.34C316.718 42.9933 317.184 42.5067 317.518 41.88C317.851 41.2533 318.018 40.54 318.018 39.74C318.018 38.94 317.851 38.2267 317.518 37.6C317.184 36.9733 316.718 36.4933 316.118 36.16C315.531 35.8133 314.864 35.64 314.118 35.64C313.371 35.64 312.698 35.8133 312.098 36.16C311.511 36.4933 311.044 36.9733 310.698 37.6C310.364 38.2267 310.198 38.94 310.198 39.74C310.198 40.54 310.364 41.2533 310.698 41.88C311.044 42.5067 311.511 42.9933 312.098 43.34C312.698 43.6733 313.371 43.84 314.118 43.84ZM334.427 39.56C335.854 39.8933 336.567 40.7533 336.567 42.14C336.567 43.06 336.227 43.7667 335.547 44.26C334.867 44.7533 333.854 45 332.507 45H327.727V34.48H332.367C333.567 34.48 334.507 34.7133 335.187 35.18C335.867 35.6467 336.207 36.3133 336.207 37.18C336.207 37.7533 336.047 38.2467 335.727 38.66C335.42 39.06 334.987 39.36 334.427 39.56ZM329.107 39.16H332.267C333.08 39.16 333.7 39.0067 334.127 38.7C334.567 38.3933 334.787 37.9467 334.787 37.36C334.787 36.7733 334.567 36.3333 334.127 36.04C333.7 35.7467 333.08 35.6 332.267 35.6H329.107V39.16ZM332.447 43.88C333.354 43.88 334.034 43.7333 334.487 43.44C334.94 43.1467 335.167 42.6867 335.167 42.06C335.167 41.4333 334.96 40.9733 334.547 40.68C334.134 40.3733 333.48 40.22 332.587 40.22H329.107V43.88H332.447Z" fill="#F5F5F5"/>
<path d="M229.138 77.1H231.552V89H229.342V86.994C228.435 87.7193 227.37 88.2747 226.146 88.66C224.945 89.0227 223.653 89.204 222.27 89.204C220.139 89.204 218.156 88.728 216.32 87.776C214.507 86.824 213.045 85.4413 211.934 83.628C210.823 81.8147 210.268 79.6613 210.268 77.168C210.268 74.856 210.812 72.782 211.9 70.946C212.988 69.0873 214.484 67.6367 216.388 66.594C218.292 65.5287 220.445 64.996 222.848 64.996C224.661 64.996 226.327 65.2907 227.846 65.88C229.365 66.4467 230.645 67.2967 231.688 68.43L230.124 70.028C228.243 68.1693 225.851 67.24 222.95 67.24C221.023 67.24 219.278 67.6707 217.714 68.532C216.173 69.3707 214.96 70.5493 214.076 72.068C213.192 73.5867 212.75 75.2867 212.75 77.168C212.75 79.1853 213.192 80.942 214.076 82.438C214.983 83.9113 216.173 85.0447 217.646 85.838C219.142 86.6087 220.74 86.994 222.44 86.994C223.687 86.994 224.888 86.79 226.044 86.382C227.223 85.9513 228.254 85.3053 229.138 84.444V77.1ZM245.473 89.17C243.75 89.17 242.198 88.7847 240.815 88.014C239.432 87.2207 238.344 86.1327 237.551 84.75C236.758 83.3673 236.361 81.8033 236.361 80.058C236.361 78.3127 236.758 76.7487 237.551 75.366C238.344 73.9833 239.432 72.9067 240.815 72.136C242.198 71.3653 243.75 70.98 245.473 70.98C247.196 70.98 248.748 71.3653 250.131 72.136C251.514 72.9067 252.59 73.9833 253.361 75.366C254.154 76.7487 254.551 78.3127 254.551 80.058C254.551 81.8033 254.154 83.3673 253.361 84.75C252.59 86.1327 251.514 87.2207 250.131 88.014C248.748 88.7847 247.196 89.17 245.473 89.17ZM245.473 87.028C246.742 87.028 247.876 86.7447 248.873 86.178C249.893 85.5887 250.686 84.7613 251.253 83.696C251.82 82.6307 252.103 81.418 252.103 80.058C252.103 78.698 251.82 77.4853 251.253 76.42C250.686 75.3547 249.893 74.5387 248.873 73.972C247.876 73.3827 246.742 73.088 245.473 73.088C244.204 73.088 243.059 73.3827 242.039 73.972C241.042 74.5387 240.248 75.3547 239.659 76.42C239.092 77.4853 238.809 78.698 238.809 80.058C238.809 81.418 239.092 82.6307 239.659 83.696C240.248 84.7613 241.042 85.5887 242.039 86.178C243.059 86.7447 244.204 87.028 245.473 87.028ZM266.789 89.17C265.067 89.17 263.514 88.7847 262.131 88.014C260.749 87.2207 259.661 86.1327 258.867 84.75C258.074 83.3673 257.677 81.8033 257.677 80.058C257.677 78.3127 258.074 76.7487 258.867 75.366C259.661 73.9833 260.749 72.9067 262.131 72.136C263.514 71.3653 265.067 70.98 266.789 70.98C268.512 70.98 270.065 71.3653 271.447 72.136C272.83 72.9067 273.907 73.9833 274.677 75.366C275.471 76.7487 275.867 78.3127 275.867 80.058C275.867 81.8033 275.471 83.3673 274.677 84.75C273.907 86.1327 272.83 87.2207 271.447 88.014C270.065 88.7847 268.512 89.17 266.789 89.17ZM266.789 87.028C268.059 87.028 269.192 86.7447 270.189 86.178C271.209 85.5887 272.003 84.7613 272.569 83.696C273.136 82.6307 273.419 81.418 273.419 80.058C273.419 78.698 273.136 77.4853 272.569 76.42C272.003 75.3547 271.209 74.5387 270.189 73.972C269.192 73.3827 268.059 73.088 266.789 73.088C265.52 73.088 264.375 73.3827 263.355 73.972C262.358 74.5387 261.565 75.3547 260.975 76.42C260.409 77.4853 260.125 78.698 260.125 80.058C260.125 81.418 260.409 82.6307 260.975 83.696C261.565 84.7613 262.358 85.5887 263.355 86.178C264.375 86.7447 265.52 87.028 266.789 87.028ZM297.354 71.116V86.824C297.354 89.8613 296.606 92.1053 295.11 93.556C293.636 95.0293 291.404 95.766 288.412 95.766C286.757 95.766 285.182 95.5167 283.686 95.018C282.212 94.542 281.011 93.8733 280.082 93.012L281.306 91.176C282.167 91.9467 283.21 92.5473 284.434 92.978C285.68 93.4087 286.984 93.624 288.344 93.624C290.61 93.624 292.276 93.0913 293.342 92.026C294.407 90.9833 294.94 89.3513 294.94 87.13V84.852C294.192 85.9853 293.206 86.8467 291.982 87.436C290.78 88.0253 289.443 88.32 287.97 88.32C286.292 88.32 284.762 87.9573 283.38 87.232C282.02 86.484 280.943 85.4527 280.15 84.138C279.379 82.8007 278.994 81.2933 278.994 79.616C278.994 77.9387 279.379 76.4427 280.15 75.128C280.943 73.8133 282.02 72.7933 283.38 72.068C284.74 71.3427 286.27 70.98 287.97 70.98C289.488 70.98 290.86 71.286 292.084 71.898C293.308 72.51 294.294 73.394 295.042 74.55V71.116H297.354ZM288.208 86.178C289.5 86.178 290.667 85.906 291.71 85.362C292.752 84.7953 293.557 84.0133 294.124 83.016C294.713 82.0187 295.008 80.8853 295.008 79.616C295.008 78.3467 294.713 77.2247 294.124 76.25C293.557 75.2527 292.752 74.482 291.71 73.938C290.69 73.3713 289.522 73.088 288.208 73.088C286.916 73.088 285.748 73.36 284.706 73.904C283.686 74.448 282.881 75.2187 282.292 76.216C281.725 77.2133 281.442 78.3467 281.442 79.616C281.442 80.8853 281.725 82.0187 282.292 83.016C282.881 84.0133 283.686 84.7953 284.706 85.362C285.748 85.906 286.916 86.178 288.208 86.178ZM309.136 89.17C307.527 89.17 306.28 88.7167 305.396 87.81C304.535 86.9033 304.104 85.6453 304.104 84.036V63.772H306.518V83.832C306.518 84.8973 306.768 85.7133 307.266 86.28C307.765 86.824 308.513 87.096 309.51 87.096C310.145 87.096 310.689 86.994 311.142 86.79L311.312 88.796C310.61 89.0453 309.884 89.17 309.136 89.17ZM321.914 87.028C323.025 87.028 324.045 86.8353 324.974 86.45C325.926 86.042 326.731 85.4527 327.388 84.682L328.748 86.246C327.955 87.198 326.969 87.9233 325.79 88.422C324.612 88.9207 323.308 89.17 321.88 89.17C320.044 89.17 318.412 88.7847 316.984 88.014C315.556 87.2207 314.446 86.1327 313.652 84.75C312.859 83.3673 312.462 81.8033 312.462 80.058C312.462 78.3127 312.836 76.7487 313.584 75.366C314.355 73.9833 315.409 72.9067 316.746 72.136C318.084 71.3653 319.602 70.98 321.302 70.98C322.889 70.98 324.317 71.3427 325.586 72.068C326.878 72.7933 327.898 73.802 328.646 75.094C329.417 76.386 329.825 77.8593 329.87 79.514L315.182 82.37C315.636 83.8207 316.452 84.9653 317.63 85.804C318.832 86.62 320.26 87.028 321.914 87.028ZM321.302 73.054C320.056 73.054 318.934 73.3487 317.936 73.938C316.962 74.5047 316.191 75.3093 315.624 76.352C315.08 77.372 314.808 78.5507 314.808 79.888C314.808 80.228 314.82 80.4773 314.842 80.636L327.456 78.188C327.184 76.692 326.493 75.468 325.382 74.516C324.272 73.5413 322.912 73.054 321.302 73.054ZM353.1 65.2C356.138 65.2 358.518 65.9253 360.24 67.376C361.963 68.8267 362.824 70.8213 362.824 73.36C362.824 75.8987 361.963 77.8933 360.24 79.344C358.518 80.772 356.138 81.486 353.1 81.486H346.708V89H344.192V65.2H353.1ZM353.032 79.276C355.39 79.276 357.192 78.766 358.438 77.746C359.685 76.7033 360.308 75.2413 360.308 73.36C360.308 71.4333 359.685 69.96 358.438 68.94C357.192 67.8973 355.39 67.376 353.032 67.376H346.708V79.276H353.032ZM373.119 89.17C371.509 89.17 370.263 88.7167 369.379 87.81C368.517 86.9033 368.087 85.6453 368.087 84.036V63.772H370.501V83.832C370.501 84.8973 370.75 85.7133 371.249 86.28C371.747 86.824 372.495 87.096 373.493 87.096C374.127 87.096 374.671 86.994 375.125 86.79L375.295 88.796C374.592 89.0453 373.867 89.17 373.119 89.17ZM394.567 71.116V89H392.255V85.464C391.53 86.6653 390.566 87.5833 389.365 88.218C388.186 88.8527 386.849 89.17 385.353 89.17C383.676 89.17 382.157 88.7847 380.797 88.014C379.437 87.2433 378.372 86.1667 377.601 84.784C376.83 83.4013 376.445 81.826 376.445 80.058C376.445 78.29 376.83 76.7147 377.601 75.332C378.372 73.9493 379.437 72.884 380.797 72.136C382.157 71.3653 383.676 70.98 385.353 70.98C386.804 70.98 388.107 71.286 389.263 71.898C390.442 72.4873 391.405 73.36 392.153 74.516V71.116H394.567ZM385.557 87.028C386.804 87.028 387.926 86.7447 388.923 86.178C389.943 85.5887 390.736 84.7613 391.303 83.696C391.892 82.6307 392.187 81.418 392.187 80.058C392.187 78.698 391.892 77.4853 391.303 76.42C390.736 75.3547 389.943 74.5387 388.923 73.972C387.926 73.3827 386.804 73.088 385.557 73.088C384.288 73.088 383.143 73.3827 382.123 73.972C381.126 74.5387 380.332 75.3547 379.743 76.42C379.176 77.4853 378.893 78.698 378.893 80.058C378.893 81.418 379.176 82.6307 379.743 83.696C380.332 84.7613 381.126 85.5887 382.123 86.178C383.143 86.7447 384.288 87.028 385.557 87.028ZM417.406 71.116V86.824C417.406 89.8613 416.714 92.1053 415.332 93.556C413.949 95.0293 411.864 95.766 409.076 95.766C407.512 95.766 406.027 95.5167 404.622 95.018C403.239 94.542 402.117 93.8733 401.256 93.012L402.48 91.176C403.25 91.9467 404.202 92.5473 405.336 92.978C406.469 93.4087 407.682 93.624 408.974 93.624C411.036 93.624 412.555 93.0913 413.53 92.026C414.504 90.9833 414.992 89.3513 414.992 87.13V85.056C414.357 86.0987 413.484 86.9033 412.374 87.47C411.286 88.0367 410.05 88.32 408.668 88.32C406.333 88.32 404.486 87.674 403.126 86.382C401.788 85.0673 401.12 83.152 401.12 80.636V71.116H403.534V80.398C403.534 82.2793 403.998 83.7073 404.928 84.682C405.857 85.6567 407.183 86.144 408.906 86.144C410.787 86.144 412.272 85.5773 413.36 84.444C414.448 83.288 414.992 81.69 414.992 79.65V71.116H417.406Z" fill="#F5F5F5"/>
</svg>
