<svg width="79" height="80" viewBox="0 0 79 80" fill="none" xmlns="http://www.w3.org/2000/svg">
<path d="M47.0172 55.8434C46.6732 55.6277 46.3326 55.4571 45.997 55.3259C42.8496 54.0954 40.1505 56.3323 39.323 57.3937C38.4072 56.2192 35.1996 53.6051 31.6287 55.8434C28.2828 57.9406 29.4431 62.4568 32.6489 65.88M36.4014 68.7853C37.3261 69.2856 38.3082 69.6812 39.323 69.9369C44.0885 68.7363 48.133 64.4492 48.9 60.7242" stroke="#EF5C00" stroke-width="4" stroke-linecap="round" stroke-linejoin="round"/>
<path d="M55.4231 78.0004H10.9277C8.7186 78.0004 6.92773 76.2095 6.92773 74.0004L6.92773 44.6045L71.5883 44.6045V74.0004C71.5883 76.2095 69.7974 78.0004 67.5883 78.0004H60.8115" stroke="#EF5C00" stroke-width="4" stroke-linecap="round"/>
<path d="M75.5134 44.6099H3.00477C2.23146 44.6099 1.75079 43.7697 2.14271 43.1031L5.7061 37.042C5.88574 36.7365 6.21371 36.5488 6.56816 36.5488H71.95C72.3045 36.5488 72.6324 36.7365 72.8121 37.042L76.3755 43.1031C76.7674 43.7697 76.2867 44.6099 75.5134 44.6099Z" stroke="#EF5C00" stroke-width="4" stroke-linecap="round" stroke-linejoin="round"/>
<path d="M22.5678 17.9236L16.411 22.3732C15.7526 22.8489 14.8462 22.6902 14.3766 22.0169L9.47518 14.9886C8.99991 14.3071 9.15157 13.3566 9.81346 12.8685L15.5908 8.60805M24.0367 2.37961L19.8137 5.49383M55.6171 2.37961L69.8404 12.8685C70.5023 13.3566 70.6539 14.3071 70.1787 14.9886L65.2772 22.0169C64.8077 22.6902 63.9012 22.8489 63.2429 22.3732L57.086 17.9236M32.8498 2.00049C33.2171 4.02247 35.1174 7.68732 39.8269 7.68732C45.3351 7.68732 46.4368 2.37961 46.804 2.00049M57.086 36.548H22.5678L22.5678 5.03347C22.5678 3.3584 23.8831 2.00049 25.5056 2.00049L54.1483 2.00049C55.7708 2.00049 57.086 3.3584 57.086 5.03347V36.548Z" stroke="#EF5C00" stroke-width="4" stroke-linecap="round" stroke-linejoin="round"/>
</svg>
