<svg width="64" height="58" viewBox="0 0 64 58" fill="none" xmlns="http://www.w3.org/2000/svg">
<path d="M2 34V51C2 53.7614 4.23858 56 7 56H57C59.7614 56 62 53.7614 62 51V17C62 14.2386 59.7624 12 57.001 12C55.0241 12 52.7016 12 50.4995 12C47.7381 12 45.5 10.5115 45.5 7.75017C45.5 4.98872 43.2608 2.0001 40.4994 2.00012C35.6878 2.00016 32 2 32 2C32 2 27.5796 2 23.4997 2C20.7383 2 18.5 4.42617 18.5 7.18759C18.5 9.94902 16.2625 12 13.5011 12C11.3504 12 9.0055 12 6.99733 12C4.23591 12 2 14.2386 2 17V23" stroke="#EF5C00" stroke-width="4" stroke-linecap="round"/>
<circle cx="32" cy="33" r="12" stroke="#EF5C00" stroke-width="4"/>
<circle cx="54" cy="21" r="2" stroke="#EF5C00" stroke-width="2"/>
</svg>
