<svg width="85" height="63" viewBox="0 0 85 63" fill="none" xmlns="http://www.w3.org/2000/svg">
<path d="M32.0654 8.60547C29.5654 9.60547 26.0654 8.60547 23.5654 8.60547C21.0654 8.60547 16.5654 5.60547 14.5654 4.10547C13.0654 6.60547 4.06543 19.6055 2.56543 22.1055L12.0654 30.6055M32.0654 8.60547C33.2321 7.77214 36.1654 6.00547 38.5654 5.60547C41.5654 5.10547 48.0654 4.60547 52.0654 7.10547C56.0654 9.60547 68.0654 6.60547 70.0654 3.60547C72.4654 7.20547 78.7321 17.4388 81.5654 22.1055L68.0654 35.1055M32.0654 8.60547C30.0654 10.7721 26.1978 15.0859 25.0654 18.1055C23.5654 22.1055 25.7096 25.292 27.0654 26.1055C29.5654 27.6055 31.5654 26.1055 35.0654 22.1055C38.5654 18.1055 41.8991 15.6055 45.4823 17.1055C55.238 24.4029 66.8752 33.9153 68.0654 35.1055M68.0654 35.1055C70.0654 37.1055 71.3659 39.305 69.0654 41.6055C66.3585 44.3124 65.0654 43.1055 64.0654 42.6055M64.0654 42.6055C63.0654 42.1055 54.5654 34.6055 53.5654 33.6055M64.0654 42.6055C64.7321 43.7721 66.0654 45.6055 63.5654 48.1055C61.7245 49.9464 59.5654 49.1055 58.5654 48.6055M58.5654 48.6055C57.933 48.2892 51.0654 42.1055 49.0654 40.6055M58.5654 48.6055C59.0654 49.7721 59.4654 52.5055 57.0654 54.1055C54.0654 56.1055 52.5654 55.6055 51.0654 55.1055M51.0654 55.1055C49.5654 54.6055 44.5654 48.6055 43.5654 47.6055M51.0654 55.1055C51.3988 56.1055 51.3654 58.5055 48.5654 60.1055C45.0654 62.1055 40.0654 56.1055 39.0654 54.6055M39.0654 54.6055C40.5654 52.6055 41.1648 51.0547 39.0654 48.6055C36.8154 45.9805 33.5654 48.8555 31.9404 50.4805M39.0654 54.6055C34.7738 58.8708 31.6859 59.2259 30.0654 57.6055C27.8154 55.3555 29.037 52.7305 31.9404 50.4805M19.5654 37.1055C17.0654 39.6055 12.9821 43.1055 10.0654 39.6055C6.86451 35.7644 10.0654 32.6055 12.0654 30.6055C13.7321 28.6055 17.8654 25.4055 21.0654 28.6055C25.0654 32.6055 21.0654 35.6055 19.5654 37.1055ZM19.5654 37.1055C21.7321 34.9388 26.0654 31.1055 29.0654 34.6055C31.8646 37.8712 30.0654 40.1055 26.0654 43.6055M19.5654 37.1055C15.6942 40.1055 14.0654 43.6055 17.0654 46.6055C19.226 48.7661 22.0654 47.1055 26.0654 43.6055M26.0654 43.6055C28.0515 41.6194 32.0238 38.1055 34.7738 41.3138C37.3397 44.3073 34.9404 47.8555 31.9404 50.4805M26.0654 43.6055C22.5168 46.3555 21.0238 49.5638 23.7738 52.3138C25.7543 54.2944 28.9404 53.1055 31.9404 50.4805" stroke="#EF5C00" stroke-width="4" stroke-linecap="round"/>
</svg>
