<svg width="73" height="62" viewBox="0 0 73 62" fill="none" xmlns="http://www.w3.org/2000/svg">
<path d="M1 45.1737V55.3584C1 58.1199 3.23858 60.3584 6 60.3584H38.6279C41.3893 60.3584 43.6279 58.1199 43.6279 55.3584V34.989C43.6279 32.2276 41.3902 29.989 38.6288 29.989C37.567 29.989 36.4392 29.989 35.3561 29.989C33.4501 29.989 31.9052 28.9617 31.9052 27.0558C31.9052 25.1498 30.3592 23.087 28.4532 23.087C24.9856 23.087 22.314 23.0869 22.314 23.0869C22.314 23.0869 19.0998 23.0869 16.1736 23.0869C14.2676 23.0869 12.7227 24.7615 12.7227 26.6675C12.7227 28.5734 11.1788 29.989 9.27279 29.989C8.21015 29.989 7.07612 29.989 5.99918 29.989C3.23775 29.989 1 32.2276 1 34.989V37.5814" stroke="#EF5C00" stroke-width="2" stroke-linecap="round"/>
<path d="M23.4427 35.895C28.3684 36.5455 31.8007 40.9383 31.1779 45.6547C30.555 50.3711 26.1002 53.7225 21.1745 53.0721C16.2489 52.4216 12.8166 48.0287 13.4393 43.3124C14.0621 38.596 18.517 35.2447 23.4427 35.895Z" stroke="#EF5C00" stroke-width="2"/>
<path d="M16.9844 18.6004V1H53.2181V12.0434" stroke="#EF5C00" stroke-width="2" stroke-linecap="round"/>
<path d="M21.957 18.9454V6.17646L48.2443 6.08402V10.5704" stroke="#EF5C00" stroke-width="2" stroke-linecap="round"/>
<path d="M33.3242 20.3263L37.2318 11.3535L70.9789 24.1225L57.8353 56.9076L47.8888 53.1114" stroke="#EF5C00" stroke-width="2" stroke-linecap="round"/>
<path d="M36.5215 26.1927L39.7186 17.9102L63.8744 27.228L56.0593 45.5187L47.5337 42.0676" stroke="#EF5C00" stroke-width="2" stroke-linecap="round"/>
</svg>
