<svg width="48" height="48" viewBox="0 0 48 48" fill="none" xmlns="http://www.w3.org/2000/svg">
<circle cx="24" cy="24" r="23" fill="#F5F5F5" stroke="#EF5C00" stroke-width="2"/>
<path d="M36.5831 8.99521C36.1819 9.02497 35.7882 9.11909 35.4169 9.27396H35.4119C35.0556 9.41521 33.3619 10.1277 30.7869 11.2077L21.5594 15.094C14.9381 17.8815 8.42938 20.6265 8.42938 20.6265L8.50688 20.5965C8.50688 20.5965 8.05813 20.744 7.58938 21.0652C7.29913 21.2487 7.04979 21.4899 6.85688 21.774C6.62688 22.1115 6.44188 22.6277 6.51063 23.1615C6.62313 24.064 7.20813 24.6052 7.62813 24.904C8.05313 25.2065 8.45813 25.3477 8.45813 25.3477H8.46813L14.5719 27.404C14.8456 28.2827 16.4319 33.4977 16.8131 34.699C17.0381 35.4165 17.2569 35.8652 17.5306 36.2077C17.6615 36.3827 17.8194 36.529 18.0044 36.6465C18.1005 36.7042 18.2039 36.7488 18.3119 36.779L18.2494 36.764C18.2681 36.769 18.2831 36.784 18.2969 36.789C18.3469 36.8027 18.3806 36.8077 18.4444 36.8177C19.4106 37.1102 20.1869 36.5102 20.1869 36.5102L20.2306 36.4752L23.8344 33.194L29.8744 37.8277L30.0119 37.8865C31.2706 38.439 32.5456 38.1315 33.2194 37.589C33.8981 37.0427 34.1619 36.344 34.1619 36.344L34.2056 36.2315L38.8731 12.3202C39.0056 11.7302 39.0394 11.1777 38.8931 10.6415C38.7431 10.0984 38.3947 9.63134 37.9169 9.33271C37.5162 9.08896 37.0515 8.97137 36.5831 8.99521ZM36.4569 11.5577C36.4519 11.6365 36.4669 11.6277 36.4319 11.779V11.7927L31.8081 35.4552C31.7881 35.489 31.7544 35.5627 31.6619 35.6365C31.5644 35.714 31.4869 35.7627 31.0806 35.6015L23.6931 29.9377L19.2306 34.0052L20.1681 28.0177L32.2381 16.7677C32.7356 16.3052 32.5694 16.2077 32.5694 16.2077C32.6044 15.6402 31.8181 16.0415 31.8181 16.0415L16.5981 25.4702L16.5931 25.4452L9.29813 22.989V22.984L9.27938 22.9802L9.31688 22.9652L9.35688 22.9452L9.39563 22.9315C9.39563 22.9315 15.9094 20.1865 22.5306 17.399C25.8456 16.0027 29.1856 14.5965 31.7544 13.5115C33.2778 12.8702 34.8028 12.2327 36.3294 11.599C36.4319 11.559 36.3831 11.5577 36.4569 11.5577Z" fill="#EF5C00"/>
</svg>
