<svg width="55" height="55" viewBox="0 0 55 55" fill="none" xmlns="http://www.w3.org/2000/svg">
<path d="M41.922 10.3042C41.4623 10.3383 41.0111 10.4462 40.5857 10.6236H40.5799C40.1717 10.7855 38.231 11.6019 35.2805 12.8394L24.7073 17.2924C17.1204 20.4864 9.66249 23.6317 9.66249 23.6317L9.75129 23.5973C9.75129 23.5973 9.2371 23.7664 8.69999 24.1345C8.36742 24.3446 8.08171 24.6211 7.86067 24.9466C7.59713 25.3333 7.38515 25.9248 7.46392 26.5364C7.59283 27.5705 8.26314 28.1907 8.74439 28.533C9.23137 28.8796 9.69543 29.0415 9.69543 29.0415H9.70689L16.7008 31.3976C17.0144 32.4045 18.832 38.38 19.2689 39.7565C19.5267 40.5786 19.7773 41.0928 20.091 41.4852C20.2409 41.6858 20.4219 41.8533 20.6338 41.988C20.744 42.0542 20.8625 42.1052 20.9862 42.1398L20.9146 42.1226C20.9361 42.1283 20.9532 42.1455 20.969 42.1513C21.0263 42.167 21.065 42.1727 21.138 42.1842C22.2452 42.5194 23.1346 41.8319 23.1346 41.8319L23.1848 41.7917L27.3141 38.032L34.2349 43.3415L34.3924 43.4088C35.8348 44.0419 37.2957 43.6895 38.0677 43.0679C38.8454 42.442 39.1476 41.6414 39.1476 41.6414L39.1978 41.5124L44.546 14.1141C44.6978 13.4381 44.7364 12.805 44.5689 12.1906C44.3969 11.5683 43.9977 11.0331 43.4502 10.691C42.9912 10.4117 42.4587 10.2769 41.922 10.3042ZM41.7773 13.2404C41.7716 13.3307 41.7888 13.3207 41.7487 13.494V13.5097L36.4506 40.623C36.4277 40.6617 36.3891 40.7462 36.2831 40.8307C36.1713 40.9195 36.0825 40.9753 35.617 40.7906L27.1522 34.3009L22.0389 38.9615L23.1131 32.1009L36.9433 19.2102C37.5134 18.6803 37.3229 18.5686 37.3229 18.5686C37.363 17.9183 36.4621 18.3781 36.4621 18.3781L19.0225 29.1819L19.0168 29.1532L10.6579 26.3388V26.333L10.6365 26.3287L10.6794 26.3115L10.7253 26.2886L10.7697 26.2729C10.7697 26.2729 18.2333 23.1276 25.8202 19.9335C29.6186 18.3337 33.4457 16.7223 36.3891 15.4791C38.1347 14.7444 39.8821 14.0139 41.6312 13.2877C41.7487 13.2419 41.6928 13.2404 41.7773 13.2404Z" fill="#EF5C00"/>
<circle cx="27.5" cy="27.5" r="26.5" stroke="#EF5C00" stroke-width="2"/>
</svg>
