<svg width="55" height="55" viewBox="0 0 55 55" fill="none" xmlns="http://www.w3.org/2000/svg">
<path fill-rule="evenodd" clip-rule="evenodd" d="M45.1485 36.3612C44.2669 34.5861 43.1053 32.9643 41.7083 31.5582C41.2404 31.0308 40.7512 30.5226 40.2418 30.035L40.1802 29.975C39.991 29.7916 39.8041 29.6058 39.6196 29.4176C41.5297 26.7614 43.164 23.9174 44.4971 20.9297L44.5506 20.8098L44.5879 20.6834C44.7645 20.0951 44.9654 18.977 44.2524 17.9659C43.5135 16.9223 42.3322 16.7343 41.5398 16.7343H37.8986C37.1361 16.6991 36.382 16.9062 35.7445 17.326C35.107 17.7458 34.6188 18.3566 34.3498 19.071C33.5663 20.9372 32.5852 22.7142 31.4233 24.3715V20.1049C31.4233 19.5539 31.3714 18.6303 30.78 17.8524C30.0735 16.9191 29.051 16.7343 28.3412 16.7343H22.5627C21.8086 16.717 21.0768 16.9903 20.5187 17.4977C19.9607 18.0051 19.6191 18.7076 19.5648 19.4599L19.56 19.5328V19.6058C19.56 20.3917 19.8711 20.9718 20.1206 21.3364C20.2325 21.5001 20.3507 21.6492 20.4269 21.7431L20.4431 21.7642C20.5241 21.8647 20.5776 21.9311 20.6311 22.0057C20.7737 22.1969 20.9762 22.495 21.0346 23.2631V25.6501C19.8748 23.7076 18.9237 21.6479 18.1972 19.5053L18.1842 19.4696L18.1712 19.4356C17.9735 18.9187 17.6576 18.1668 17.024 17.5932C16.285 16.9207 15.41 16.7343 14.6143 16.7343H10.9197C10.1143 16.7343 9.1437 16.9223 8.41935 17.6855C7.70798 18.4374 7.62695 19.3384 7.62695 19.8148V20.0319L7.67233 20.2426C8.69364 24.9924 10.8019 29.4408 13.8317 33.2386C15.216 35.422 17.0956 37.2482 19.3179 38.5693C21.5401 39.8903 24.0425 40.6688 26.6219 40.8418L26.6883 40.8467H26.7564C27.9328 40.8467 29.1595 40.7446 30.0816 40.1304C31.3245 39.3008 31.4233 38.0287 31.4233 37.3935V35.5494C31.7425 35.8087 32.1379 36.1555 32.6224 36.6221C33.209 37.2087 33.6757 37.7176 34.076 38.1616L34.2899 38.3982C34.601 38.7449 34.9073 39.0868 35.186 39.3672C35.536 39.7188 35.9687 40.1061 36.5099 40.3929C37.0981 40.7024 37.7155 40.8434 38.3702 40.8434H42.0664C42.8459 40.8434 43.9624 40.6587 44.7483 39.748C45.6039 38.7563 45.5391 37.5393 45.2701 36.6659L45.2215 36.5087L45.1485 36.3612ZM35.8795 36.533C35.3774 35.9715 34.8603 35.4236 34.3288 34.8899L34.3239 34.885C32.125 32.7655 31.0992 32.3976 30.3732 32.3976C29.986 32.3976 29.5598 32.4398 29.2827 32.7865C29.1594 32.9528 29.0777 33.1462 29.0445 33.3504C29.0058 33.5883 28.9885 33.829 28.9926 34.0699V37.3935C28.9926 37.8067 28.9246 37.9801 28.7334 38.1065C28.4789 38.2766 27.9361 38.4144 26.771 38.4144C24.5578 38.2638 22.4119 37.59 20.5098 36.4486C18.6077 35.3071 17.0037 33.7304 15.8297 31.8483L15.8167 31.8272L15.8005 31.8078C12.978 28.2975 11.0118 24.178 10.0576 19.7759C10.0641 19.5653 10.1095 19.4372 10.184 19.3595C10.2602 19.2784 10.4465 19.165 10.9197 19.165H14.6143C15.0243 19.165 15.2382 19.2557 15.3922 19.3935C15.5639 19.5523 15.7163 19.8197 15.8977 20.2961C16.8052 22.9633 18.0303 25.4588 19.1921 27.2932C19.7722 28.2088 20.3426 28.972 20.858 29.5116C21.1156 29.7806 21.3668 30.0042 21.6082 30.163C21.8399 30.3153 22.1041 30.4369 22.3763 30.4369C22.5189 30.4369 22.6858 30.4207 22.8462 30.351C23.0197 30.2748 23.1624 30.1423 23.2514 29.975C23.4183 29.6704 23.4653 29.2215 23.4653 28.6333V23.1675C23.3794 21.842 22.9791 21.095 22.5902 20.5651C22.5113 20.4592 22.4303 20.3549 22.3471 20.2523L22.3261 20.2264C22.2573 20.1422 22.1914 20.0557 22.1284 19.9671C22.0495 19.8675 22.0016 19.7469 21.9906 19.6204C22.0034 19.4916 22.0648 19.3725 22.1624 19.2876C22.26 19.2026 22.3864 19.1582 22.5157 19.1634H28.3412C28.675 19.1634 28.7868 19.2444 28.8435 19.3206C28.9246 19.4259 28.9926 19.6447 28.9926 20.1049V27.4423C28.9926 28.3141 29.3945 28.9039 29.9779 28.9039C30.6487 28.9039 31.1332 28.4972 31.9791 27.6513L31.9937 27.6351L32.0067 27.6205C33.9044 25.3071 35.4547 22.7294 36.6088 19.9687L36.6152 19.9493C36.7015 19.7051 36.8655 19.4959 37.0822 19.354C37.2988 19.212 37.556 19.145 37.8144 19.1634H41.5414C42.047 19.1634 42.2123 19.293 42.2674 19.3692C42.3241 19.4502 42.3646 19.6236 42.2674 19.9639C40.9365 22.9397 39.291 25.7646 37.359 28.3902L37.3461 28.4097C37.1597 28.6965 36.9539 29.0141 36.9247 29.3771C36.8923 29.7692 37.0609 30.1241 37.3574 30.5066C37.5729 30.8242 38.0185 31.2601 38.4707 31.7024L38.5128 31.7446C38.986 32.208 39.4996 32.7104 39.9112 33.1965L39.9226 33.2078L39.9339 33.2208C41.1611 34.4452 42.1817 35.8604 42.9561 37.4113C43.0792 37.8326 43.0047 38.0498 42.9075 38.1616C42.7956 38.2912 42.5445 38.4127 42.0681 38.4127H38.3702C38.1181 38.4196 37.8685 38.361 37.6458 38.2426C37.3732 38.0829 37.1253 37.8842 36.9102 37.6528C36.6784 37.421 36.4273 37.1407 36.1194 36.7988L35.8795 36.533Z" fill="#EF5C00"/>
<circle cx="27.5" cy="27.5" r="26.5" stroke="#EF5C00" stroke-width="2"/>
</svg>
