<svg width="55" height="55" viewBox="0 0 55 55" fill="none" xmlns="http://www.w3.org/2000/svg">
<g clip-path="url(#clip0_958_43747)">
<path fill-rule="evenodd" clip-rule="evenodd" d="M45.1466 36.3612C44.2649 34.5861 43.1033 32.9643 41.7064 31.5582C41.2384 31.0308 40.7492 30.5226 40.2399 30.035L40.1783 29.975C39.989 29.7916 39.8021 29.6058 39.6176 29.4176C41.5277 26.7614 43.162 23.9174 44.4952 20.9297L44.5486 20.8098L44.5859 20.6834C44.7625 20.0951 44.9635 18.977 44.2505 17.9659C43.5115 16.9223 42.3302 16.7343 41.5378 16.7343H37.8967C37.1342 16.6991 36.3801 16.9062 35.7426 17.326C35.105 17.7458 34.6168 18.3566 34.3479 19.071C33.5643 20.9372 32.5832 22.7142 31.4214 24.3715V20.1049C31.4214 19.5539 31.3695 18.6303 30.778 17.8524C30.0715 16.9191 29.049 16.7343 28.3392 16.7343H22.5607C21.8067 16.717 21.0748 16.9903 20.5168 17.4977C19.9587 18.0051 19.6172 18.7076 19.5629 19.4599L19.558 19.5328V19.6058C19.558 20.3917 19.8691 20.9718 20.1187 21.3364C20.2305 21.5001 20.3488 21.6492 20.425 21.7431L20.4412 21.7642C20.5222 21.8647 20.5757 21.9311 20.6291 22.0057C20.7717 22.1969 20.9743 22.495 21.0326 23.2631V25.6501C19.8728 23.7076 18.9217 21.6479 18.1952 19.5053L18.1823 19.4696L18.1693 19.4356C17.9716 18.9187 17.6556 18.1668 17.022 17.5932C16.2831 16.9207 15.408 16.7343 14.6124 16.7343H10.9178C10.1124 16.7343 9.14174 16.9223 8.4174 17.6855C7.70602 18.4374 7.625 19.3384 7.625 19.8148V20.0319L7.67037 20.2426C8.69169 24.9924 10.8 29.4408 13.8297 33.2386C15.2141 35.422 17.0936 37.2482 19.3159 38.5693C21.5381 39.8903 24.0405 40.6688 26.6199 40.8418L26.6864 40.8467H26.7544C27.9309 40.8467 29.1576 40.7446 30.0796 40.1304C31.3225 39.3008 31.4214 38.0287 31.4214 37.3935V35.5494C31.7406 35.8087 32.136 36.1555 32.6205 36.6221C33.2071 37.2087 33.6738 37.7176 34.074 38.1616L34.2879 38.3982C34.5991 38.7449 34.9053 39.0868 35.184 39.3672C35.5341 39.7188 35.9667 40.1061 36.508 40.3929C37.0962 40.7024 37.7136 40.8434 38.3682 40.8434H42.0645C42.8439 40.8434 43.9604 40.6587 44.7463 39.748C45.6019 38.7563 45.5371 37.5393 45.2681 36.6659L45.2195 36.5087L45.1466 36.3612ZM35.8776 36.533C35.3755 35.9715 34.8583 35.4236 34.3268 34.8899L34.322 34.885C32.123 32.7655 31.0973 32.3976 30.3713 32.3976C29.984 32.3976 29.5578 32.4398 29.2807 32.7865C29.1575 32.9528 29.0758 33.1462 29.0425 33.3504C29.0039 33.5883 28.9865 33.829 28.9907 34.0699V37.3935C28.9907 37.8067 28.9226 37.9801 28.7314 38.1065C28.477 38.2766 27.9341 38.4144 26.769 38.4144C24.5558 38.2638 22.41 37.59 20.5079 36.4486C18.6058 35.3071 17.0018 33.7304 15.8277 31.8483L15.8148 31.8272L15.7986 31.8078C12.976 28.2975 11.0098 24.178 10.0557 19.7759C10.0622 19.5653 10.1075 19.4372 10.1821 19.3595C10.2582 19.2784 10.4446 19.165 10.9178 19.165H14.6124C15.0224 19.165 15.2363 19.2557 15.3902 19.3935C15.562 19.5523 15.7143 19.8197 15.8958 20.2961C16.8032 22.9633 18.0283 25.4588 19.1902 27.2932C19.7703 28.2088 20.3407 28.972 20.856 29.5116C21.1136 29.7806 21.3648 30.0042 21.6063 30.163C21.838 30.3153 22.1021 30.4369 22.3744 30.4369C22.517 30.4369 22.6839 30.4207 22.8443 30.351C23.0178 30.2748 23.1605 30.1423 23.2494 29.975C23.4163 29.6704 23.4633 29.2215 23.4633 28.6333V23.1675C23.3774 21.842 22.9772 21.095 22.5883 20.5651C22.5094 20.4592 22.4283 20.3549 22.3452 20.2523L22.3241 20.2264C22.2553 20.1422 22.1894 20.0557 22.1264 19.9671C22.0475 19.8675 21.9996 19.7469 21.9887 19.6204C22.0014 19.4916 22.0628 19.3725 22.1605 19.2876C22.2581 19.2026 22.3844 19.1582 22.5137 19.1634H28.3392C28.6731 19.1634 28.7849 19.2444 28.8416 19.3206C28.9226 19.4259 28.9907 19.6447 28.9907 20.1049V27.4423C28.9907 28.3141 29.3925 28.9039 29.9759 28.9039C30.6468 28.9039 31.1313 28.4972 31.9772 27.6513L31.9917 27.6351L32.0047 27.6205C33.9024 25.3071 35.4527 22.7294 36.6068 19.9687L36.6133 19.9493C36.6996 19.7051 36.8636 19.4959 37.0802 19.354C37.2968 19.212 37.5541 19.145 37.8124 19.1634H41.5395C42.045 19.1634 42.2103 19.293 42.2654 19.3692C42.3221 19.4502 42.3626 19.6236 42.2654 19.9639C40.9345 22.9397 39.2891 25.7646 37.3571 28.3902L37.3441 28.4097C37.1578 28.6965 36.952 29.0141 36.9228 29.3771C36.8904 29.7692 37.0589 30.1241 37.3554 30.5066C37.571 30.8242 38.0166 31.2601 38.4687 31.7024L38.5108 31.7446C38.984 32.208 39.4977 32.7104 39.9093 33.1965L39.9206 33.2078L39.932 33.2208C41.1591 34.4452 42.1798 35.8604 42.9541 37.4113C43.0773 37.8326 43.0027 38.0498 42.9055 38.1616C42.7937 38.2912 42.5425 38.4127 42.0661 38.4127H38.3682C38.1161 38.4196 37.8666 38.361 37.6439 38.2426C37.3712 38.0829 37.1234 37.8842 36.9082 37.6528C36.6765 37.421 36.4253 37.1407 36.1174 36.7988L35.8776 36.533Z" fill="#CF4F00"/>
</g>
<circle cx="27.5" cy="27.5" r="26.5" stroke="#CF4F00" stroke-width="2"/>
<defs>
<clipPath id="clip0_958_43747">
<rect width="38.8909" height="38.8909" fill="white" transform="translate(7.21875 9.03125)"/>
</clipPath>
</defs>
</svg>
