<svg width="298" height="80" viewBox="0 0 298 80" fill="none" xmlns="http://www.w3.org/2000/svg">
<rect x="2" y="2" width="294" height="76" rx="38" stroke="#EF5C00" stroke-width="4"/>
<path d="M85.32 48.5L81.312 43.22L77.28 48.5H75.36L80.352 42.02L75.6 35.876H77.52L81.312 40.82L85.104 35.876H86.976L82.224 42.02L87.264 48.5H85.32ZM100.934 35.876V48.5H99.3024V46.196C98.8544 46.964 98.2384 47.564 97.4544 47.996C96.6704 48.412 95.7744 48.62 94.7664 48.62C93.1024 48.62 91.7904 48.164 90.8304 47.252C89.8864 46.324 89.4144 44.972 89.4144 43.196V35.876H91.1184V43.028C91.1184 44.356 91.4464 45.364 92.1024 46.052C92.7584 46.74 93.7024 47.084 94.9344 47.084C96.2624 47.084 97.3104 46.684 98.0784 45.884C98.8464 45.068 99.2304 43.94 99.2304 42.5V35.876H100.934ZM121.527 35.78C123.111 35.78 124.351 36.236 125.247 37.148C126.159 38.06 126.615 39.404 126.615 41.18V48.5H124.911V41.348C124.911 40.036 124.591 39.036 123.951 38.348C123.327 37.66 122.439 37.316 121.287 37.316C119.975 37.316 118.943 37.724 118.191 38.54C117.439 39.34 117.063 40.452 117.063 41.876V48.5H115.359V41.348C115.359 40.036 115.039 39.036 114.399 38.348C113.775 37.66 112.879 37.316 111.711 37.316C110.415 37.316 109.383 37.724 108.615 38.54C107.863 39.34 107.487 40.452 107.487 41.876V48.5H105.783V35.876H107.415V38.18C107.863 37.412 108.487 36.82 109.287 36.404C110.087 35.988 111.007 35.78 112.047 35.78C113.103 35.78 114.015 36.004 114.783 36.452C115.567 36.9 116.151 37.564 116.535 38.444C116.999 37.612 117.663 36.964 118.527 36.5C119.407 36.02 120.407 35.78 121.527 35.78ZM142.634 48.62C141.386 48.62 140.266 48.348 139.274 47.804C138.298 47.26 137.53 46.5 136.97 45.524C136.41 44.532 136.13 43.42 136.13 42.188C136.13 40.956 136.41 39.852 136.97 38.876C137.53 37.9 138.298 37.14 139.274 36.596C140.266 36.052 141.386 35.78 142.634 35.78C143.722 35.78 144.69 35.996 145.538 36.428C146.402 36.844 147.082 37.46 147.578 38.276L146.306 39.14C145.89 38.516 145.362 38.052 144.722 37.748C144.082 37.428 143.386 37.268 142.634 37.268C141.722 37.268 140.898 37.476 140.162 37.892C139.442 38.292 138.874 38.868 138.458 39.62C138.058 40.372 137.858 41.228 137.858 42.188C137.858 43.164 138.058 44.028 138.458 44.78C138.874 45.516 139.442 46.092 140.162 46.508C140.898 46.908 141.722 47.108 142.634 47.108C143.386 47.108 144.082 46.956 144.722 46.652C145.362 46.348 145.89 45.884 146.306 45.26L147.578 46.124C147.082 46.94 146.402 47.564 145.538 47.996C144.674 48.412 143.706 48.62 142.634 48.62ZM156.018 47.108C156.802 47.108 157.522 46.972 158.178 46.7C158.85 46.412 159.418 45.996 159.882 45.452L160.842 46.556C160.282 47.228 159.586 47.74 158.754 48.092C157.922 48.444 157.002 48.62 155.994 48.62C154.698 48.62 153.546 48.348 152.538 47.804C151.53 47.244 150.746 46.476 150.186 45.5C149.626 44.524 149.346 43.42 149.346 42.188C149.346 40.956 149.61 39.852 150.138 38.876C150.682 37.9 151.426 37.14 152.37 36.596C153.314 36.052 154.386 35.78 155.586 35.78C156.706 35.78 157.714 36.036 158.61 36.548C159.522 37.06 160.242 37.772 160.77 38.684C161.314 39.596 161.602 40.636 161.634 41.804L151.266 43.82C151.586 44.844 152.162 45.652 152.994 46.244C153.842 46.82 154.85 47.108 156.018 47.108ZM155.586 37.244C154.706 37.244 153.914 37.452 153.21 37.868C152.522 38.268 151.978 38.836 151.578 39.572C151.194 40.292 151.002 41.124 151.002 42.068C151.002 42.308 151.01 42.484 151.026 42.596L159.93 40.868C159.738 39.812 159.25 38.948 158.466 38.276C157.682 37.588 156.722 37.244 155.586 37.244ZM170.943 41.924C171.839 42.132 172.527 42.492 173.007 43.004C173.503 43.516 173.751 44.14 173.751 44.876C173.751 45.612 173.495 46.268 172.983 46.844C172.487 47.42 171.807 47.868 170.943 48.188C170.079 48.492 169.127 48.644 168.087 48.644C167.175 48.644 166.279 48.516 165.399 48.26C164.519 47.988 163.751 47.596 163.095 47.084L163.671 45.812C164.247 46.244 164.919 46.58 165.687 46.82C166.455 47.06 167.231 47.18 168.015 47.18C169.183 47.18 170.135 46.964 170.871 46.532C171.623 46.084 171.999 45.484 171.999 44.732C171.999 44.06 171.695 43.54 171.087 43.172C170.479 42.788 169.647 42.596 168.591 42.596H166.431V41.348H168.495C169.439 41.348 170.199 41.172 170.775 40.82C171.351 40.452 171.639 39.964 171.639 39.356C171.639 38.684 171.311 38.156 170.655 37.772C170.015 37.388 169.175 37.196 168.135 37.196C166.775 37.196 165.431 37.54 164.103 38.228L163.623 36.908C165.127 36.124 166.687 35.732 168.303 35.732C169.263 35.732 170.127 35.876 170.895 36.164C171.679 36.436 172.287 36.828 172.719 37.34C173.167 37.852 173.391 38.444 173.391 39.116C173.391 39.756 173.167 40.324 172.719 40.82C172.287 41.316 171.695 41.684 170.943 41.924ZM182.827 48.62C181.611 48.62 180.515 48.348 179.539 47.804C178.563 47.244 177.795 46.476 177.235 45.5C176.675 44.524 176.395 43.42 176.395 42.188C176.395 40.956 176.675 39.852 177.235 38.876C177.795 37.9 178.563 37.14 179.539 36.596C180.515 36.052 181.611 35.78 182.827 35.78C184.043 35.78 185.139 36.052 186.115 36.596C187.091 37.14 187.851 37.9 188.395 38.876C188.955 39.852 189.235 40.956 189.235 42.188C189.235 43.42 188.955 44.524 188.395 45.5C187.851 46.476 187.091 47.244 186.115 47.804C185.139 48.348 184.043 48.62 182.827 48.62ZM182.827 47.108C183.723 47.108 184.523 46.908 185.227 46.508C185.947 46.092 186.507 45.508 186.907 44.756C187.307 44.004 187.507 43.148 187.507 42.188C187.507 41.228 187.307 40.372 186.907 39.62C186.507 38.868 185.947 38.292 185.227 37.892C184.523 37.476 183.723 37.268 182.827 37.268C181.931 37.268 181.123 37.476 180.403 37.892C179.699 38.292 179.139 38.868 178.723 39.62C178.323 40.372 178.123 41.228 178.123 42.188C178.123 43.148 178.323 44.004 178.723 44.756C179.139 45.508 179.699 46.092 180.403 46.508C181.123 46.908 181.931 47.108 182.827 47.108ZM192.877 35.876H194.581V41.468H202.525V35.876H204.229V48.5H202.525V42.932H194.581V48.5H192.877V35.876ZM220.544 35.876V48.5H218.912V46.004C218.4 46.852 217.72 47.5 216.872 47.948C216.04 48.396 215.096 48.62 214.04 48.62C212.856 48.62 211.784 48.348 210.824 47.804C209.864 47.26 209.112 46.5 208.568 45.524C208.024 44.548 207.752 43.436 207.752 42.188C207.752 40.94 208.024 39.828 208.568 38.852C209.112 37.876 209.864 37.124 210.824 36.596C211.784 36.052 212.856 35.78 214.04 35.78C215.064 35.78 215.984 35.996 216.8 36.428C217.632 36.844 218.312 37.46 218.84 38.276V35.876H220.544ZM214.184 47.108C215.064 47.108 215.856 46.908 216.56 46.508C217.28 46.092 217.84 45.508 218.24 44.756C218.656 44.004 218.864 43.148 218.864 42.188C218.864 41.228 218.656 40.372 218.24 39.62C217.84 38.868 217.28 38.292 216.56 37.892C215.856 37.476 215.064 37.268 214.184 37.268C213.288 37.268 212.48 37.476 211.76 37.892C211.056 38.292 210.496 38.868 210.08 39.62C209.68 40.372 209.48 41.228 209.48 42.188C209.48 43.148 209.68 44.004 210.08 44.756C210.496 45.508 211.056 46.092 211.76 46.508C212.48 46.908 213.288 47.108 214.184 47.108Z" fill="black"/>
</svg>
