<svg width="294" height="80" viewBox="0 0 294 80" fill="none" xmlns="http://www.w3.org/2000/svg">
<rect x="2" y="2" width="290" height="76" rx="38" stroke="#EF5C00" stroke-width="4"/>
<path d="M88.896 35.876V48.5H87.264V46.004C86.752 46.852 86.072 47.5 85.224 47.948C84.392 48.396 83.448 48.62 82.392 48.62C81.208 48.62 80.136 48.348 79.176 47.804C78.216 47.26 77.464 46.5 76.92 45.524C76.376 44.548 76.104 43.436 76.104 42.188C76.104 40.94 76.376 39.828 76.92 38.852C77.464 37.876 78.216 37.124 79.176 36.596C80.136 36.052 81.208 35.78 82.392 35.78C83.416 35.78 84.336 35.996 85.152 36.428C85.984 36.844 86.664 37.46 87.192 38.276V35.876H88.896ZM82.536 47.108C83.416 47.108 84.208 46.908 84.912 46.508C85.632 46.092 86.192 45.508 86.592 44.756C87.008 44.004 87.216 43.148 87.216 42.188C87.216 41.228 87.008 40.372 86.592 39.62C86.192 38.868 85.632 38.292 84.912 37.892C84.208 37.476 83.416 37.268 82.536 37.268C81.64 37.268 80.832 37.476 80.112 37.892C79.408 38.292 78.848 38.868 78.432 39.62C78.032 40.372 77.832 41.228 77.832 42.188C77.832 43.148 78.032 44.004 78.432 44.756C78.848 45.508 79.408 46.092 80.112 46.508C80.832 46.908 81.64 47.108 82.536 47.108ZM101.73 41.972C103.442 42.372 104.298 43.404 104.298 45.068C104.298 46.172 103.89 47.02 103.074 47.612C102.258 48.204 101.042 48.5 99.4256 48.5H93.6896V35.876H99.2576C100.698 35.876 101.826 36.156 102.642 36.716C103.458 37.276 103.866 38.076 103.866 39.116C103.866 39.804 103.674 40.396 103.29 40.892C102.922 41.372 102.402 41.732 101.73 41.972ZM95.3456 41.492H99.1376C100.114 41.492 100.858 41.308 101.37 40.94C101.898 40.572 102.162 40.036 102.162 39.332C102.162 38.628 101.898 38.1 101.37 37.748C100.858 37.396 100.114 37.22 99.1376 37.22H95.3456V41.492ZM99.3536 47.156C100.442 47.156 101.258 46.98 101.802 46.628C102.346 46.276 102.618 45.724 102.618 44.972C102.618 44.22 102.37 43.668 101.874 43.316C101.378 42.948 100.594 42.764 99.5216 42.764H95.3456V47.156H99.3536ZM124.035 35.78C125.619 35.78 126.859 36.236 127.755 37.148C128.667 38.06 129.123 39.404 129.123 41.18V48.5H127.419V41.348C127.419 40.036 127.099 39.036 126.459 38.348C125.835 37.66 124.947 37.316 123.795 37.316C122.483 37.316 121.451 37.724 120.699 38.54C119.947 39.34 119.571 40.452 119.571 41.876V48.5H117.867V41.348C117.867 40.036 117.547 39.036 116.907 38.348C116.283 37.66 115.387 37.316 114.219 37.316C112.923 37.316 111.891 37.724 111.123 38.54C110.371 39.34 109.995 40.452 109.995 41.876V48.5H108.291V35.876H109.923V38.18C110.371 37.412 110.995 36.82 111.795 36.404C112.595 35.988 113.515 35.78 114.555 35.78C115.611 35.78 116.523 36.004 117.291 36.452C118.075 36.9 118.659 37.564 119.043 38.444C119.507 37.612 120.171 36.964 121.035 36.5C121.915 36.02 122.915 35.78 124.035 35.78ZM138.788 48.62C137.572 48.62 136.476 48.348 135.5 47.804C134.524 47.244 133.756 46.476 133.196 45.5C132.636 44.524 132.356 43.42 132.356 42.188C132.356 40.956 132.636 39.852 133.196 38.876C133.756 37.9 134.524 37.14 135.5 36.596C136.476 36.052 137.572 35.78 138.788 35.78C140.004 35.78 141.1 36.052 142.076 36.596C143.052 37.14 143.812 37.9 144.356 38.876C144.916 39.852 145.196 40.956 145.196 42.188C145.196 43.42 144.916 44.524 144.356 45.5C143.812 46.476 143.052 47.244 142.076 47.804C141.1 48.348 140.004 48.62 138.788 48.62ZM138.788 47.108C139.684 47.108 140.484 46.908 141.188 46.508C141.908 46.092 142.468 45.508 142.868 44.756C143.268 44.004 143.468 43.148 143.468 42.188C143.468 41.228 143.268 40.372 142.868 39.62C142.468 38.868 141.908 38.292 141.188 37.892C140.484 37.476 139.684 37.268 138.788 37.268C137.892 37.268 137.084 37.476 136.364 37.892C135.66 38.292 135.1 38.868 134.684 39.62C134.284 40.372 134.084 41.228 134.084 42.188C134.084 43.148 134.284 44.004 134.684 44.756C135.1 45.508 135.66 46.092 136.364 46.508C137.084 46.908 137.892 47.108 138.788 47.108ZM154.646 35.78C155.878 35.78 156.974 36.052 157.934 36.596C158.894 37.14 159.638 37.9 160.166 38.876C160.71 39.852 160.982 40.964 160.982 42.212C160.982 43.46 160.718 44.572 160.19 45.548C159.662 46.508 158.926 47.26 157.982 47.804C157.054 48.348 155.99 48.62 154.79 48.62C153.734 48.62 152.79 48.412 151.958 47.996C151.142 47.564 150.478 46.948 149.966 46.148V53.156H148.262V42.236C148.262 40.972 148.526 39.852 149.054 38.876C149.598 37.9 150.35 37.14 151.31 36.596C152.286 36.052 153.398 35.78 154.646 35.78ZM154.598 47.132C155.494 47.132 156.302 46.924 157.022 46.508C157.742 46.092 158.302 45.508 158.702 44.756C159.102 44.004 159.302 43.156 159.302 42.212C159.302 41.268 159.102 40.42 158.702 39.668C158.302 38.916 157.742 38.332 157.022 37.916C156.302 37.484 155.494 37.268 154.598 37.268C153.702 37.268 152.894 37.476 152.174 37.892C151.47 38.308 150.918 38.892 150.518 39.644C150.134 40.38 149.942 41.228 149.942 42.188C149.942 43.148 150.134 44.004 150.518 44.756C150.918 45.508 151.47 46.092 152.174 46.508C152.894 46.924 153.702 47.132 154.598 47.132ZM169.938 48.62C168.69 48.62 167.57 48.348 166.578 47.804C165.602 47.26 164.834 46.5 164.274 45.524C163.714 44.532 163.434 43.42 163.434 42.188C163.434 40.956 163.714 39.852 164.274 38.876C164.834 37.9 165.602 37.14 166.578 36.596C167.57 36.052 168.69 35.78 169.938 35.78C171.026 35.78 171.994 35.996 172.842 36.428C173.706 36.844 174.386 37.46 174.882 38.276L173.61 39.14C173.194 38.516 172.666 38.052 172.026 37.748C171.386 37.428 170.69 37.268 169.938 37.268C169.026 37.268 168.202 37.476 167.466 37.892C166.746 38.292 166.178 38.868 165.762 39.62C165.362 40.372 165.162 41.228 165.162 42.188C165.162 43.164 165.362 44.028 165.762 44.78C166.178 45.516 166.746 46.092 167.466 46.508C168.202 46.908 169.026 47.108 169.938 47.108C170.69 47.108 171.386 46.956 172.026 46.652C172.666 46.348 173.194 45.884 173.61 45.26L174.882 46.124C174.386 46.94 173.706 47.564 172.842 47.996C171.978 48.412 171.01 48.62 169.938 48.62ZM182.766 42.884H179.886V48.5H178.182V35.876H179.886V41.42H182.79L187.23 35.876H189.078L184.11 41.996L189.438 48.5H187.422L182.766 42.884ZM196.89 48.62C195.674 48.62 194.578 48.348 193.602 47.804C192.626 47.244 191.858 46.476 191.298 45.5C190.738 44.524 190.458 43.42 190.458 42.188C190.458 40.956 190.738 39.852 191.298 38.876C191.858 37.9 192.626 37.14 193.602 36.596C194.578 36.052 195.674 35.78 196.89 35.78C198.106 35.78 199.202 36.052 200.178 36.596C201.154 37.14 201.914 37.9 202.458 38.876C203.018 39.852 203.298 40.956 203.298 42.188C203.298 43.42 203.018 44.524 202.458 45.5C201.914 46.476 201.154 47.244 200.178 47.804C199.202 48.348 198.106 48.62 196.89 48.62ZM196.89 47.108C197.786 47.108 198.586 46.908 199.29 46.508C200.01 46.092 200.57 45.508 200.97 44.756C201.37 44.004 201.57 43.148 201.57 42.188C201.57 41.228 201.37 40.372 200.97 39.62C200.57 38.868 200.01 38.292 199.29 37.892C198.586 37.476 197.786 37.268 196.89 37.268C195.994 37.268 195.186 37.476 194.466 37.892C193.762 38.292 193.202 38.868 192.786 39.62C192.386 40.372 192.186 41.228 192.186 42.188C192.186 43.148 192.386 44.004 192.786 44.756C193.202 45.508 193.762 46.092 194.466 46.508C195.186 46.908 195.994 47.108 196.89 47.108ZM212.292 47.108C213.076 47.108 213.796 46.972 214.452 46.7C215.124 46.412 215.692 45.996 216.156 45.452L217.116 46.556C216.556 47.228 215.86 47.74 215.028 48.092C214.196 48.444 213.276 48.62 212.268 48.62C210.972 48.62 209.82 48.348 208.812 47.804C207.804 47.244 207.02 46.476 206.46 45.5C205.9 44.524 205.62 43.42 205.62 42.188C205.62 40.956 205.884 39.852 206.412 38.876C206.956 37.9 207.7 37.14 208.644 36.596C209.588 36.052 210.66 35.78 211.86 35.78C212.98 35.78 213.988 36.036 214.884 36.548C215.796 37.06 216.516 37.772 217.044 38.684C217.588 39.596 217.876 40.636 217.908 41.804L207.54 43.82C207.86 44.844 208.436 45.652 209.268 46.244C210.116 46.82 211.124 47.108 212.292 47.108ZM211.86 37.244C210.98 37.244 210.188 37.452 209.484 37.868C208.796 38.268 208.252 38.836 207.852 39.572C207.468 40.292 207.276 41.124 207.276 42.068C207.276 42.308 207.284 42.484 207.3 42.596L216.204 40.868C216.012 39.812 215.524 38.948 214.74 38.276C213.956 37.588 212.996 37.244 211.86 37.244Z" fill="black"/>
</svg>
