<svg width="209" height="80" viewBox="0 0 209 80" fill="none" xmlns="http://www.w3.org/2000/svg">
<rect x="2" y="2" width="205" height="76" rx="38" stroke="#EF5C00" stroke-width="4"/>
<path d="M83.544 36.188C84.712 36.188 85.752 36.452 86.664 36.98C87.592 37.492 88.312 38.22 88.824 39.164C89.336 40.092 89.592 41.156 89.592 42.356C89.592 43.588 89.32 44.684 88.776 45.644C88.248 46.588 87.504 47.324 86.544 47.852C85.584 48.38 84.48 48.644 83.232 48.644C81.136 48.644 79.512 47.908 78.36 46.436C77.208 44.964 76.632 42.932 76.632 40.34C76.632 37.636 77.144 35.564 78.168 34.124C79.208 32.684 80.824 31.708 83.016 31.196L88.68 29.9L88.968 31.46L83.64 32.684C81.832 33.084 80.504 33.796 79.656 34.82C78.808 35.828 78.344 37.324 78.264 39.308C78.776 38.332 79.488 37.572 80.4 37.028C81.312 36.468 82.36 36.188 83.544 36.188ZM83.28 47.228C84.16 47.228 84.944 47.028 85.632 46.628C86.336 46.212 86.88 45.636 87.264 44.9C87.664 44.164 87.864 43.332 87.864 42.404C87.864 41.476 87.672 40.66 87.288 39.956C86.904 39.252 86.36 38.708 85.656 38.324C84.968 37.924 84.176 37.724 83.28 37.724C82.384 37.724 81.584 37.924 80.88 38.324C80.192 38.708 79.648 39.252 79.248 39.956C78.864 40.66 78.672 41.476 78.672 42.404C78.672 43.332 78.864 44.164 79.248 44.9C79.648 45.636 80.2 46.212 80.904 46.628C81.608 47.028 82.4 47.228 83.28 47.228ZM98.4523 48.62C97.2363 48.62 96.1403 48.348 95.1643 47.804C94.1883 47.244 93.4203 46.476 92.8603 45.5C92.3003 44.524 92.0203 43.42 92.0203 42.188C92.0203 40.956 92.3003 39.852 92.8603 38.876C93.4203 37.9 94.1883 37.14 95.1643 36.596C96.1403 36.052 97.2363 35.78 98.4523 35.78C99.6683 35.78 100.764 36.052 101.74 36.596C102.716 37.14 103.476 37.9 104.02 38.876C104.58 39.852 104.86 40.956 104.86 42.188C104.86 43.42 104.58 44.524 104.02 45.5C103.476 46.476 102.716 47.244 101.74 47.804C100.764 48.348 99.6683 48.62 98.4523 48.62ZM98.4523 47.108C99.3483 47.108 100.148 46.908 100.852 46.508C101.572 46.092 102.132 45.508 102.532 44.756C102.932 44.004 103.132 43.148 103.132 42.188C103.132 41.228 102.932 40.372 102.532 39.62C102.132 38.868 101.572 38.292 100.852 37.892C100.148 37.476 99.3483 37.268 98.4523 37.268C97.5563 37.268 96.7483 37.476 96.0283 37.892C95.3243 38.292 94.7643 38.868 94.3483 39.62C93.9483 40.372 93.7483 41.228 93.7483 42.188C93.7483 43.148 93.9483 44.004 94.3483 44.756C94.7643 45.508 95.3243 46.092 96.0283 46.508C96.7483 46.908 97.5563 47.108 98.4523 47.108ZM115.953 48.5L111.945 43.22L107.913 48.5H105.993L110.985 42.02L106.233 35.876H108.153L111.945 40.82L115.737 35.876H117.609L112.857 42.02L117.897 48.5H115.953ZM125.452 48.62C124.236 48.62 123.14 48.348 122.164 47.804C121.188 47.244 120.42 46.476 119.86 45.5C119.3 44.524 119.02 43.42 119.02 42.188C119.02 40.956 119.3 39.852 119.86 38.876C120.42 37.9 121.188 37.14 122.164 36.596C123.14 36.052 124.236 35.78 125.452 35.78C126.668 35.78 127.764 36.052 128.74 36.596C129.716 37.14 130.476 37.9 131.02 38.876C131.58 39.852 131.86 40.956 131.86 42.188C131.86 43.42 131.58 44.524 131.02 45.5C130.476 46.476 129.716 47.244 128.74 47.804C127.764 48.348 126.668 48.62 125.452 48.62ZM125.452 47.108C126.348 47.108 127.148 46.908 127.852 46.508C128.572 46.092 129.132 45.508 129.532 44.756C129.932 44.004 130.132 43.148 130.132 42.188C130.132 41.228 129.932 40.372 129.532 39.62C129.132 38.868 128.572 38.292 127.852 37.892C127.148 37.476 126.348 37.268 125.452 37.268C124.556 37.268 123.748 37.476 123.028 37.892C122.324 38.292 121.764 38.868 121.348 39.62C120.948 40.372 120.748 41.228 120.748 42.188C120.748 43.148 120.948 44.004 121.348 44.756C121.764 45.508 122.324 46.092 123.028 46.508C123.748 46.908 124.556 47.108 125.452 47.108Z" fill="black"/>
</svg>
