<svg width="106" height="34" viewBox="0 0 106 34" fill="none" xmlns="http://www.w3.org/2000/svg">
<rect width="106" height="34" rx="17" fill="#F5F5F5"/>
<path d="M31.7411 13.4V24H29.8211V15.08H23.8411V24H21.9211V13.4H31.7411ZM43.6962 13.4V24H41.7762V19.72C40.6296 20.2533 39.4896 20.52 38.3562 20.52C37.0362 20.52 36.0162 20.2133 35.2962 19.6C34.5762 18.9867 34.2162 18.0667 34.2162 16.84V13.4H36.1362V16.72C36.1362 17.4533 36.3629 18.0067 36.8162 18.38C37.2829 18.7533 37.9296 18.94 38.7562 18.94C39.6896 18.94 40.6962 18.7067 41.7762 18.24V13.4H43.6962ZM51.9437 22.44C53.2104 22.44 54.2304 22.0133 55.0037 21.16L56.0437 22.4C55.5771 22.96 54.9837 23.3867 54.2637 23.68C53.5571 23.9733 52.7637 24.12 51.8837 24.12C50.7637 24.12 49.7704 23.8933 48.9037 23.44C48.0371 22.9733 47.3637 22.3267 46.8837 21.5C46.4171 20.6733 46.1837 19.74 46.1837 18.7C46.1837 17.6733 46.4104 16.7467 46.8637 15.92C47.3304 15.0933 47.9637 14.4533 48.7637 14C49.5771 13.5333 50.4904 13.3 51.5037 13.3C52.4637 13.3 53.3371 13.52 54.1237 13.96C54.9104 14.3867 55.5371 14.9933 56.0037 15.78C56.4704 16.5667 56.7104 17.4733 56.7237 18.5L48.3037 20.14C48.5704 20.8733 49.0171 21.44 49.6437 21.84C50.2837 22.24 51.0504 22.44 51.9437 22.44ZM51.5037 14.92C50.8371 14.92 50.2371 15.0733 49.7037 15.38C49.1837 15.6867 48.7771 16.12 48.4837 16.68C48.1904 17.2267 48.0437 17.8667 48.0437 18.6V18.8L54.8237 17.52C54.6504 16.7467 54.2637 16.12 53.6637 15.64C53.0637 15.16 52.3437 14.92 51.5037 14.92ZM68.1541 13.4V24H66.2341V15.08H61.6741L61.5541 17.44C61.4874 18.8667 61.3607 20.06 61.1741 21.02C60.9874 21.9667 60.6807 22.7267 60.2541 23.3C59.8274 23.8733 59.2341 24.16 58.4741 24.16C58.1274 24.16 57.7341 24.1 57.2941 23.98L57.4141 22.36C57.5874 22.4 57.7474 22.42 57.8941 22.42C58.4274 22.42 58.8274 22.1867 59.0941 21.72C59.3607 21.2533 59.5341 20.7 59.6141 20.06C59.6941 19.42 59.7674 18.5067 59.8341 17.32L60.0141 13.4H68.1541ZM76.0466 24.24C74.5266 24.24 73.3666 23.88 72.5666 23.16C71.7799 22.4267 71.3866 21.38 71.3866 20.02V13.4H73.3066V17.5C73.6132 17.1933 74.0399 16.9333 74.5866 16.72C75.1466 16.5067 75.7866 16.4 76.5066 16.4C77.7999 16.4 78.8066 16.7333 79.5266 17.4C80.2599 18.0533 80.6266 18.9733 80.6266 20.16C80.6266 21.4133 80.2132 22.4067 79.3866 23.14C78.5599 23.8733 77.4466 24.24 76.0466 24.24ZM82.1666 13.4H84.0866V24H82.1666V13.4ZM76.0666 22.78C76.8932 22.78 77.5332 22.54 77.9866 22.06C78.4532 21.5667 78.6866 20.94 78.6866 20.18C78.6866 19.4733 78.4532 18.9 77.9866 18.46C77.5199 18.02 76.8532 17.8 75.9866 17.8C75.3599 17.8 74.8132 17.9267 74.3466 18.18C73.8932 18.4333 73.5466 18.7867 73.3066 19.24V20.18C73.3066 20.9933 73.5399 21.6333 74.0066 22.1C74.4866 22.5533 75.1732 22.78 76.0666 22.78Z" fill="#222222"/>
</svg>
