<svg width="108" height="34" viewBox="0 0 108 34" fill="none" xmlns="http://www.w3.org/2000/svg">
<rect width="108" height="34" rx="17" fill="#F5F5F5"/>
<path d="M34.4966 13.4V24H32.7566V16.26L28.7966 22.8H27.9566L24.0366 16.24V24H22.2766V13.4H24.2566L28.4166 20.56L32.6966 13.4H34.4966ZM47.6736 13.4V24H45.8336V22.44C45.4469 22.9733 44.9403 23.3867 44.3136 23.68C43.6869 23.9733 43.0003 24.12 42.2536 24.12C40.8403 24.12 39.7269 23.7333 38.9136 22.96C38.1003 22.1733 37.6936 21.02 37.6936 19.5V13.4H39.6136V19.28C39.6136 20.3067 39.8603 21.0867 40.3536 21.62C40.8469 22.14 41.5536 22.4 42.4736 22.4C43.4869 22.4 44.2869 22.0933 44.8736 21.48C45.4603 20.8667 45.7536 20 45.7536 18.88V13.4H47.6736ZM60.292 13.4V24H58.372V15.08H53.812L53.692 17.44C53.6254 18.8667 53.4987 20.06 53.312 21.02C53.1254 21.9667 52.8187 22.7267 52.392 23.3C51.9654 23.8733 51.372 24.16 50.612 24.16C50.2654 24.16 49.872 24.1 49.432 23.98L49.552 22.36C49.7254 22.4 49.8854 22.42 50.032 22.42C50.5654 22.42 50.9654 22.1867 51.232 21.72C51.4987 21.2533 51.672 20.7 51.752 20.06C51.832 19.42 51.9054 18.5067 51.972 17.32L52.152 13.4H60.292ZM73.7445 13.4V24H71.9045V22.32C71.4779 22.9067 70.9379 23.3533 70.2845 23.66C69.6312 23.9667 68.9112 24.12 68.1245 24.12C67.0979 24.12 66.1779 23.8933 65.3645 23.44C64.5512 22.9867 63.9112 22.3533 63.4445 21.54C62.9912 20.7133 62.7645 19.7667 62.7645 18.7C62.7645 17.6333 62.9912 16.6933 63.4445 15.88C63.9112 15.0667 64.5512 14.4333 65.3645 13.98C66.1779 13.5267 67.0979 13.3 68.1245 13.3C68.8845 13.3 69.5845 13.4467 70.2245 13.74C70.8645 14.02 71.3979 14.44 71.8245 15V13.4H73.7445ZM68.2845 22.44C68.9512 22.44 69.5579 22.2867 70.1045 21.98C70.6512 21.66 71.0779 21.22 71.3845 20.66C71.6912 20.0867 71.8445 19.4333 71.8445 18.7C71.8445 17.9667 71.6912 17.32 71.3845 16.76C71.0779 16.1867 70.6512 15.7467 70.1045 15.44C69.5579 15.1333 68.9512 14.98 68.2845 14.98C67.6045 14.98 66.9912 15.1333 66.4445 15.44C65.9112 15.7467 65.4845 16.1867 65.1645 16.76C64.8579 17.32 64.7045 17.9667 64.7045 18.7C64.7045 19.4333 64.8579 20.0867 65.1645 20.66C65.4845 21.22 65.9112 21.66 66.4445 21.98C66.9912 22.2867 67.6045 22.44 68.2845 22.44ZM85.6973 13.4V24H83.9773V20.64H80.8973H80.6773L78.3573 24H76.2973L78.8773 20.38C78.0773 20.14 77.464 19.7467 77.0373 19.2C76.6107 18.64 76.3973 17.9467 76.3973 17.12C76.3973 15.9067 76.8107 14.9867 77.6373 14.36C78.464 13.72 79.604 13.4 81.0573 13.4H85.6973ZM78.3573 17.18C78.3573 17.8867 78.5773 18.4133 79.0173 18.76C79.4707 19.0933 80.144 19.26 81.0373 19.26H83.9773V15.08H81.1173C79.2773 15.08 78.3573 15.78 78.3573 17.18Z" fill="#222222"/>
</svg>
