<svg width="144" height="34" viewBox="0 0 144 34" fill="none" xmlns="http://www.w3.org/2000/svg">
<rect width="144" height="34" rx="17" fill="#F5F5F5"/>
<path d="M32.0379 13.4V24H30.1179V15.08H24.1379V24H22.2179V13.4H32.0379ZM45.373 13.4V22.56C45.373 24.4133 44.9397 25.78 44.073 26.66C43.2064 27.5533 41.9064 28 40.173 28C39.2264 28 38.3197 27.86 37.453 27.58C36.5997 27.3133 35.8997 26.9267 35.353 26.42L36.293 24.94C36.7597 25.3667 37.3197 25.7 37.973 25.94C38.6397 26.18 39.3397 26.3 40.073 26.3C41.233 26.3 42.0864 26.0067 42.633 25.42C43.1797 24.8467 43.453 23.96 43.453 22.76V21.98C43.0664 22.4867 42.5664 22.88 41.953 23.16C41.3397 23.4267 40.673 23.56 39.953 23.56C38.5397 23.56 37.4264 23.1733 36.613 22.4C35.7997 21.6267 35.393 20.48 35.393 18.96V13.4H37.313V18.74C37.313 19.7533 37.5597 20.5267 38.053 21.06C38.5464 21.58 39.253 21.84 40.173 21.84C41.1864 21.84 41.9864 21.5333 42.573 20.92C43.1597 20.3067 43.453 19.44 43.453 18.32V13.4H45.373ZM56.6482 15.08H50.7682V24H48.8482V13.4H56.6482V15.08ZM62.4651 24.12C61.4117 24.12 60.4651 23.8867 59.6251 23.42C58.7851 22.9533 58.1251 22.3133 57.6451 21.5C57.1784 20.6733 56.9451 19.74 56.9451 18.7C56.9451 17.66 57.1784 16.7333 57.6451 15.92C58.1251 15.0933 58.7851 14.4533 59.6251 14C60.4651 13.5333 61.4117 13.3 62.4651 13.3C63.5184 13.3 64.4584 13.5333 65.2851 14C66.1251 14.4533 66.7784 15.0933 67.2451 15.92C67.7251 16.7333 67.9651 17.66 67.9651 18.7C67.9651 19.74 67.7251 20.6733 67.2451 21.5C66.7784 22.3133 66.1251 22.9533 65.2851 23.42C64.4584 23.8867 63.5184 24.12 62.4651 24.12ZM62.4651 22.44C63.1451 22.44 63.7517 22.2867 64.2851 21.98C64.8317 21.66 65.2584 21.22 65.5651 20.66C65.8717 20.0867 66.0251 19.4333 66.0251 18.7C66.0251 17.9667 65.8717 17.32 65.5651 16.76C65.2584 16.1867 64.8317 15.7467 64.2851 15.44C63.7517 15.1333 63.1451 14.98 62.4651 14.98C61.7851 14.98 61.1717 15.1333 60.6251 15.44C60.0917 15.7467 59.6651 16.1867 59.3451 16.76C59.0384 17.32 58.8851 17.9667 58.8851 18.7C58.8851 19.4333 59.0384 20.0867 59.3451 20.66C59.6651 21.22 60.0917 21.66 60.6251 21.98C61.1717 22.2867 61.7851 22.44 62.4651 22.44ZM77.7376 18.5C79.1109 18.8467 79.7976 19.7067 79.7976 21.08C79.7976 22.0133 79.4442 22.7333 78.7376 23.24C78.0442 23.7467 77.0042 24 75.6176 24H70.5176V13.4H75.4376C76.6909 13.4 77.6709 13.64 78.3776 14.12C79.0842 14.5867 79.4376 15.2533 79.4376 16.12C79.4376 16.68 79.2842 17.1667 78.9776 17.58C78.6842 17.98 78.2709 18.2867 77.7376 18.5ZM72.3976 17.96H75.2776C76.0109 17.96 76.5642 17.8267 76.9376 17.56C77.3242 17.2933 77.5176 16.9067 77.5176 16.4C77.5176 15.3867 76.7709 14.88 75.2776 14.88H72.3976V17.96ZM75.4776 22.52C76.2776 22.52 76.8776 22.3933 77.2776 22.14C77.6776 21.8867 77.8776 21.4933 77.8776 20.96C77.8776 20.4133 77.6909 20.0067 77.3176 19.74C76.9576 19.4733 76.3842 19.34 75.5976 19.34H72.3976V22.52H75.4776ZM92.2427 13.4V24H90.4027V22.44C90.0161 22.9733 89.5094 23.3867 88.8827 23.68C88.2561 23.9733 87.5694 24.12 86.8227 24.12C85.4094 24.12 84.2961 23.7333 83.4827 22.96C82.6694 22.1733 82.2627 21.02 82.2627 19.5V13.4H84.1827V19.28C84.1827 20.3067 84.4294 21.0867 84.9227 21.62C85.4161 22.14 86.1227 22.4 87.0427 22.4C88.0561 22.4 88.8561 22.0933 89.4427 21.48C90.0294 20.8667 90.3227 20 90.3227 18.88V13.4H92.2427ZM107.081 22.32V26.54H105.261V24H95.7612V13.4H97.6812V22.32H103.481V13.4H105.401V22.32H107.081ZM113.75 24.24C112.23 24.24 111.07 23.88 110.27 23.16C109.483 22.4267 109.09 21.38 109.09 20.02V13.4H111.01V17.5C111.316 17.1933 111.743 16.9333 112.29 16.72C112.85 16.5067 113.49 16.4 114.21 16.4C115.503 16.4 116.51 16.7333 117.23 17.4C117.963 18.0533 118.33 18.9733 118.33 20.16C118.33 21.4133 117.916 22.4067 117.09 23.14C116.263 23.8733 115.15 24.24 113.75 24.24ZM119.87 13.4H121.79V24H119.87V13.4ZM113.77 22.78C114.596 22.78 115.236 22.54 115.69 22.06C116.156 21.5667 116.39 20.94 116.39 20.18C116.39 19.4733 116.156 18.9 115.69 18.46C115.223 18.02 114.556 17.8 113.69 17.8C113.063 17.8 112.516 17.9267 112.05 18.18C111.596 18.4333 111.25 18.7867 111.01 19.24V20.18C111.01 20.9933 111.243 21.6333 111.71 22.1C112.19 22.5533 112.876 22.78 113.77 22.78Z" fill="#222222"/>
</svg>
