<svg width="128" height="34" viewBox="0 0 128 34" fill="none" xmlns="http://www.w3.org/2000/svg">
<rect width="128" height="34" rx="17" fill="#F5F5F5"/>
<path d="M37.2815 13.4V24H22.1815V13.4H24.1015V22.32H28.7815V13.4H30.7015V22.32H35.3615V13.4H37.2815ZM45.5296 22.44C46.7963 22.44 47.8163 22.0133 48.5896 21.16L49.6296 22.4C49.1629 22.96 48.5696 23.3867 47.8496 23.68C47.1429 23.9733 46.3496 24.12 45.4696 24.12C44.3496 24.12 43.3563 23.8933 42.4896 23.44C41.6229 22.9733 40.9496 22.3267 40.4696 21.5C40.0029 20.6733 39.7696 19.74 39.7696 18.7C39.7696 17.6733 39.9963 16.7467 40.4496 15.92C40.9163 15.0933 41.5496 14.4533 42.3496 14C43.1629 13.5333 44.0763 13.3 45.0896 13.3C46.0496 13.3 46.9229 13.52 47.7096 13.96C48.4963 14.3867 49.1229 14.9933 49.5896 15.78C50.0563 16.5667 50.2963 17.4733 50.3096 18.5L41.8896 20.14C42.1563 20.8733 42.6029 21.44 43.2296 21.84C43.8696 22.24 44.6363 22.44 45.5296 22.44ZM45.0896 14.92C44.4229 14.92 43.8229 15.0733 43.2896 15.38C42.7696 15.6867 42.3629 16.12 42.0696 16.68C41.7763 17.2267 41.6296 17.8667 41.6296 18.6V18.8L48.4096 17.52C48.2363 16.7467 47.8496 16.12 47.2496 15.64C46.6496 15.16 45.9296 14.92 45.0896 14.92ZM57.8557 13.3C58.9224 13.3 59.8624 13.5267 60.6757 13.98C61.5024 14.4333 62.1357 15.0733 62.5757 15.9C63.029 16.7133 63.2557 17.6533 63.2557 18.72C63.2557 19.7733 63.0357 20.7133 62.5957 21.54C62.1557 22.3533 61.5424 22.9867 60.7557 23.44C59.969 23.8933 59.069 24.12 58.0557 24.12C57.2557 24.12 56.5357 23.98 55.8957 23.7C55.2557 23.4067 54.7224 22.9867 54.2957 22.44V27.88H52.3557V18.74C52.3557 17.6733 52.5824 16.7267 53.0357 15.9C53.5024 15.0733 54.149 14.4333 54.9757 13.98C55.8157 13.5267 56.7757 13.3 57.8557 13.3ZM57.7957 22.44C58.4757 22.44 59.089 22.2867 59.6357 21.98C60.1824 21.66 60.6024 21.22 60.8957 20.66C61.2024 20.0867 61.3557 19.44 61.3557 18.72C61.3557 18 61.2024 17.36 60.8957 16.8C60.6024 16.2267 60.1824 15.78 59.6357 15.46C59.1024 15.14 58.489 14.98 57.7957 14.98C56.7424 14.98 55.889 15.3267 55.2357 16.02C54.5824 16.7 54.2557 17.5933 54.2557 18.7C54.2557 19.4333 54.4024 20.0867 54.6957 20.66C55.0024 21.22 55.4224 21.66 55.9557 21.98C56.489 22.2867 57.1024 22.44 57.7957 22.44ZM70.4579 24.12C69.3779 24.12 68.4112 23.8867 67.5579 23.42C66.7179 22.9533 66.0579 22.3133 65.5779 21.5C65.0979 20.6733 64.8579 19.74 64.8579 18.7C64.8579 17.66 65.0979 16.7333 65.5779 15.92C66.0579 15.0933 66.7179 14.4533 67.5579 14C68.4112 13.5333 69.3779 13.3 70.4579 13.3C71.4179 13.3 72.2712 13.4933 73.0179 13.88C73.7779 14.2667 74.3646 14.8267 74.7779 15.56L73.3179 16.5C72.9846 15.9933 72.5712 15.6133 72.0779 15.36C71.5846 15.1067 71.0379 14.98 70.4379 14.98C69.7446 14.98 69.1179 15.1333 68.5579 15.44C68.0112 15.7467 67.5779 16.1867 67.2579 16.76C66.9512 17.32 66.7979 17.9667 66.7979 18.7C66.7979 19.4467 66.9512 20.1067 67.2579 20.68C67.5779 21.24 68.0112 21.6733 68.5579 21.98C69.1179 22.2867 69.7446 22.44 70.4379 22.44C71.0379 22.44 71.5846 22.3133 72.0779 22.06C72.5712 21.8067 72.9846 21.4267 73.3179 20.92L74.7779 21.84C74.3646 22.5733 73.7779 23.14 73.0179 23.54C72.2712 23.9267 71.4179 24.12 70.4579 24.12ZM90.3037 13.3C91.637 13.3 92.6903 13.6867 93.4637 14.46C94.2503 15.2333 94.6437 16.38 94.6437 17.9V24H92.7237V18.12C92.7237 17.0933 92.4837 16.32 92.0037 15.8C91.537 15.28 90.8637 15.02 89.9837 15.02C89.0103 15.02 88.237 15.3267 87.6637 15.94C87.0903 16.54 86.8037 17.4067 86.8037 18.54V24H84.8837V18.12C84.8837 17.0933 84.6437 16.32 84.1637 15.8C83.697 15.28 83.0237 15.02 82.1437 15.02C81.1703 15.02 80.397 15.3267 79.8237 15.94C79.2503 16.54 78.9637 17.4067 78.9637 18.54V24H77.0437V13.4H78.8837V14.98C79.2703 14.4333 79.777 14.02 80.4037 13.74C81.0303 13.4467 81.7437 13.3 82.5437 13.3C83.3703 13.3 84.1037 13.4667 84.7437 13.8C85.3837 14.1333 85.877 14.62 86.2237 15.26C86.6237 14.6467 87.177 14.1667 87.8837 13.82C88.6037 13.4733 89.4103 13.3 90.3037 13.3ZM102.259 24.24C100.753 24.24 99.5926 23.8733 98.7793 23.14C97.9793 22.4067 97.5793 21.3667 97.5793 20.02V13.4H99.4993V17.5C99.846 17.1533 100.313 16.8867 100.899 16.7C101.499 16.5 102.146 16.4 102.839 16.4C104.159 16.4 105.186 16.7333 105.919 17.4C106.653 18.0667 107.019 18.9867 107.019 20.16C107.019 21.4267 106.599 22.4267 105.759 23.16C104.919 23.88 103.753 24.24 102.259 24.24ZM102.279 22.78C103.146 22.78 103.826 22.5467 104.319 22.08C104.813 21.6133 105.059 20.9867 105.059 20.2C105.059 19.4533 104.819 18.8667 104.339 18.44C103.859 18.0133 103.186 17.8 102.319 17.8C101.679 17.8 101.113 17.9267 100.619 18.18C100.126 18.4333 99.7526 18.7867 99.4993 19.24V20.18C99.4993 20.9933 99.746 21.6333 100.239 22.1C100.733 22.5533 101.413 22.78 102.279 22.78Z" fill="#222222"/>
</svg>
