<svg width="178" height="34" viewBox="0 0 178 34" fill="none" xmlns="http://www.w3.org/2000/svg">
<rect width="178" height="34" rx="17" fill="#F5F5F5"/>
<path d="M31.9923 13.4V24H30.0723V15.08H24.0923V24H22.1723V13.4H31.9923ZM45.4474 13.4V24H43.6074V22.32C43.1808 22.9067 42.6408 23.3533 41.9874 23.66C41.3341 23.9667 40.6141 24.12 39.8274 24.12C38.8008 24.12 37.8808 23.8933 37.0674 23.44C36.2541 22.9867 35.6141 22.3533 35.1474 21.54C34.6941 20.7133 34.4674 19.7667 34.4674 18.7C34.4674 17.6333 34.6941 16.6933 35.1474 15.88C35.6141 15.0667 36.2541 14.4333 37.0674 13.98C37.8808 13.5267 38.8008 13.3 39.8274 13.3C40.5874 13.3 41.2874 13.4467 41.9274 13.74C42.5674 14.02 43.1008 14.44 43.5274 15V13.4H45.4474ZM39.9874 22.44C40.6541 22.44 41.2608 22.2867 41.8074 21.98C42.3541 21.66 42.7808 21.22 43.0874 20.66C43.3941 20.0867 43.5474 19.4333 43.5474 18.7C43.5474 17.9667 43.3941 17.32 43.0874 16.76C42.7808 16.1867 42.3541 15.7467 41.8074 15.44C41.2608 15.1333 40.6541 14.98 39.9874 14.98C39.3074 14.98 38.6941 15.1333 38.1474 15.44C37.6141 15.7467 37.1874 16.1867 36.8674 16.76C36.5608 17.32 36.4074 17.9667 36.4074 18.7C36.4074 19.4333 36.5608 20.0867 36.8674 20.66C37.1874 21.22 37.6141 21.66 38.1474 21.98C38.6941 22.2867 39.3074 22.44 39.9874 22.44ZM53.5202 24.12C52.4402 24.12 51.4736 23.8867 50.6202 23.42C49.7802 22.9533 49.1202 22.3133 48.6402 21.5C48.1602 20.6733 47.9202 19.74 47.9202 18.7C47.9202 17.66 48.1602 16.7333 48.6402 15.92C49.1202 15.0933 49.7802 14.4533 50.6202 14C51.4736 13.5333 52.4402 13.3 53.5202 13.3C54.4802 13.3 55.3336 13.4933 56.0802 13.88C56.8402 14.2667 57.4269 14.8267 57.8402 15.56L56.3802 16.5C56.0469 15.9933 55.6336 15.6133 55.1402 15.36C54.6469 15.1067 54.1002 14.98 53.5002 14.98C52.8069 14.98 52.1802 15.1333 51.6202 15.44C51.0736 15.7467 50.6402 16.1867 50.3202 16.76C50.0136 17.32 49.8602 17.9667 49.8602 18.7C49.8602 19.4467 50.0136 20.1067 50.3202 20.68C50.6402 21.24 51.0736 21.6733 51.6202 21.98C52.1802 22.2867 52.8069 22.44 53.5002 22.44C54.1002 22.44 54.6469 22.3133 55.1402 22.06C55.6336 21.8067 56.0469 21.4267 56.3802 20.92L57.8402 21.84C57.4269 22.5733 56.8402 23.14 56.0802 23.54C55.3336 23.9267 54.4802 24.12 53.5202 24.12ZM73.366 13.3C74.6993 13.3 75.7527 13.6867 76.526 14.46C77.3127 15.2333 77.706 16.38 77.706 17.9V24H75.786V18.12C75.786 17.0933 75.546 16.32 75.066 15.8C74.5993 15.28 73.926 15.02 73.046 15.02C72.0727 15.02 71.2993 15.3267 70.726 15.94C70.1527 16.54 69.866 17.4067 69.866 18.54V24H67.946V18.12C67.946 17.0933 67.706 16.32 67.226 15.8C66.7593 15.28 66.086 15.02 65.206 15.02C64.2327 15.02 63.4593 15.3267 62.886 15.94C62.3127 16.54 62.026 17.4067 62.026 18.54V24H60.106V13.4H61.946V14.98C62.3327 14.4333 62.8393 14.02 63.466 13.74C64.0927 13.4467 64.806 13.3 65.606 13.3C66.4327 13.3 67.166 13.4667 67.806 13.8C68.446 14.1333 68.9393 14.62 69.286 15.26C69.686 14.6467 70.2393 14.1667 70.946 13.82C71.666 13.4733 72.4727 13.3 73.366 13.3ZM85.6416 22.44C86.9083 22.44 87.9283 22.0133 88.7016 21.16L89.7416 22.4C89.275 22.96 88.6816 23.3867 87.9616 23.68C87.255 23.9733 86.4616 24.12 85.5816 24.12C84.4616 24.12 83.4683 23.8933 82.6016 23.44C81.735 22.9733 81.0616 22.3267 80.5816 21.5C80.115 20.6733 79.8816 19.74 79.8816 18.7C79.8816 17.6733 80.1083 16.7467 80.5616 15.92C81.0283 15.0933 81.6616 14.4533 82.4616 14C83.275 13.5333 84.1883 13.3 85.2016 13.3C86.1616 13.3 87.035 13.52 87.8216 13.96C88.6083 14.3867 89.235 14.9933 89.7016 15.78C90.1683 16.5667 90.4083 17.4733 90.4216 18.5L82.0016 20.14C82.2683 20.8733 82.715 21.44 83.3416 21.84C83.9816 22.24 84.7483 22.44 85.6416 22.44ZM85.2016 14.92C84.535 14.92 83.935 15.0733 83.4016 15.38C82.8816 15.6867 82.475 16.12 82.1816 16.68C81.8883 17.2267 81.7416 17.8667 81.7416 18.6V18.8L88.5216 17.52C88.3483 16.7467 87.9616 16.12 87.3616 15.64C86.7616 15.16 86.0416 14.92 85.2016 14.92ZM101.852 13.4V24H99.932V15.08H95.372L95.252 17.44C95.1853 18.8667 95.0586 20.06 94.872 21.02C94.6853 21.9667 94.3786 22.7267 93.952 23.3C93.5253 23.8733 92.932 24.16 92.172 24.16C91.8253 24.16 91.432 24.1 90.992 23.98L91.112 22.36C91.2853 22.4 91.4453 22.42 91.592 22.42C92.1253 22.42 92.5253 22.1867 92.792 21.72C93.0586 21.2533 93.232 20.7 93.312 20.06C93.392 19.42 93.4653 18.5067 93.532 17.32L93.712 13.4H101.852ZM109.764 24.24C108.258 24.24 107.098 23.8733 106.284 23.14C105.484 22.4067 105.084 21.3667 105.084 20.02V13.4H107.004V17.5C107.351 17.1533 107.818 16.8867 108.404 16.7C109.004 16.5 109.651 16.4 110.344 16.4C111.664 16.4 112.691 16.7333 113.424 17.4C114.158 18.0667 114.524 18.9867 114.524 20.16C114.524 21.4267 114.104 22.4267 113.264 23.16C112.424 23.88 111.258 24.24 109.764 24.24ZM109.784 22.78C110.651 22.78 111.331 22.5467 111.824 22.08C112.318 21.6133 112.564 20.9867 112.564 20.2C112.564 19.4533 112.324 18.8667 111.844 18.44C111.364 18.0133 110.691 17.8 109.824 17.8C109.184 17.8 108.618 17.9267 108.124 18.18C107.631 18.4333 107.258 18.7867 107.004 19.24V20.18C107.004 20.9933 107.251 21.6333 107.744 22.1C108.238 22.5533 108.918 22.78 109.784 22.78ZM116.824 13.4H118.744V17.9H124.784V13.4H126.704V24H124.784V19.56H118.744V24H116.824V13.4ZM134.617 24.24C133.097 24.24 131.937 23.88 131.137 23.16C130.35 22.4267 129.957 21.38 129.957 20.02V13.4H131.877V17.5C132.184 17.1933 132.61 16.9333 133.157 16.72C133.717 16.5067 134.357 16.4 135.077 16.4C136.37 16.4 137.377 16.7333 138.097 17.4C138.83 18.0533 139.197 18.9733 139.197 20.16C139.197 21.4133 138.784 22.4067 137.957 23.14C137.13 23.8733 136.017 24.24 134.617 24.24ZM140.737 13.4H142.657V24H140.737V13.4ZM134.637 22.78C135.464 22.78 136.104 22.54 136.557 22.06C137.024 21.5667 137.257 20.94 137.257 20.18C137.257 19.4733 137.024 18.9 136.557 18.46C136.09 18.02 135.424 17.8 134.557 17.8C133.93 17.8 133.384 17.9267 132.917 18.18C132.464 18.4333 132.117 18.7867 131.877 19.24V20.18C131.877 20.9933 132.11 21.6333 132.577 22.1C133.057 22.5533 133.744 22.78 134.637 22.78ZM155.809 13.4V24H153.969V22.44C153.583 22.9733 153.076 23.3867 152.449 23.68C151.823 23.9733 151.136 24.12 150.389 24.12C148.976 24.12 147.863 23.7333 147.049 22.96C146.236 22.1733 145.829 21.02 145.829 19.5V13.4H147.749V19.28C147.749 20.3067 147.996 21.0867 148.489 21.62C148.983 22.14 149.689 22.4 150.609 22.4C151.623 22.4 152.423 22.0933 153.009 21.48C153.596 20.8667 153.889 20 153.889 18.88V13.4H155.809ZM150.809 12.02C149.823 12.02 149.056 11.7867 148.509 11.32C147.963 10.84 147.683 10.1533 147.669 9.26H148.969C148.983 9.75333 149.149 10.1533 149.469 10.46C149.803 10.7533 150.243 10.9 150.789 10.9C151.336 10.9 151.776 10.7533 152.109 10.46C152.443 10.1533 152.616 9.75333 152.629 9.26H153.969C153.956 10.1533 153.669 10.84 153.109 11.32C152.549 11.7867 151.783 12.02 150.809 12.02Z" fill="#222222"/>
</svg>
