<svg width="217" height="34" viewBox="0 0 217 34" fill="none" xmlns="http://www.w3.org/2000/svg">
<rect width="217" height="34" rx="17" fill="#F5F5F5"/>
<path d="M31.9302 13.4V22.56C31.9302 24.4133 31.4968 25.78 30.6302 26.66C29.7635 27.5533 28.4635 28 26.7302 28C25.7835 28 24.8768 27.86 24.0102 27.58C23.1568 27.3133 22.4568 26.9267 21.9102 26.42L22.8502 24.94C23.3168 25.3667 23.8768 25.7 24.5302 25.94C25.1968 26.18 25.8968 26.3 26.6302 26.3C27.7902 26.3 28.6435 26.0067 29.1902 25.42C29.7368 24.8467 30.0102 23.96 30.0102 22.76V21.98C29.6235 22.4867 29.1235 22.88 28.5102 23.16C27.8968 23.4267 27.2302 23.56 26.5102 23.56C25.0968 23.56 23.9835 23.1733 23.1702 22.4C22.3568 21.6267 21.9502 20.48 21.9502 18.96V13.4H23.8702V18.74C23.8702 19.7533 24.1168 20.5267 24.6102 21.06C25.1035 21.58 25.8102 21.84 26.7302 21.84C27.7435 21.84 28.5435 21.5333 29.1302 20.92C29.7168 20.3067 30.0102 19.44 30.0102 18.32V13.4H31.9302ZM44.7853 13.3C45.812 13.3 46.732 13.5333 47.5453 14C48.3586 14.4533 48.9986 15.0933 49.4653 15.92C49.932 16.7333 50.1653 17.66 50.1653 18.7C50.1653 19.74 49.932 20.6733 49.4653 21.5C48.9986 22.3133 48.3586 22.9533 47.5453 23.42C46.732 23.8867 45.812 24.12 44.7853 24.12C43.852 24.12 43.0053 23.9267 42.2453 23.54C41.4853 23.1533 40.8586 22.6133 40.3653 21.92C39.8853 21.2133 39.5853 20.4133 39.4653 19.52H37.3253V24H35.4053V13.4H37.3253V17.74H39.4853C39.6186 16.86 39.9253 16.0867 40.4053 15.42C40.8986 14.74 41.5186 14.22 42.2653 13.86C43.0253 13.4867 43.8653 13.3 44.7853 13.3ZM44.7853 22.44C45.4386 22.44 46.0253 22.2867 46.5453 21.98C47.0786 21.6733 47.4986 21.24 47.8053 20.68C48.112 20.1067 48.2653 19.4467 48.2653 18.7C48.2653 17.9667 48.112 17.32 47.8053 16.76C47.4986 16.1867 47.0786 15.7467 46.5453 15.44C46.0253 15.1333 45.4386 14.98 44.7853 14.98C44.132 14.98 43.5386 15.1333 43.0053 15.44C42.472 15.7467 42.052 16.1867 41.7453 16.76C41.452 17.32 41.3053 17.9667 41.3053 18.7C41.3053 19.4467 41.452 20.1067 41.7453 20.68C42.052 21.24 42.472 21.6733 43.0053 21.98C43.5386 22.2867 44.132 22.44 44.7853 22.44ZM65.9648 13.3C67.2982 13.3 68.3515 13.6867 69.1248 14.46C69.9115 15.2333 70.3048 16.38 70.3048 17.9V24H68.3848V18.12C68.3848 17.0933 68.1448 16.32 67.6648 15.8C67.1982 15.28 66.5248 15.02 65.6448 15.02C64.6715 15.02 63.8982 15.3267 63.3248 15.94C62.7515 16.54 62.4648 17.4067 62.4648 18.54V24H60.5448V18.12C60.5448 17.0933 60.3048 16.32 59.8248 15.8C59.3582 15.28 58.6848 15.02 57.8048 15.02C56.8315 15.02 56.0582 15.3267 55.4848 15.94C54.9115 16.54 54.6248 17.4067 54.6248 18.54V24H52.7048V13.4H54.5448V14.98C54.9315 14.4333 55.4382 14.02 56.0648 13.74C56.6915 13.4467 57.4048 13.3 58.2048 13.3C59.0315 13.3 59.7648 13.4667 60.4048 13.8C61.0448 14.1333 61.5382 14.62 61.8848 15.26C62.2848 14.6467 62.8382 14.1667 63.5448 13.82C64.2648 13.4733 65.0715 13.3 65.9648 13.3ZM73.5005 13.4H75.4205V17.9H81.4605V13.4H83.3805V24H81.4605V19.56H75.4205V24H73.5005V13.4ZM91.2938 24.24C89.7738 24.24 88.6138 23.88 87.8138 23.16C87.0271 22.4267 86.6338 21.38 86.6338 20.02V13.4H88.5538V17.5C88.8604 17.1933 89.2871 16.9333 89.8338 16.72C90.3938 16.5067 91.0338 16.4 91.7538 16.4C93.0471 16.4 94.0538 16.7333 94.7738 17.4C95.5071 18.0533 95.8738 18.9733 95.8738 20.16C95.8738 21.4133 95.4604 22.4067 94.6338 23.14C93.8071 23.8733 92.6938 24.24 91.2938 24.24ZM97.4138 13.4H99.3338V24H97.4138V13.4ZM91.3138 22.78C92.1404 22.78 92.7804 22.54 93.2338 22.06C93.7004 21.5667 93.9338 20.94 93.9338 20.18C93.9338 19.4733 93.7004 18.9 93.2338 18.46C92.7671 18.02 92.1004 17.8 91.2338 17.8C90.6071 17.8 90.0604 17.9267 89.5938 18.18C89.1404 18.4333 88.7938 18.7867 88.5538 19.24V20.18C88.5538 20.9933 88.7871 21.6333 89.2538 22.1C89.7338 22.5533 90.4204 22.78 91.3138 22.78ZM112.486 13.4V24H110.646V22.44C110.259 22.9733 109.753 23.3867 109.126 23.68C108.499 23.9733 107.813 24.12 107.066 24.12C105.653 24.12 104.539 23.7333 103.726 22.96C102.913 22.1733 102.506 21.02 102.506 19.5V13.4H104.426V19.28C104.426 20.3067 104.673 21.0867 105.166 21.62C105.659 22.14 106.366 22.4 107.286 22.4C108.299 22.4 109.099 22.0933 109.686 21.48C110.273 20.8667 110.566 20 110.566 18.88V13.4H112.486ZM107.486 12.02C106.499 12.02 105.733 11.7867 105.186 11.32C104.639 10.84 104.359 10.1533 104.346 9.26H105.646C105.659 9.75333 105.826 10.1533 106.146 10.46C106.479 10.7533 106.919 10.9 107.466 10.9C108.013 10.9 108.453 10.7533 108.786 10.46C109.119 10.1533 109.293 9.75333 109.306 9.26H110.646C110.633 10.1533 110.346 10.84 109.786 11.32C109.226 11.7867 108.459 12.02 107.486 12.02ZM131.236 13.4V22.56C131.236 24.4133 130.776 25.78 129.856 26.66C128.936 27.5533 127.562 28 125.736 28C124.736 28 123.782 27.86 122.876 27.58C121.969 27.3133 121.236 26.9267 120.676 26.42L121.596 24.94C122.089 25.3667 122.696 25.7 123.416 25.94C124.149 26.1933 124.902 26.32 125.676 26.32C126.916 26.32 127.829 26.0267 128.416 25.44C129.016 24.8533 129.316 23.96 129.316 22.76V21.92C128.862 22.4667 128.302 22.88 127.636 23.16C126.982 23.4267 126.269 23.56 125.496 23.56C124.482 23.56 123.562 23.3467 122.736 22.92C121.922 22.48 121.282 21.8733 120.816 21.1C120.349 20.3133 120.116 19.42 120.116 18.42C120.116 17.42 120.349 16.5333 120.816 15.76C121.282 14.9733 121.922 14.3667 122.736 13.94C123.562 13.5133 124.482 13.3 125.496 13.3C126.296 13.3 127.036 13.4467 127.716 13.74C128.409 14.0333 128.976 14.4667 129.416 15.04V13.4H131.236ZM125.716 21.88C126.409 21.88 127.029 21.7333 127.576 21.44C128.136 21.1467 128.569 20.74 128.876 20.22C129.196 19.6867 129.356 19.0867 129.356 18.42C129.356 17.3933 129.016 16.5667 128.336 15.94C127.656 15.3 126.782 14.98 125.716 14.98C124.636 14.98 123.756 15.3 123.076 15.94C122.396 16.5667 122.056 17.3933 122.056 18.42C122.056 19.0867 122.209 19.6867 122.516 20.22C122.836 20.74 123.269 21.1467 123.816 21.44C124.376 21.7333 125.009 21.88 125.716 21.88ZM144.424 13.4V24H142.584V22.44C142.197 22.9733 141.69 23.3867 141.064 23.68C140.437 23.9733 139.75 24.12 139.004 24.12C137.59 24.12 136.477 23.7333 135.664 22.96C134.85 22.1733 134.444 21.02 134.444 19.5V13.4H136.364V19.28C136.364 20.3067 136.61 21.0867 137.104 21.62C137.597 22.14 138.304 22.4 139.224 22.4C140.237 22.4 141.037 22.0933 141.624 21.48C142.21 20.8667 142.504 20 142.504 18.88V13.4H144.424ZM153.506 18.48C154.213 18.6667 154.76 18.9667 155.146 19.38C155.533 19.7933 155.726 20.3067 155.726 20.92C155.726 21.5467 155.513 22.1067 155.086 22.6C154.66 23.08 154.066 23.46 153.306 23.74C152.56 24.0067 151.72 24.14 150.786 24.14C150 24.14 149.226 24.04 148.466 23.84C147.72 23.6267 147.053 23.3267 146.466 22.94L147.046 21.48C147.553 21.8 148.133 22.0533 148.786 22.24C149.44 22.4133 150.1 22.5 150.766 22.5C151.673 22.5 152.393 22.3467 152.926 22.04C153.473 21.72 153.746 21.2933 153.746 20.76C153.746 20.2667 153.526 19.8867 153.086 19.62C152.66 19.3533 152.053 19.22 151.266 19.22H149.326V17.84H151.126C151.846 17.84 152.413 17.7133 152.826 17.46C153.24 17.2067 153.446 16.86 153.446 16.42C153.446 15.94 153.2 15.5667 152.706 15.3C152.226 15.0333 151.573 14.9 150.746 14.9C149.693 14.9 148.58 15.1733 147.406 15.72L146.886 14.24C148.18 13.5867 149.533 13.26 150.946 13.26C151.8 13.26 152.566 13.38 153.246 13.62C153.926 13.86 154.46 14.2 154.846 14.64C155.233 15.08 155.426 15.58 155.426 16.14C155.426 16.66 155.253 17.1267 154.906 17.54C154.56 17.9533 154.093 18.2667 153.506 18.48ZM168.385 13.4V24H166.545V22.32C166.119 22.9067 165.579 23.3533 164.925 23.66C164.272 23.9667 163.552 24.12 162.765 24.12C161.739 24.12 160.819 23.8933 160.005 23.44C159.192 22.9867 158.552 22.3533 158.085 21.54C157.632 20.7133 157.405 19.7667 157.405 18.7C157.405 17.6333 157.632 16.6933 158.085 15.88C158.552 15.0667 159.192 14.4333 160.005 13.98C160.819 13.5267 161.739 13.3 162.765 13.3C163.525 13.3 164.225 13.4467 164.865 13.74C165.505 14.02 166.039 14.44 166.465 15V13.4H168.385ZM162.925 22.44C163.592 22.44 164.199 22.2867 164.745 21.98C165.292 21.66 165.719 21.22 166.025 20.66C166.332 20.0867 166.485 19.4333 166.485 18.7C166.485 17.9667 166.332 17.32 166.025 16.76C165.719 16.1867 165.292 15.7467 164.745 15.44C164.199 15.1333 163.592 14.98 162.925 14.98C162.245 14.98 161.632 15.1333 161.085 15.44C160.552 15.7467 160.125 16.1867 159.805 16.76C159.499 17.32 159.345 17.9667 159.345 18.7C159.345 19.4333 159.499 20.0867 159.805 20.66C160.125 21.22 160.552 21.66 161.085 21.98C161.632 22.2867 162.245 22.44 162.925 22.44ZM181.498 13.4V24H179.658V22.44C179.271 22.9733 178.765 23.3867 178.138 23.68C177.511 23.9733 176.825 24.12 176.078 24.12C174.665 24.12 173.551 23.7333 172.738 22.96C171.925 22.1733 171.518 21.02 171.518 19.5V13.4H173.438V19.28C173.438 20.3067 173.685 21.0867 174.178 21.62C174.671 22.14 175.378 22.4 176.298 22.4C177.311 22.4 178.111 22.0933 178.698 21.48C179.285 20.8667 179.578 20 179.578 18.88V13.4H181.498ZM176.498 12.02C175.511 12.02 174.745 11.7867 174.198 11.32C173.651 10.84 173.371 10.1533 173.358 9.26H174.658C174.671 9.75333 174.838 10.1533 175.158 10.46C175.491 10.7533 175.931 10.9 176.478 10.9C177.025 10.9 177.465 10.7533 177.798 10.46C178.131 10.1533 178.305 9.75333 178.318 9.26H179.658C179.645 10.1533 179.358 10.84 178.798 11.32C178.238 11.7867 177.471 12.02 176.498 12.02ZM185.017 13.4H186.937V17.9H192.977V13.4H194.897V24H192.977V19.56H186.937V24H185.017V13.4Z" fill="#222222"/>
</svg>
