<svg width="103" height="34" viewBox="0 0 103 34" fill="none" xmlns="http://www.w3.org/2000/svg">
<rect width="103" height="34" rx="17" fill="#F5F5F5"/>
<path d="M30.8156 13.4V24H29.0956V20.64H26.0156H25.7956L23.4756 24H21.4156L23.9956 20.38C23.1956 20.14 22.5823 19.7467 22.1556 19.2C21.729 18.64 21.5156 17.9467 21.5156 17.12C21.5156 15.9067 21.929 14.9867 22.7556 14.36C23.5823 13.72 24.7223 13.4 26.1756 13.4H30.8156ZM23.4756 17.18C23.4756 17.8867 23.6956 18.4133 24.1356 18.76C24.589 19.0933 25.2623 19.26 26.1556 19.26H29.0956V15.08H26.2356C24.3956 15.08 23.4756 15.78 23.4756 17.18ZM39.3817 13.3C40.4484 13.3 41.3884 13.5267 42.2017 13.98C43.0284 14.4333 43.6617 15.0733 44.1017 15.9C44.5551 16.7133 44.7817 17.6533 44.7817 18.72C44.7817 19.7733 44.5617 20.7133 44.1217 21.54C43.6817 22.3533 43.0684 22.9867 42.2817 23.44C41.4951 23.8933 40.5951 24.12 39.5817 24.12C38.7817 24.12 38.0617 23.98 37.4217 23.7C36.7817 23.4067 36.2484 22.9867 35.8217 22.44V27.88H33.8817V18.74C33.8817 17.6733 34.1084 16.7267 34.5617 15.9C35.0284 15.0733 35.6751 14.4333 36.5017 13.98C37.3417 13.5267 38.3017 13.3 39.3817 13.3ZM39.3217 22.44C40.0017 22.44 40.6151 22.2867 41.1617 21.98C41.7084 21.66 42.1284 21.22 42.4217 20.66C42.7284 20.0867 42.8817 19.44 42.8817 18.72C42.8817 18 42.7284 17.36 42.4217 16.8C42.1284 16.2267 41.7084 15.78 41.1617 15.46C40.6284 15.14 40.0151 14.98 39.3217 14.98C38.2684 14.98 37.4151 15.3267 36.7617 16.02C36.1084 16.7 35.7817 17.5933 35.7817 18.7C35.7817 19.4333 35.9284 20.0867 36.2217 20.66C36.5284 21.22 36.9484 21.66 37.4817 21.98C38.0151 22.2867 38.6284 22.44 39.3217 22.44ZM51.4839 19.52H49.2839V24H47.3639V13.4H49.2839V17.88H51.5239L54.9639 13.4H57.0239L53.0039 18.5L57.3039 24H55.0439L51.4839 19.52ZM68.7055 13.4V24H66.8655V22.32C66.4388 22.9067 65.8988 23.3533 65.2455 23.66C64.5921 23.9667 63.8721 24.12 63.0855 24.12C62.0588 24.12 61.1388 23.8933 60.3255 23.44C59.5121 22.9867 58.8721 22.3533 58.4055 21.54C57.9521 20.7133 57.7255 19.7667 57.7255 18.7C57.7255 17.6333 57.9521 16.6933 58.4055 15.88C58.8721 15.0667 59.5121 14.4333 60.3255 13.98C61.1388 13.5267 62.0588 13.3 63.0855 13.3C63.8455 13.3 64.5455 13.4467 65.1855 13.74C65.8255 14.02 66.3588 14.44 66.7855 15V13.4H68.7055ZM63.2455 22.44C63.9121 22.44 64.5188 22.2867 65.0655 21.98C65.6121 21.66 66.0388 21.22 66.3455 20.66C66.6521 20.0867 66.8055 19.4333 66.8055 18.7C66.8055 17.9667 66.6521 17.32 66.3455 16.76C66.0388 16.1867 65.6121 15.7467 65.0655 15.44C64.5188 15.1333 63.9121 14.98 63.2455 14.98C62.5655 14.98 61.9521 15.1333 61.4055 15.44C60.8721 15.7467 60.4455 16.1867 60.1255 16.76C59.8188 17.32 59.6655 17.9667 59.6655 18.7C59.6655 19.4333 59.8188 20.0867 60.1255 20.66C60.4455 21.22 60.8721 21.66 61.4055 21.98C61.9521 22.2867 62.5655 22.44 63.2455 22.44ZM80.6583 13.4V24H78.9383V20.64H75.8583H75.6383L73.3183 24H71.2583L73.8383 20.38C73.0383 20.14 72.4249 19.7467 71.9983 19.2C71.5716 18.64 71.3583 17.9467 71.3583 17.12C71.3583 15.9067 71.7716 14.9867 72.5983 14.36C73.4249 13.72 74.5649 13.4 76.0183 13.4H80.6583ZM73.3183 17.18C73.3183 17.8867 73.5383 18.4133 73.9783 18.76C74.4316 19.0933 75.1049 19.26 75.9983 19.26H78.9383V15.08H76.0783C74.2383 15.08 73.3183 15.78 73.3183 17.18Z" fill="#222222"/>
</svg>
