<svg width="138" height="34" viewBox="0 0 138 34" fill="none" xmlns="http://www.w3.org/2000/svg">
<rect width="138" height="34" rx="17" fill="#F5F5F5"/>
<path d="M33.4162 22.32V26.54H31.5962V24H22.0962V13.4H24.0162V22.32H29.8162V13.4H31.7362V22.32H33.4162ZM42.9048 18.5C44.2781 18.8467 44.9648 19.7067 44.9648 21.08C44.9648 22.0133 44.6114 22.7333 43.9048 23.24C43.2114 23.7467 42.1714 24 40.7848 24H35.6848V13.4H40.6048C41.8581 13.4 42.8381 13.64 43.5448 14.12C44.2514 14.5867 44.6048 15.2533 44.6048 16.12C44.6048 16.68 44.4514 17.1667 44.1448 17.58C43.8514 17.98 43.4381 18.2867 42.9048 18.5ZM37.5648 17.96H40.4448C41.1781 17.96 41.7314 17.8267 42.1048 17.56C42.4914 17.2933 42.6848 16.9067 42.6848 16.4C42.6848 15.3867 41.9381 14.88 40.4448 14.88H37.5648V17.96ZM40.6448 22.52C41.4448 22.52 42.0448 22.3933 42.4448 22.14C42.8448 21.8867 43.0448 21.4933 43.0448 20.96C43.0448 20.4133 42.8581 20.0067 42.4848 19.74C42.1248 19.4733 41.5514 19.34 40.7648 19.34H37.5648V22.52H40.6448ZM52.4899 22.44C53.7566 22.44 54.7766 22.0133 55.5499 21.16L56.5899 22.4C56.1233 22.96 55.5299 23.3867 54.8099 23.68C54.1033 23.9733 53.3099 24.12 52.4299 24.12C51.3099 24.12 50.3166 23.8933 49.4499 23.44C48.5833 22.9733 47.9099 22.3267 47.4299 21.5C46.9633 20.6733 46.7299 19.74 46.7299 18.7C46.7299 17.6733 46.9566 16.7467 47.4099 15.92C47.8766 15.0933 48.5099 14.4533 49.3099 14C50.1233 13.5333 51.0366 13.3 52.0499 13.3C53.0099 13.3 53.8833 13.52 54.6699 13.96C55.4566 14.3867 56.0833 14.9933 56.5499 15.78C57.0166 16.5667 57.2566 17.4733 57.2699 18.5L48.8499 20.14C49.1166 20.8733 49.5633 21.44 50.1899 21.84C50.8299 22.24 51.5966 22.44 52.4899 22.44ZM52.0499 14.92C51.3833 14.92 50.7833 15.0733 50.2499 15.38C49.7299 15.6867 49.3233 16.12 49.0299 16.68C48.7366 17.2267 48.5899 17.8667 48.5899 18.6V18.8L55.3699 17.52C55.1966 16.7467 54.8099 16.12 54.2099 15.64C53.6099 15.16 52.8899 14.92 52.0499 14.92ZM73.036 13.3C74.3694 13.3 75.4227 13.6867 76.196 14.46C76.9827 15.2333 77.376 16.38 77.376 17.9V24H75.456V18.12C75.456 17.0933 75.216 16.32 74.736 15.8C74.2693 15.28 73.596 15.02 72.716 15.02C71.7427 15.02 70.9693 15.3267 70.396 15.94C69.8227 16.54 69.536 17.4067 69.536 18.54V24H67.616V18.12C67.616 17.0933 67.376 16.32 66.896 15.8C66.4293 15.28 65.756 15.02 64.876 15.02C63.9027 15.02 63.1293 15.3267 62.556 15.94C61.9827 16.54 61.696 17.4067 61.696 18.54V24H59.776V13.4H61.616V14.98C62.0027 14.4333 62.5093 14.02 63.136 13.74C63.7627 13.4467 64.476 13.3 65.276 13.3C66.1027 13.3 66.836 13.4667 67.476 13.8C68.116 14.1333 68.6093 14.62 68.956 15.26C69.356 14.6467 69.9093 14.1667 70.616 13.82C71.336 13.4733 72.1427 13.3 73.036 13.3ZM80.5716 13.4H82.4916V17.9H88.5316V13.4H90.4516V24H88.5316V19.56H82.4916V24H80.5716V13.4ZM103.925 13.4V24H102.085V22.32C101.658 22.9067 101.118 23.3533 100.465 23.66C99.8116 23.9667 99.0916 24.12 98.3049 24.12C97.2783 24.12 96.3583 23.8933 95.5449 23.44C94.7316 22.9867 94.0916 22.3533 93.6249 21.54C93.1716 20.7133 92.9449 19.7667 92.9449 18.7C92.9449 17.6333 93.1716 16.6933 93.6249 15.88C94.0916 15.0667 94.7316 14.4333 95.5449 13.98C96.3583 13.5267 97.2783 13.3 98.3049 13.3C99.0649 13.3 99.7649 13.4467 100.405 13.74C101.045 14.02 101.578 14.44 102.005 15V13.4H103.925ZM98.4649 22.44C99.1316 22.44 99.7383 22.2867 100.285 21.98C100.832 21.66 101.258 21.22 101.565 20.66C101.872 20.0867 102.025 19.4333 102.025 18.7C102.025 17.9667 101.872 17.32 101.565 16.76C101.258 16.1867 100.832 15.7467 100.285 15.44C99.7383 15.1333 99.1316 14.98 98.4649 14.98C97.7849 14.98 97.1716 15.1333 96.6249 15.44C96.0916 15.7467 95.6649 16.1867 95.3449 16.76C95.0383 17.32 94.8849 17.9667 94.8849 18.7C94.8849 19.4333 95.0383 20.0867 95.3449 20.66C95.6649 21.22 96.0916 21.66 96.6249 21.98C97.1716 22.2867 97.7849 22.44 98.4649 22.44ZM115.878 13.4V24H114.158V20.64H111.078H110.858L108.538 24H106.478L109.058 20.38C108.258 20.14 107.644 19.7467 107.218 19.2C106.791 18.64 106.578 17.9467 106.578 17.12C106.578 15.9067 106.991 14.9867 107.818 14.36C108.644 13.72 109.784 13.4 111.238 13.4H115.878ZM108.538 17.18C108.538 17.8867 108.758 18.4133 109.198 18.76C109.651 19.0933 110.324 19.26 111.218 19.26H114.158V15.08H111.298C109.458 15.08 108.538 15.78 108.538 17.18Z" fill="#222222"/>
</svg>
