<svg width="149" height="34" viewBox="0 0 149 34" fill="none" xmlns="http://www.w3.org/2000/svg">
<rect width="149" height="34" rx="17" fill="#F5F5F5"/>
<path d="M26.8281 24.12C25.7481 24.12 24.7815 23.8867 23.9281 23.42C23.0881 22.9533 22.4281 22.3133 21.9481 21.5C21.4681 20.6733 21.2281 19.74 21.2281 18.7C21.2281 17.66 21.4681 16.7333 21.9481 15.92C22.4281 15.0933 23.0881 14.4533 23.9281 14C24.7815 13.5333 25.7481 13.3 26.8281 13.3C27.7881 13.3 28.6415 13.4933 29.3881 13.88C30.1481 14.2667 30.7348 14.8267 31.1481 15.56L29.6881 16.5C29.3548 15.9933 28.9415 15.6133 28.4481 15.36C27.9548 15.1067 27.4081 14.98 26.8081 14.98C26.1148 14.98 25.4881 15.1333 24.9281 15.44C24.3815 15.7467 23.9481 16.1867 23.6281 16.76C23.3215 17.32 23.1681 17.9667 23.1681 18.7C23.1681 19.4467 23.3215 20.1067 23.6281 20.68C23.9481 21.24 24.3815 21.6733 24.9281 21.98C25.4881 22.2867 26.1148 22.44 26.8081 22.44C27.4081 22.44 27.9548 22.3133 28.4481 22.06C28.9415 21.8067 29.3548 21.4267 29.6881 20.92L31.1481 21.84C30.7348 22.5733 30.1481 23.14 29.3881 23.54C28.6415 23.9267 27.7881 24.12 26.8281 24.12ZM46.6739 13.3C48.0072 13.3 49.0606 13.6867 49.8339 14.46C50.6206 15.2333 51.0139 16.38 51.0139 17.9V24H49.0939V18.12C49.0939 17.0933 48.8539 16.32 48.3739 15.8C47.9072 15.28 47.2339 15.02 46.3539 15.02C45.3806 15.02 44.6072 15.3267 44.0339 15.94C43.4606 16.54 43.1739 17.4067 43.1739 18.54V24H41.2539V18.12C41.2539 17.0933 41.0139 16.32 40.5339 15.8C40.0672 15.28 39.3939 15.02 38.5139 15.02C37.5406 15.02 36.7672 15.3267 36.1939 15.94C35.6206 16.54 35.3339 17.4067 35.3339 18.54V24H33.4139V13.4H35.2539V14.98C35.6406 14.4333 36.1472 14.02 36.7739 13.74C37.4006 13.4467 38.1139 13.3 38.9139 13.3C39.7406 13.3 40.4739 13.4667 41.1139 13.8C41.7539 14.1333 42.2472 14.62 42.5939 15.26C42.9939 14.6467 43.5472 14.1667 44.2539 13.82C44.9739 13.4733 45.7806 13.3 46.6739 13.3ZM63.8695 13.4V24H62.0295V22.44C61.6429 22.9733 61.1362 23.3867 60.5095 23.68C59.8829 23.9733 59.1962 24.12 58.4495 24.12C57.0362 24.12 55.9229 23.7333 55.1095 22.96C54.2962 22.1733 53.8895 21.02 53.8895 19.5V13.4H55.8095V19.28C55.8095 20.3067 56.0562 21.0867 56.5495 21.62C57.0429 22.14 57.7495 22.4 58.6695 22.4C59.6829 22.4 60.4829 22.0933 61.0695 21.48C61.6562 20.8667 61.9495 20 61.9495 18.88V13.4H63.8695ZM76.488 13.4V24H74.568V15.08H70.008L69.888 17.44C69.8213 18.8667 69.6946 20.06 69.508 21.02C69.3213 21.9667 69.0146 22.7267 68.588 23.3C68.1613 23.8733 67.568 24.16 66.808 24.16C66.4613 24.16 66.068 24.1 65.628 23.98L65.748 22.36C65.9213 22.4 66.0813 22.42 66.228 22.42C66.7613 22.42 67.1613 22.1867 67.428 21.72C67.6946 21.2533 67.868 20.7 67.948 20.06C68.028 19.42 68.1013 18.5067 68.168 17.32L68.348 13.4H76.488ZM84.4005 24.24C82.8938 24.24 81.7338 23.8733 80.9205 23.14C80.1205 22.4067 79.7205 21.3667 79.7205 20.02V13.4H81.6405V17.5C81.9871 17.1533 82.4538 16.8867 83.0405 16.7C83.6405 16.5 84.2871 16.4 84.9805 16.4C86.3005 16.4 87.3271 16.7333 88.0605 17.4C88.7938 18.0667 89.1605 18.9867 89.1605 20.16C89.1605 21.4267 88.7405 22.4267 87.9005 23.16C87.0605 23.88 85.8938 24.24 84.4005 24.24ZM84.4205 22.78C85.2871 22.78 85.9671 22.5467 86.4605 22.08C86.9538 21.6133 87.2005 20.9867 87.2005 20.2C87.2005 19.4533 86.9605 18.8667 86.4805 18.44C86.0005 18.0133 85.3271 17.8 84.4605 17.8C83.8205 17.8 83.2538 17.9267 82.7605 18.18C82.2671 18.4333 81.8938 18.7867 81.6405 19.24V20.18C81.6405 20.9933 81.8871 21.6333 82.3805 22.1C82.8738 22.5533 83.5538 22.78 84.4205 22.78ZM91.4597 13.4H93.3797V17.9H99.4197V13.4H101.34V24H99.4197V19.56H93.3797V24H91.4597V13.4ZM114.813 13.4V24H112.973V22.32C112.546 22.9067 112.006 23.3533 111.353 23.66C110.7 23.9667 109.98 24.12 109.193 24.12C108.166 24.12 107.246 23.8933 106.433 23.44C105.62 22.9867 104.98 22.3533 104.513 21.54C104.06 20.7133 103.833 19.7667 103.833 18.7C103.833 17.6333 104.06 16.6933 104.513 15.88C104.98 15.0667 105.62 14.4333 106.433 13.98C107.246 13.5267 108.166 13.3 109.193 13.3C109.953 13.3 110.653 13.4467 111.293 13.74C111.933 14.02 112.466 14.44 112.893 15V13.4H114.813ZM109.353 22.44C110.02 22.44 110.626 22.2867 111.173 21.98C111.72 21.66 112.146 21.22 112.453 20.66C112.76 20.0867 112.913 19.4333 112.913 18.7C112.913 17.9667 112.76 17.32 112.453 16.76C112.146 16.1867 111.72 15.7467 111.173 15.44C110.626 15.1333 110.02 14.98 109.353 14.98C108.673 14.98 108.06 15.1333 107.513 15.44C106.98 15.7467 106.553 16.1867 106.233 16.76C105.926 17.32 105.773 17.9667 105.773 18.7C105.773 19.4333 105.926 20.0867 106.233 20.66C106.553 21.22 106.98 21.66 107.513 21.98C108.06 22.2867 108.673 22.44 109.353 22.44ZM126.766 13.4V24H125.046V20.64H121.966H121.746L119.426 24H117.366L119.946 20.38C119.146 20.14 118.532 19.7467 118.106 19.2C117.679 18.64 117.466 17.9467 117.466 17.12C117.466 15.9067 117.879 14.9867 118.706 14.36C119.532 13.72 120.672 13.4 122.126 13.4H126.766ZM119.426 17.18C119.426 17.8867 119.646 18.4133 120.086 18.76C120.539 19.0933 121.212 19.26 122.106 19.26H125.046V15.08H122.186C120.346 15.08 119.426 15.78 119.426 17.18Z" fill="#222222"/>
</svg>
