<svg width="132" height="34" viewBox="0 0 132 34" fill="none" xmlns="http://www.w3.org/2000/svg">
<rect width="132" height="34" rx="17" fill="#F5F5F5"/>
<path d="M31.9049 13.4V22.56C31.9049 24.4133 31.4716 25.78 30.6049 26.66C29.7383 27.5533 28.4383 28 26.7049 28C25.7583 28 24.8516 27.86 23.9849 27.58C23.1316 27.3133 22.4316 26.9267 21.8849 26.42L22.8249 24.94C23.2916 25.3667 23.8516 25.7 24.5049 25.94C25.1716 26.18 25.8716 26.3 26.6049 26.3C27.7649 26.3 28.6183 26.0067 29.1649 25.42C29.7116 24.8467 29.9849 23.96 29.9849 22.76V21.98C29.5983 22.4867 29.0983 22.88 28.4849 23.16C27.8716 23.4267 27.2049 23.56 26.4849 23.56C25.0716 23.56 23.9583 23.1733 23.1449 22.4C22.3316 21.6267 21.9249 20.48 21.9249 18.96V13.4H23.8449V18.74C23.8449 19.7533 24.0916 20.5267 24.5849 21.06C25.0783 21.58 25.7849 21.84 26.7049 21.84C27.7183 21.84 28.5183 21.5333 29.1049 20.92C29.6916 20.3067 29.9849 19.44 29.9849 18.32V13.4H31.9049ZM45.4601 13.4V22.56C45.4601 24.4133 45.0001 25.78 44.0801 26.66C43.1601 27.5533 41.7867 28 39.9601 28C38.9601 28 38.0067 27.86 37.1001 27.58C36.1934 27.3133 35.4601 26.9267 34.9001 26.42L35.8201 24.94C36.3134 25.3667 36.9201 25.7 37.6401 25.94C38.3734 26.1933 39.1267 26.32 39.9001 26.32C41.1401 26.32 42.0534 26.0267 42.6401 25.44C43.2401 24.8533 43.5401 23.96 43.5401 22.76V21.92C43.0867 22.4667 42.5267 22.88 41.8601 23.16C41.2067 23.4267 40.4934 23.56 39.7201 23.56C38.7067 23.56 37.7867 23.3467 36.9601 22.92C36.1467 22.48 35.5067 21.8733 35.0401 21.1C34.5734 20.3133 34.3401 19.42 34.3401 18.42C34.3401 17.42 34.5734 16.5333 35.0401 15.76C35.5067 14.9733 36.1467 14.3667 36.9601 13.94C37.7867 13.5133 38.7067 13.3 39.7201 13.3C40.5201 13.3 41.2601 13.4467 41.9401 13.74C42.6334 14.0333 43.2001 14.4667 43.6401 15.04V13.4H45.4601ZM39.9401 21.88C40.6334 21.88 41.2534 21.7333 41.8001 21.44C42.3601 21.1467 42.7934 20.74 43.1001 20.22C43.4201 19.6867 43.5801 19.0867 43.5801 18.42C43.5801 17.3933 43.2401 16.5667 42.5601 15.94C41.8801 15.3 41.0067 14.98 39.9401 14.98C38.8601 14.98 37.9801 15.3 37.3001 15.94C36.6201 16.5667 36.2801 17.3933 36.2801 18.42C36.2801 19.0867 36.4334 19.6867 36.7401 20.22C37.0601 20.74 37.4934 21.1467 38.0401 21.44C38.6001 21.7333 39.2334 21.88 39.9401 21.88ZM53.5282 24.12C52.4749 24.12 51.5282 23.8867 50.6882 23.42C49.8482 22.9533 49.1882 22.3133 48.7082 21.5C48.2415 20.6733 48.0082 19.74 48.0082 18.7C48.0082 17.66 48.2415 16.7333 48.7082 15.92C49.1882 15.0933 49.8482 14.4533 50.6882 14C51.5282 13.5333 52.4749 13.3 53.5282 13.3C54.5815 13.3 55.5215 13.5333 56.3482 14C57.1882 14.4533 57.8415 15.0933 58.3082 15.92C58.7882 16.7333 59.0282 17.66 59.0282 18.7C59.0282 19.74 58.7882 20.6733 58.3082 21.5C57.8415 22.3133 57.1882 22.9533 56.3482 23.42C55.5215 23.8867 54.5815 24.12 53.5282 24.12ZM53.5282 22.44C54.2082 22.44 54.8149 22.2867 55.3482 21.98C55.8949 21.66 56.3215 21.22 56.6282 20.66C56.9349 20.0867 57.0882 19.4333 57.0882 18.7C57.0882 17.9667 56.9349 17.32 56.6282 16.76C56.3215 16.1867 55.8949 15.7467 55.3482 15.44C54.8149 15.1333 54.2082 14.98 53.5282 14.98C52.8482 14.98 52.2349 15.1333 51.6882 15.44C51.1549 15.7467 50.7282 16.1867 50.4082 16.76C50.1015 17.32 49.9482 17.9667 49.9482 18.7C49.9482 19.4333 50.1015 20.0867 50.4082 20.66C50.7282 21.22 51.1549 21.66 51.6882 21.98C52.2349 22.2867 52.8482 22.44 53.5282 22.44ZM66.9807 13.76C67.9674 13.76 68.8474 13.98 69.6207 14.42C70.394 14.86 70.994 15.4733 71.4207 16.26C71.8607 17.0333 72.0807 17.92 72.0807 18.92C72.0807 19.9467 71.8474 20.86 71.3807 21.66C70.9274 22.4467 70.2807 23.06 69.4407 23.5C68.614 23.94 67.6674 24.16 66.6007 24.16C64.8007 24.16 63.4074 23.5467 62.4207 22.32C61.4474 21.08 60.9607 19.34 60.9607 17.1C60.9607 14.9267 61.4074 13.2267 62.3007 12C63.194 10.76 64.5607 9.94 66.4007 9.54L71.2407 8.46L71.5207 10.22L67.0607 11.18C65.674 11.4867 64.6407 12.0067 63.9607 12.74C63.2807 13.4733 62.894 14.5267 62.8007 15.9C63.254 15.22 63.8407 14.6933 64.5607 14.32C65.2807 13.9467 66.0874 13.76 66.9807 13.76ZM66.6407 22.56C67.3207 22.56 67.9207 22.4067 68.4407 22.1C68.974 21.7933 69.3874 21.3733 69.6807 20.84C69.974 20.2933 70.1207 19.6733 70.1207 18.98C70.1207 17.9267 69.8007 17.08 69.1607 16.44C68.5207 15.8 67.6807 15.48 66.6407 15.48C65.6007 15.48 64.754 15.8 64.1007 16.44C63.4607 17.08 63.1407 17.9267 63.1407 18.98C63.1407 19.6733 63.2874 20.2933 63.5807 20.84C63.8874 21.3733 64.3074 21.7933 64.8407 22.1C65.374 22.4067 65.974 22.56 66.6407 22.56ZM74.6029 13.4H76.5229V17.9H82.5629V13.4H84.4829V24H82.5629V19.56H76.5229V24H74.6029V13.4ZM97.9562 13.4V24H96.1162V22.32C95.6895 22.9067 95.1495 23.3533 94.4962 23.66C93.8428 23.9667 93.1228 24.12 92.3362 24.12C91.3095 24.12 90.3895 23.8933 89.5762 23.44C88.7628 22.9867 88.1228 22.3533 87.6562 21.54C87.2028 20.7133 86.9762 19.7667 86.9762 18.7C86.9762 17.6333 87.2028 16.6933 87.6562 15.88C88.1228 15.0667 88.7628 14.4333 89.5762 13.98C90.3895 13.5267 91.3095 13.3 92.3362 13.3C93.0962 13.3 93.7962 13.4467 94.4362 13.74C95.0762 14.02 95.6095 14.44 96.0362 15V13.4H97.9562ZM92.4962 22.44C93.1628 22.44 93.7695 22.2867 94.3162 21.98C94.8628 21.66 95.2895 21.22 95.5962 20.66C95.9028 20.0867 96.0562 19.4333 96.0562 18.7C96.0562 17.9667 95.9028 17.32 95.5962 16.76C95.2895 16.1867 94.8628 15.7467 94.3162 15.44C93.7695 15.1333 93.1628 14.98 92.4962 14.98C91.8162 14.98 91.2028 15.1333 90.6562 15.44C90.1228 15.7467 89.6962 16.1867 89.3762 16.76C89.0695 17.32 88.9162 17.9667 88.9162 18.7C88.9162 19.4333 89.0695 20.0867 89.3762 20.66C89.6962 21.22 90.1228 21.66 90.6562 21.98C91.2028 22.2867 91.8162 22.44 92.4962 22.44ZM109.909 13.4V24H108.189V20.64H105.109H104.889L102.569 24H100.509L103.089 20.38C102.289 20.14 101.676 19.7467 101.249 19.2C100.822 18.64 100.609 17.9467 100.609 17.12C100.609 15.9067 101.022 14.9867 101.849 14.36C102.676 13.72 103.816 13.4 105.269 13.4H109.909ZM102.569 17.18C102.569 17.8867 102.789 18.4133 103.229 18.76C103.682 19.0933 104.356 19.26 105.249 19.26H108.189V15.08H105.329C103.489 15.08 102.569 15.78 102.569 17.18Z" fill="#222222"/>
</svg>
