<svg width="123" height="34" viewBox="0 0 123 34" fill="none" xmlns="http://www.w3.org/2000/svg">
<rect width="123" height="34" rx="17" fill="#F5F5F5"/>
<path d="M26.0378 19.52H23.8378V24H21.9178V13.4H23.8378V17.88H26.0778L29.5178 13.4H31.5778L27.5578 18.5L31.8578 24H29.5978L26.0378 19.52ZM37.8394 24.12C36.786 24.12 35.8394 23.8867 34.9994 23.42C34.1594 22.9533 33.4994 22.3133 33.0194 21.5C32.5527 20.6733 32.3194 19.74 32.3194 18.7C32.3194 17.66 32.5527 16.7333 33.0194 15.92C33.4994 15.0933 34.1594 14.4533 34.9994 14C35.8394 13.5333 36.786 13.3 37.8394 13.3C38.8927 13.3 39.8327 13.5333 40.6594 14C41.4994 14.4533 42.1527 15.0933 42.6194 15.92C43.0994 16.7333 43.3394 17.66 43.3394 18.7C43.3394 19.74 43.0994 20.6733 42.6194 21.5C42.1527 22.3133 41.4994 22.9533 40.6594 23.42C39.8327 23.8867 38.8927 24.12 37.8394 24.12ZM37.8394 22.44C38.5194 22.44 39.126 22.2867 39.6594 21.98C40.206 21.66 40.6327 21.22 40.9394 20.66C41.246 20.0867 41.3994 19.4333 41.3994 18.7C41.3994 17.9667 41.246 17.32 40.9394 16.76C40.6327 16.1867 40.206 15.7467 39.6594 15.44C39.126 15.1333 38.5194 14.98 37.8394 14.98C37.1594 14.98 36.546 15.1333 35.9994 15.44C35.466 15.7467 35.0394 16.1867 34.7194 16.76C34.4127 17.32 34.2594 17.9667 34.2594 18.7C34.2594 19.4333 34.4127 20.0867 34.7194 20.66C35.0394 21.22 35.466 21.66 35.9994 21.98C36.546 22.2867 37.1594 22.44 37.8394 22.44ZM59.1519 13.3C60.4852 13.3 61.5385 13.6867 62.3119 14.46C63.0985 15.2333 63.4919 16.38 63.4919 17.9V24H61.5719V18.12C61.5719 17.0933 61.3319 16.32 60.8519 15.8C60.3852 15.28 59.7119 15.02 58.8319 15.02C57.8585 15.02 57.0852 15.3267 56.5119 15.94C55.9385 16.54 55.6519 17.4067 55.6519 18.54V24H53.7319V18.12C53.7319 17.0933 53.4919 16.32 53.0119 15.8C52.5452 15.28 51.8719 15.02 50.9919 15.02C50.0185 15.02 49.2452 15.3267 48.6719 15.94C48.0985 16.54 47.8119 17.4067 47.8119 18.54V24H45.8919V13.4H47.7319V14.98C48.1185 14.4333 48.6252 14.02 49.2519 13.74C49.8785 13.4467 50.5919 13.3 51.3919 13.3C52.2185 13.3 52.9519 13.4667 53.5919 13.8C54.2319 14.1333 54.7252 14.62 55.0719 15.26C55.4719 14.6467 56.0252 14.1667 56.7319 13.82C57.4519 13.4733 58.2585 13.3 59.1519 13.3ZM76.3475 13.4V24H74.5075V22.44C74.1208 22.9733 73.6142 23.3867 72.9875 23.68C72.3608 23.9733 71.6742 24.12 70.9275 24.12C69.5142 24.12 68.4008 23.7333 67.5875 22.96C66.7742 22.1733 66.3675 21.02 66.3675 19.5V13.4H68.2875V19.28C68.2875 20.3067 68.5342 21.0867 69.0275 21.62C69.5208 22.14 70.2275 22.4 71.1475 22.4C72.1608 22.4 72.9608 22.0933 73.5475 21.48C74.1342 20.8667 74.4275 20 74.4275 18.88V13.4H76.3475ZM83.9859 19.52H81.7859V24H79.8659V13.4H81.7859V17.88H84.0259L87.4659 13.4H89.5259L85.5059 18.5L89.8059 24H87.5459L83.9859 19.52ZM101.064 13.4V24H99.2237V22.44C98.8371 22.9733 98.3304 23.3867 97.7037 23.68C97.0771 23.9733 96.3904 24.12 95.6437 24.12C94.2304 24.12 93.1171 23.7333 92.3037 22.96C91.4904 22.1733 91.0837 21.02 91.0837 19.5V13.4H93.0037V19.28C93.0037 20.3067 93.2504 21.0867 93.7437 21.62C94.2371 22.14 94.9437 22.4 95.8637 22.4C96.8771 22.4 97.6771 22.0933 98.2637 21.48C98.8504 20.8667 99.1437 20 99.1437 18.88V13.4H101.064Z" fill="#222222"/>
</svg>
