<svg width="471" height="56" viewBox="0 0 471 56" fill="none" xmlns="http://www.w3.org/2000/svg">
<path d="M0 0H447C460.255 0 471 10.7452 471 24V32C471 45.2548 460.255 56 447 56H0V0Z" fill="#F27222" fill-opacity="0.8"/>
<path d="M30.166 32.384H26.426V40H23.162V21.98H26.426V29.596H30.234L36.082 21.98H39.584L32.75 30.65L40.06 40H36.218L30.166 32.384ZM59.4427 21.98V40H56.3147V37.144C55.5893 38.1413 54.6713 38.9007 53.5607 39.422C52.45 39.9433 51.226 40.204 49.8887 40.204C48.1433 40.204 46.5793 39.8187 45.1967 39.048C43.814 38.2773 42.726 37.2007 41.9327 35.818C41.162 34.4127 40.7767 32.8033 40.7767 30.99C40.7767 29.1767 41.162 27.5787 41.9327 26.196C42.726 24.8133 43.814 23.7367 45.1967 22.966C46.5793 22.1953 48.1433 21.81 49.8887 21.81C51.1807 21.81 52.3707 22.0593 53.4587 22.558C54.5467 23.034 55.4533 23.748 56.1787 24.7V21.98H59.4427ZM50.1607 37.348C51.294 37.348 52.3253 37.0873 53.2547 36.566C54.184 36.022 54.9093 35.274 55.4307 34.322C55.952 33.3473 56.2127 32.2367 56.2127 30.99C56.2127 29.7433 55.952 28.644 55.4307 27.692C54.9093 26.7173 54.184 25.9693 53.2547 25.448C52.3253 24.9267 51.294 24.666 50.1607 24.666C49.0047 24.666 47.962 24.9267 47.0327 25.448C46.126 25.9693 45.4007 26.7173 44.8567 27.692C44.3353 28.644 44.0747 29.7433 44.0747 30.99C44.0747 32.2367 44.3353 33.3473 44.8567 34.322C45.4007 35.274 46.126 36.022 47.0327 36.566C47.962 37.0873 49.0047 37.348 50.1607 37.348ZM73.8804 21.81C75.6938 21.81 77.2918 22.1953 78.6744 22.966C80.0798 23.7367 81.1564 24.8247 81.9044 26.23C82.6751 27.6127 83.0604 29.2107 83.0604 31.024C83.0604 32.8147 82.6864 34.4127 81.9384 35.818C81.1904 37.2007 80.1478 38.2773 78.8104 39.048C77.4731 39.8187 75.9431 40.204 74.2204 40.204C72.8604 40.204 71.6364 39.966 70.5484 39.49C69.4604 38.9913 68.5538 38.2773 67.8284 37.348V46.596H64.5304V31.058C64.5304 29.2447 64.9158 27.6353 65.6864 26.23C66.4798 24.8247 67.5791 23.7367 68.9844 22.966C70.4124 22.1953 72.0444 21.81 73.8804 21.81ZM73.7784 37.348C74.9344 37.348 75.9771 37.0873 76.9064 36.566C77.8358 36.022 78.5498 35.274 79.0484 34.322C79.5698 33.3473 79.8304 32.248 79.8304 31.024C79.8304 29.8 79.5698 28.712 79.0484 27.76C78.5498 26.7853 77.8358 26.026 76.9064 25.482C75.9998 24.938 74.9571 24.666 73.7784 24.666C71.9878 24.666 70.5371 25.2553 69.4264 26.434C68.3158 27.59 67.7604 29.1087 67.7604 30.99C67.7604 32.2367 68.0098 33.3473 68.5084 34.322C69.0298 35.274 69.7438 36.022 70.6504 36.566C71.5571 37.0873 72.5998 37.348 73.7784 37.348ZM104.586 21.98V37.552C104.586 40.7027 103.804 43.026 102.24 44.522C100.676 46.0407 98.3415 46.8 95.2362 46.8C93.5362 46.8 91.9155 46.562 90.3742 46.086C88.8328 45.6327 87.5862 44.9753 86.6342 44.114L88.1982 41.598C89.0368 42.3233 90.0682 42.89 91.2922 43.298C92.5388 43.7287 93.8195 43.944 95.1342 43.944C97.2422 43.944 98.7948 43.4453 99.7922 42.448C100.812 41.4507 101.322 39.932 101.322 37.892V36.464C100.551 37.3933 99.5995 38.096 98.4662 38.572C97.3555 39.0253 96.1428 39.252 94.8282 39.252C93.1055 39.252 91.5415 38.8893 90.1362 38.164C88.7535 37.416 87.6655 36.3847 86.8722 35.07C86.0788 33.7327 85.6822 32.214 85.6822 30.514C85.6822 28.814 86.0788 27.3067 86.8722 25.992C87.6655 24.6547 88.7535 23.6233 90.1362 22.898C91.5415 22.1727 93.1055 21.81 94.8282 21.81C96.1882 21.81 97.4462 22.0593 98.6022 22.558C99.7808 23.0567 100.744 23.7933 101.492 24.768V21.98H104.586ZM95.2022 36.396C96.3808 36.396 97.4348 36.1467 98.3642 35.648C99.3162 35.1493 100.053 34.458 100.574 33.574C101.118 32.6673 101.39 31.6473 101.39 30.514C101.39 28.7687 100.812 27.3633 99.6562 26.298C98.5002 25.21 97.0155 24.666 95.2022 24.666C93.3662 24.666 91.8702 25.21 90.7142 26.298C89.5582 27.3633 88.9802 28.7687 88.9802 30.514C88.9802 31.6473 89.2408 32.6673 89.7622 33.574C90.3062 34.458 91.0428 35.1493 91.9722 35.648C92.9242 36.1467 94.0008 36.396 95.2022 36.396ZM127.006 21.98V40H123.878V37.348C123.221 38.2547 122.359 38.9573 121.294 39.456C120.229 39.9547 119.061 40.204 117.792 40.204C115.389 40.204 113.497 39.5467 112.114 38.232C110.731 36.8947 110.04 34.934 110.04 32.35V21.98H113.304V31.976C113.304 33.7213 113.723 35.0473 114.562 35.954C115.401 36.838 116.602 37.28 118.166 37.28C119.889 37.28 121.249 36.7587 122.246 35.716C123.243 34.6733 123.742 33.2 123.742 31.296V21.98H127.006ZM146.247 24.836H136.251V40H132.987V21.98H146.247V24.836ZM165.35 21.98V40H162.222V37.144C161.497 38.1413 160.579 38.9007 159.468 39.422C158.357 39.9433 157.133 40.204 155.796 40.204C154.051 40.204 152.487 39.8187 151.104 39.048C149.721 38.2773 148.633 37.2007 147.84 35.818C147.069 34.4127 146.684 32.8033 146.684 30.99C146.684 29.1767 147.069 27.5787 147.84 26.196C148.633 24.8133 149.721 23.7367 151.104 22.966C152.487 22.1953 154.051 21.81 155.796 21.81C157.088 21.81 158.278 22.0593 159.366 22.558C160.454 23.034 161.361 23.748 162.086 24.7V21.98H165.35ZM156.068 37.348C157.201 37.348 158.233 37.0873 159.162 36.566C160.091 36.022 160.817 35.274 161.338 34.322C161.859 33.3473 162.12 32.2367 162.12 30.99C162.12 29.7433 161.859 28.644 161.338 27.692C160.817 26.7173 160.091 25.9693 159.162 25.448C158.233 24.9267 157.201 24.666 156.068 24.666C154.912 24.666 153.869 24.9267 152.94 25.448C152.033 25.9693 151.308 26.7173 150.764 27.692C150.243 28.644 149.982 29.7433 149.982 30.99C149.982 32.2367 150.243 33.3473 150.764 34.322C151.308 35.274 152.033 36.022 152.94 36.566C153.869 37.0873 154.912 37.348 156.068 37.348ZM171.22 21.98H174.484V29.63H184.752V21.98H188.016V40H184.752V32.452H174.484V40H171.22V21.98Z" fill="#F5F5F5"/>
</svg>
