<svg width="471" height="56" viewBox="0 0 471 56" fill="none" xmlns="http://www.w3.org/2000/svg">
<path d="M0 0H447C460.255 0 471 10.7452 471 24V32C471 45.2548 460.255 56 447 56H0V0Z" fill="#F27222" fill-opacity="0.8"/>
<path d="M39.108 21.81C40.8533 21.81 42.4173 22.2067 43.8 23C45.1827 23.7707 46.2707 24.8587 47.064 26.264C47.8573 27.6467 48.254 29.222 48.254 30.99C48.254 32.758 47.8573 34.3447 47.064 35.75C46.2707 37.1327 45.1827 38.2207 43.8 39.014C42.4173 39.8073 40.8533 40.204 39.108 40.204C37.5213 40.204 36.082 39.8753 34.79 39.218C33.498 38.5607 32.4327 37.6427 31.594 36.464C30.778 35.2627 30.268 33.9027 30.064 32.384H26.426V40H23.162V21.98H26.426V29.358H30.098C30.3247 27.862 30.846 26.5473 31.662 25.414C32.5007 24.258 33.5547 23.374 34.824 22.762C36.116 22.1273 37.544 21.81 39.108 21.81ZM39.108 37.348C40.2187 37.348 41.216 37.0873 42.1 36.566C43.0067 36.0447 43.7207 35.308 44.242 34.356C44.7633 33.3813 45.024 32.2593 45.024 30.99C45.024 29.7433 44.7633 28.644 44.242 27.692C43.7207 26.7173 43.0067 25.9693 42.1 25.448C41.216 24.9267 40.2187 24.666 39.108 24.666C37.9973 24.666 36.9887 24.9267 36.082 25.448C35.1753 25.9693 34.4613 26.7173 33.94 27.692C33.4413 28.644 33.192 29.7433 33.192 30.99C33.192 32.2593 33.4413 33.3813 33.94 34.356C34.4613 35.308 35.1753 36.0447 36.082 36.566C36.9887 37.0873 37.9973 37.348 39.108 37.348ZM61.7512 22.592C63.4285 22.592 64.9245 22.966 66.2392 23.714C67.5539 24.462 68.5739 25.5047 69.2992 26.842C70.0472 28.1567 70.4212 29.664 70.4212 31.364C70.4212 33.1093 70.0245 34.662 69.2312 36.022C68.4605 37.3593 67.3612 38.402 65.9332 39.15C64.5279 39.898 62.9185 40.272 61.1052 40.272C58.0452 40.272 55.6765 39.2293 53.9992 37.144C52.3445 35.036 51.5172 32.078 51.5172 28.27C51.5172 24.5753 52.2765 21.6853 53.7952 19.6C55.3139 17.492 57.6372 16.098 60.7652 15.418L68.9932 13.582L69.4692 16.574L61.8872 18.206C59.5299 18.7273 57.7732 19.6113 56.6172 20.858C55.4612 22.1047 54.8039 23.8953 54.6452 26.23C55.4159 25.074 56.4132 24.1787 57.6372 23.544C58.8612 22.9093 60.2325 22.592 61.7512 22.592ZM61.1732 37.552C62.3292 37.552 63.3492 37.2913 64.2332 36.77C65.1399 36.2487 65.8425 35.5347 66.3412 34.628C66.8399 33.6987 67.0892 32.6447 67.0892 31.466C67.0892 29.6753 66.5452 28.236 65.4572 27.148C64.3692 26.06 62.9412 25.516 61.1732 25.516C59.4052 25.516 57.9659 26.06 56.8552 27.148C55.7672 28.236 55.2232 29.6753 55.2232 31.466C55.2232 32.6447 55.4725 33.6987 55.9712 34.628C56.4925 35.5347 57.2065 36.2487 58.1132 36.77C59.0199 37.2913 60.0399 37.552 61.1732 37.552ZM81.7129 32.384H77.9729V40H74.7089V21.98H77.9729V29.596H81.7809L87.6289 21.98H91.1309L84.2969 30.65L91.6069 40H87.7649L81.7129 32.384ZM110.99 21.98V40H107.862V37.144C107.136 38.1413 106.218 38.9007 105.108 39.422C103.997 39.9433 102.773 40.204 101.436 40.204C99.6902 40.204 98.1262 39.8187 96.7436 39.048C95.3609 38.2773 94.2729 37.2007 93.4796 35.818C92.7089 34.4127 92.3236 32.8033 92.3236 30.99C92.3236 29.1767 92.7089 27.5787 93.4796 26.196C94.2729 24.8133 95.3609 23.7367 96.7436 22.966C98.1262 22.1953 99.6902 21.81 101.436 21.81C102.728 21.81 103.918 22.0593 105.006 22.558C106.094 23.034 107 23.748 107.726 24.7V21.98H110.99ZM101.708 37.348C102.841 37.348 103.872 37.0873 104.802 36.566C105.731 36.022 106.456 35.274 106.978 34.322C107.499 33.3473 107.76 32.2367 107.76 30.99C107.76 29.7433 107.499 28.644 106.978 27.692C106.456 26.7173 105.731 25.9693 104.802 25.448C103.872 24.9267 102.841 24.666 101.708 24.666C100.552 24.666 99.5089 24.9267 98.5796 25.448C97.6729 25.9693 96.9476 26.7173 96.4036 27.692C95.8822 28.644 95.6216 29.7433 95.6216 30.99C95.6216 32.2367 95.8822 33.3473 96.4036 34.322C96.9476 35.274 97.6729 36.022 98.5796 36.566C99.5089 37.0873 100.552 37.348 101.708 37.348Z" fill="#F5F5F5"/>
</svg>
