<svg width="471" height="56" viewBox="0 0 471 56" fill="none" xmlns="http://www.w3.org/2000/svg">
<path d="M0 0H447C460.255 0 471 10.7452 471 24V32C471 45.2548 460.255 56 447 56H0V0Z" fill="#F27222" fill-opacity="0.8"/>
<path d="M30.166 32.384H26.426V40H23.162V21.98H26.426V29.596H30.234L36.082 21.98H39.584L32.75 30.65L40.06 40H36.218L30.166 32.384ZM50.2287 40.204C48.438 40.204 46.8287 39.8073 45.4007 39.014C43.9727 38.2207 42.8507 37.1327 42.0347 35.75C41.2413 34.3447 40.8447 32.758 40.8447 30.99C40.8447 29.222 41.2413 27.6467 42.0347 26.264C42.8507 24.8587 43.9727 23.7707 45.4007 23C46.8287 22.2067 48.438 21.81 50.2287 21.81C52.0193 21.81 53.6173 22.2067 55.0227 23C56.4507 23.7707 57.5613 24.8587 58.3547 26.264C59.1707 27.6467 59.5787 29.222 59.5787 30.99C59.5787 32.758 59.1707 34.3447 58.3547 35.75C57.5613 37.1327 56.4507 38.2207 55.0227 39.014C53.6173 39.8073 52.0193 40.204 50.2287 40.204ZM50.2287 37.348C51.3847 37.348 52.416 37.0873 53.3227 36.566C54.252 36.022 54.9773 35.274 55.4987 34.322C56.02 33.3473 56.2807 32.2367 56.2807 30.99C56.2807 29.7433 56.02 28.644 55.4987 27.692C54.9773 26.7173 54.252 25.9693 53.3227 25.448C52.416 24.9267 51.3847 24.666 50.2287 24.666C49.0727 24.666 48.03 24.9267 47.1007 25.448C46.194 25.9693 45.4687 26.7173 44.9247 27.692C44.4033 28.644 44.1427 29.7433 44.1427 30.99C44.1427 32.2367 44.4033 33.3473 44.9247 34.322C45.4687 35.274 46.194 36.022 47.1007 36.566C48.03 37.0873 49.0727 37.348 50.2287 37.348ZM86.6639 30.956C86.6639 33.744 85.7346 35.9427 83.8759 37.552C82.0172 39.1613 79.3992 40.0567 76.0219 40.238V46.596H72.8259V40.238C69.4486 40.0567 66.8306 39.1727 64.9719 37.586C63.1359 35.9767 62.2179 33.7667 62.2179 30.956C62.2179 28.168 63.1359 25.992 64.9719 24.428C66.8079 22.864 69.4259 21.9913 72.8259 21.81V14.772H76.0219V21.81C79.3992 21.9913 82.0172 22.8753 83.8759 24.462C85.7346 26.026 86.6639 28.1907 86.6639 30.956ZM65.4479 30.956C65.4479 32.8827 66.0599 34.39 67.2839 35.478C68.5306 36.566 70.3779 37.1893 72.8259 37.348V24.7C70.3552 24.8587 68.5079 25.4707 67.2839 26.536C66.0599 27.6013 65.4479 29.0747 65.4479 30.956ZM76.0219 37.382C80.9632 36.9967 83.4339 34.8547 83.4339 30.956C83.4339 29.052 82.8106 27.5787 81.5639 26.536C80.3172 25.4707 78.4699 24.8587 76.0219 24.7V37.382ZM113.445 21.81C115.712 21.81 117.503 22.4673 118.817 23.782C120.155 25.0967 120.823 27.046 120.823 29.63V40H117.559V30.004C117.559 28.2587 117.151 26.944 116.335 26.06C115.542 25.176 114.397 24.734 112.901 24.734C111.247 24.734 109.932 25.2553 108.957 26.298C107.983 27.318 107.495 28.7913 107.495 30.718V40H104.231V30.004C104.231 28.2587 103.823 26.944 103.007 26.06C102.214 25.176 101.069 24.734 99.5733 24.734C97.9186 24.734 96.6039 25.2553 95.6293 26.298C94.6546 27.318 94.1673 28.7913 94.1673 30.718V40H90.9033V21.98H94.0313V24.666C94.6886 23.7367 95.5499 23.034 96.6153 22.558C97.6806 22.0593 98.8933 21.81 100.253 21.81C101.659 21.81 102.905 22.0933 103.993 22.66C105.081 23.2267 105.92 24.054 106.509 25.142C107.189 24.0993 108.13 23.2833 109.331 22.694C110.555 22.1047 111.927 21.81 113.445 21.81ZM143.188 21.98V40H140.06V37.144C139.335 38.1413 138.417 38.9007 137.306 39.422C136.195 39.9433 134.971 40.204 133.634 40.204C131.889 40.204 130.325 39.8187 128.942 39.048C127.559 38.2773 126.471 37.2007 125.678 35.818C124.907 34.4127 124.522 32.8033 124.522 30.99C124.522 29.1767 124.907 27.5787 125.678 26.196C126.471 24.8133 127.559 23.7367 128.942 22.966C130.325 22.1953 131.889 21.81 133.634 21.81C134.926 21.81 136.116 22.0593 137.204 22.558C138.292 23.034 139.199 23.748 139.924 24.7V21.98H143.188ZM133.906 37.348C135.039 37.348 136.071 37.0873 137 36.566C137.929 36.022 138.655 35.274 139.176 34.322C139.697 33.3473 139.958 32.2367 139.958 30.99C139.958 29.7433 139.697 28.644 139.176 27.692C138.655 26.7173 137.929 25.9693 137 25.448C136.071 24.9267 135.039 24.666 133.906 24.666C132.75 24.666 131.707 24.9267 130.778 25.448C129.871 25.9693 129.146 26.7173 128.602 27.692C128.081 28.644 127.82 29.7433 127.82 30.99C127.82 32.2367 128.081 33.3473 128.602 34.322C129.146 35.274 129.871 36.022 130.778 36.566C131.707 37.0873 132.75 37.348 133.906 37.348Z" fill="#F5F5F5"/>
</svg>
